<?xml version="1.0" standalone="no"?><!DOCTYPE svg PUBLIC "-//W3C//DTD SVG 1.1//EN" "http://www.w3.org/Graphics/SVG/1.1/DTD/svg11.dtd"><svg t="1712237443560" class="icon" viewBox="0 0 1024 1024" version="1.1" xmlns="http://www.w3.org/2000/svg" p-id="1475" xmlns:xlink="http://www.w3.org/1999/xlink" width="200" height="200"><path d="M416.01219 106.666667c-17.67619 0-32.01219 14.336-32.01219 32.01219v192c0 17.65181 14.336 31.98781 32.01219 31.98781h66.657524V426.666667h-237.348571c-17.65181 0-31.98781 14.336-31.98781 32.01219v181.321143H138.654476c-17.65181 0-31.98781 14.336-31.987809 32.01219v192c0 17.65181 14.336 31.98781 32.01219 31.98781h192c17.65181 0 31.98781-14.336 31.98781-32.01219v-191.97562c0-17.67619-14.336-32.01219-32.012191-32.01219h-58.660571v-154.672762h480.01219v154.672762h-58.684952c-17.65181 0-31.98781 14.336-31.98781 32.01219v192c0 17.65181 14.336 31.98781 32.012191 31.98781h192c17.65181 0 31.98781-14.336 31.987809-32.01219v-191.97562c0-17.67619-14.336-32.01219-32.01219-32.01219H810.666667v-181.345524c0-17.65181-14.336-31.98781-32.012191-31.987809h-237.32419v-64h66.681904c17.65181 0 31.98781-14.336 31.98781-32.012191V138.703238c0-17.67619-14.336-32.01219-32.01219-32.01219h-192z m26.648381 58.660571h138.678858v138.678857h-138.678858V165.302857z m277.333334 533.333333h138.678857v138.678858H719.969524v-138.678858z m-554.666667 0h138.678857v138.678858H165.302857v-138.678858z" p-id="1476"></path></svg>