<?xml version="1.0" standalone="no"?><!DOCTYPE svg PUBLIC "-//W3C//DTD SVG 1.1//EN" "http://www.w3.org/Graphics/SVG/1.1/DTD/svg11.dtd"><svg t="1681304394240" class="icon" viewBox="0 0 1024 1024" version="1.1" xmlns="http://www.w3.org/2000/svg" p-id="2404" xmlns:xlink="http://www.w3.org/1999/xlink" width="200" height="200"><path d="M576 320H237.248l137.344-137.344a32 32 0 0 0-45.248-45.248L137.408 329.344a31.744 31.744 0 0 0 0 45.312l191.936 191.936a32 32 0 1 0 45.312-45.184L237.248 384H576c105.856 0 192 86.144 192 192s-86.144 192-192 192H416a32 32 0 0 0 0 64H576c141.184 0 256-114.816 256-256s-114.816-256-256-256z" fill="#231815" p-id="2405"></path></svg>