<?xml version="1.0" standalone="no"?><!DOCTYPE svg PUBLIC "-//W3C//DTD SVG 1.1//EN" "http://www.w3.org/Graphics/SVG/1.1/DTD/svg11.dtd"><svg t="1720143925412" class="icon" viewBox="0 0 1024 1024" version="1.1" xmlns="http://www.w3.org/2000/svg" p-id="4298" xmlns:xlink="http://www.w3.org/1999/xlink" width="200" height="200"><path d="M896 608c17.496 0 31.713 14.042 32 31.47V832c0 52.49-42.124 95.14-94.412 95.987L832 928H192c-52.49 0-95.14-42.125-95.987-94.412L96 832V640c0-17.673 14.327-32 32-32 17.496 0 31.713 14.042 31.996 31.47l0.004 0.53v192c0 17.497 14.041 31.713 31.47 31.996l0.53 0.004h640c17.497 0 31.713-14.04 31.996-31.47L864 832V640c0-17.673 14.327-32 32-32zM682.667 480c17.496 0 31.713 14.042 31.995 31.47l0.005 0.53v149.333c0 17.673-14.327 32-32 32-17.497 0-31.713-14.041-31.996-31.47l-0.004-0.53V512c0-17.673 14.327-32 32-32zM512 288c17.496 0 31.713 14.042 31.996 31.47l0.004 0.53v341.333c0 17.673-14.327 32-32 32-17.496 0-31.713-14.041-31.996-31.47l-0.004-0.53V320c0-17.673 14.327-32 32-32z m-170.667 85.333c17.497 0 31.713 14.042 31.996 31.471l0.004 0.53v256c0 17.672-14.327 32-32 32-17.496 0-31.713-14.042-31.995-31.471l-0.005-0.53v-256c0-17.673 14.327-32 32-32zM832 96c52.49 0 95.14 42.125 95.987 94.412L928 192v192c0 17.673-14.327 32-32 32-17.496 0-31.713-14.042-31.996-31.47L864 384V192c0-17.497-14.041-31.713-31.47-31.996L832 160H192c-17.496 0-31.713 14.042-31.996 31.47L160 192v192c0 17.673-14.327 32-32 32-17.496 0-31.713-14.042-32-31.47V192c0-52.49 42.125-95.14 94.412-95.987L192 96h640z" p-id="4299"></path></svg>