<?xml version="1.0" standalone="no"?><!DOCTYPE svg PUBLIC "-//W3C//DTD SVG 1.1//EN" "http://www.w3.org/Graphics/SVG/1.1/DTD/svg11.dtd"><svg t="1690768554931" class="icon" viewBox="0 0 1024 1024" version="1.1" xmlns="http://www.w3.org/2000/svg" p-id="2305" xmlns:xlink="http://www.w3.org/1999/xlink" width="200" height="200"><path d="M128 416v448c0 17.706667 14.293333 32 32 32h704c17.706667 0 32-14.293333 32-32V416c0-17.706667-14.293333-32-32-32H160c-17.706667 0-32 14.293333-32 32z m64 32h640v384H192V448zM192 288c0 17.706667 14.293333 32 32 32h576c17.706667 0 32-14.293333 32-32s-14.293333-32-32-32H224c-17.706667 0-32 14.293333-32 32zM736 192c17.706667 0 32-14.293333 32-32s-14.293333-32-32-32H288c-17.706667 0-32 14.293333-32 32s14.293333 32 32 32h448z" p-id="2306"></path><path d="M399.253333 528.746667c-12.48-12.48-32.746667-12.48-45.226666 0l-88.64 88.64c-12.48 12.48-12.48 32.746667 0 45.226666l88.64 88.64c6.293333 6.293333 14.4 9.386667 22.613333 9.386667s16.426667-3.093333 22.613333-9.386667c12.48-12.48 12.48-32.746667 0-45.226666L333.226667 640l66.026666-66.026667c12.48-12.48 12.48-32.746667 0-45.226666zM669.973333 528.746667c-12.48-12.48-32.746667-12.48-45.226666 0s-12.48 32.746667 0 45.226666l66.026666 66.026667-66.026666 66.026667c-12.48 12.48-12.48 32.746667 0 45.226666 6.293333 6.293333 14.4 9.386667 22.613333 9.386667s16.426667-3.093333 22.613333-9.386667l88.64-88.64c12.48-12.48 12.48-32.746667 0-45.226666l-88.64-88.64zM554.133333 513.6c-16.746667-5.546667-34.88 3.52-40.426666 20.266667l-64 192c-5.546667 16.746667 3.52 34.88 20.266666 40.426666 3.306667 1.066667 6.72 1.6 10.133334 1.6 13.44 0 25.92-8.533333 30.4-21.866666l64-192c5.44-16.64-3.626667-34.773333-20.373334-40.426667z" p-id="2307"></path></svg>