<?xml version="1.0" standalone="no"?><!DOCTYPE svg PUBLIC "-//W3C//DTD SVG 1.1//EN" "http://www.w3.org/Graphics/SVG/1.1/DTD/svg11.dtd"><svg t="1681459920171" class="icon" viewBox="0 0 1024 1024" version="1.1" xmlns="http://www.w3.org/2000/svg" p-id="5646" xmlns:xlink="http://www.w3.org/1999/xlink" width="200" height="200"><path d="M512 164.8l98.88 200.384 14.848 30.272 33.344 4.8 221.12 32.128-160 156.032-24.064 23.36 5.696 33.216 37.696 220.16-197.696-104L512 745.472l-29.824 15.616-197.696 104 37.824-220.224 5.696-33.152L303.872 588.224 143.808 432.384l221.12-32.128 33.344-4.8 14.848-30.272L512 164.8M512 83.52c-19.136 0-36.544 10.816-44.992 27.968L355.776 336.96 107.008 373.056c-18.944 2.752-34.624 16-40.576 34.112C60.544 425.344 65.408 445.312 79.104 458.688L259.2 634.112l-42.56 247.744c-3.2 18.752 4.416 37.888 19.968 49.152 8.832 6.272 19.136 9.472 29.568 9.472 7.936 0 16-1.856 23.296-5.76L512 817.728l222.528 116.992c7.36 3.904 15.36 5.76 23.36 5.76 10.368 0 20.736-3.264 29.504-9.472 15.488-11.264 23.104-30.4 19.968-49.152l-42.432-247.744 179.968-175.424c13.76-13.376 18.624-33.344 12.672-51.52-5.888-18.112-21.632-31.36-40.512-34.112l-248.832-36.096L557.056 111.424C548.48 94.336 531.136 83.52 512 83.52L512 83.52z" p-id="5647"></path></svg>