<?xml version="1.0" standalone="no"?><!DOCTYPE svg PUBLIC "-//W3C//DTD SVG 1.1//EN" "http://www.w3.org/Graphics/SVG/1.1/DTD/svg11.dtd"><svg t="1741328867689" class="icon" viewBox="0 0 1024 1024" version="1.1" xmlns="http://www.w3.org/2000/svg" p-id="32320" xmlns:xlink="http://www.w3.org/1999/xlink" width="200" height="200"><path d="M539.592 88c3.491 0 6.892 0.389 10.16 1.125a29.813 29.813 0 0 1 19.4 7.769l0.574 0.535 299.147 286.514a30.11 30.11 0 0 1 3.384 3.841c7.895 8.26 12.743 19.457 12.743 31.784v420.874C885 910.338 828.326 967 758.415 967h-494.83C193.674 967 137 910.338 137 840.442V214.558C137 144.662 193.674 88 263.585 88h276.007z m-13.81 59.827H263.586c-36.494 0-66.147 29.282-66.736 65.627l-0.009 1.104v625.884c0 36.486 29.288 66.133 65.64 66.722l1.105 0.009h494.83c36.494 0 66.147-29.282 66.736-65.627l0.009-1.104V433.373l-205.014 0.002c-51.594 0-93.517-41.399-94.35-92.783l-0.013-1.56V147.827z m-43.728 430.296l18.918 39.574c5.16 8.603 8.599 18.927 13.759 30.97h1.72c5.159-12.043 8.599-20.646 12.038-30.97l18.918-39.574h39.556l-49.875 94.633 53.315 96.354h-42.996l-20.638-43.015c-5.16-10.324-8.599-20.647-15.478-30.971h-1.72c-5.16 12.044-8.6 22.368-13.759 30.97l-20.638 43.016h-41.276l55.035-98.074-49.875-92.913h42.996z m-88.555-6.903c8.974 0 16.25 7.275 16.25 16.25 0 8.974-7.276 16.25-16.25 16.25h-62.78v44.473h50.753c8.975 0 16.25 7.275 16.25 16.25 0 8.974-7.275 16.25-16.25 16.25h-50.754v51.315h66.217c8.974 0 16.25 7.275 16.25 16.25s-7.276 16.25-16.25 16.25H292.92V571.22H393.5z m317.629 0c8.974 0 16.25 7.275 16.25 16.25 0 8.974-7.276 16.25-16.25 16.25H648.73v44.473h50.429c8.974 0 16.25 7.275 16.25 16.25 0 8.974-7.276 16.25-16.25 16.25h-50.43v51.315h65.817c8.975 0 16.25 7.275 16.25 16.25s-7.275 16.25-16.25 16.25h-103.43V571.22h100.01zM585.622 195.504l0.001 143.528c0 19.062 15.456 34.515 34.523 34.515h151.37L585.622 195.504z" fill="#333333" p-id="32321"></path></svg>