<?xml version="1.0" standalone="no"?><!DOCTYPE svg PUBLIC "-//W3C//DTD SVG 1.1//EN" "http://www.w3.org/Graphics/SVG/1.1/DTD/svg11.dtd"><svg t="1755683383996" class="icon" viewBox="0 0 1280 1024" version="1.1" xmlns="http://www.w3.org/2000/svg" p-id="14501" xmlns:xlink="http://www.w3.org/1999/xlink" width="250" height="200"><path d="M43.4 492.8c-0.2 173.6 58 319 157.4 424.2H0v-810h174.4c-83 100.4-131.2 232.4-131 385.8zM1280 107.2h-167.2c62.8 85.4 97.4 195 92.4 325.4 1 12 1 23.4 0 48.2H460.4c-0.4 219.4 77.8 389.8 277.2 390.6 137-0.6 236-102 303.8-212.2l192.8 96.4c-34.8 61.8-73 115.6-115.8 161.6H1280v-810z m-161.6 810s0-0.2 0 0h-0.4 0.4z m-6.2-810h0.6l-0.2-0.2-0.4 0.2z m-461.4 19.2c-91.8 0.2-170.2 67-178.4 166.4h339.8c-2.2-99.4-69-166.2-161.4-166.4z" fill="" p-id="14502"></path></svg>