<?xml version="1.0" standalone="no"?><!DOCTYPE svg PUBLIC "-//W3C//DTD SVG 1.1//EN" "http://www.w3.org/Graphics/SVG/1.1/DTD/svg11.dtd"><svg t="1743652076648" class="icon" viewBox="0 0 1024 1024" version="1.1" xmlns="http://www.w3.org/2000/svg" p-id="9594" xmlns:xlink="http://www.w3.org/1999/xlink" width="200" height="200"><path d="M931.84 197.717333c50.858667 0 92.16 40.832 92.16 90.88V890.453333c0 50.133333-41.301333 90.88-92.16 90.88H92.16C41.301333 981.333333 0 940.586667 0 890.453333V288.554667c0-50.133333 41.301333-90.88 92.16-90.88z m0 79.189334H92.16a11.733333 11.733333 0 0 0-11.818667 11.648V890.453333c0 6.442667 5.290667 11.648 11.818667 11.648h839.68a11.733333 11.733333 0 0 0 11.818667-11.648V288.554667a11.733333 11.733333 0 0 0-11.818667-11.648z m-253.525333 112.469333l36.394666 77.226667 74.922667-34.432 33.962667 71.850666-295.509334 135.552a157.525333 157.525333 0 0 1-89.898666 171.434667 161.493333 161.493333 0 0 1-122.197334 5.205333 158.293333 158.293333 0 0 1-90.24-81.578666 154.282667 154.282667 0 0 1-5.290666-120.490667 157.738667 157.738667 0 0 1 82.773333-88.96 160.597333 160.597333 0 0 1 122.24-5.205333 158.464 158.464 0 0 1 68.608 47.786666l147.712-67.84-36.352-77.141333 72.874667-33.408z m-307.712 200.192a80.64 80.64 0 0 0-33.536 7.338667 78.165333 78.165333 0 0 0-41.173334 44.245333 78.421333 78.421333 0 0 0 47.530667 100.608c19.925333 7.125333 41.514667 6.229333 60.8-2.56a78.122667 78.122667 0 0 0-6.314667-144.896 81.664 81.664 0 0 0-27.306666-4.693333zM429.056 42.666667c22.101333 0 40.106667 17.749333 40.106667 39.594666a39.936 39.936 0 0 1-40.106667 39.637334H40.106667A39.936 39.936 0 0 1 0 82.261333C0 60.416 18.005333 42.666667 40.149333 42.666667z" p-id="9595"></path></svg>