<?xml version="1.0" standalone="no"?><!DOCTYPE svg PUBLIC "-//W3C//DTD SVG 1.1//EN" "http://www.w3.org/Graphics/SVG/1.1/DTD/svg11.dtd"><svg t="1755683652082" class="icon" viewBox="0 0 1024 1024" version="1.1" xmlns="http://www.w3.org/2000/svg" p-id="30866" xmlns:xlink="http://www.w3.org/1999/xlink" width="200" height="200"><path d="M145.194667 105.386667a87.893333 87.893333 0 0 0-87.893334 87.893333v527.530667a87.893333 87.893333 0 0 0 87.893334 87.893333h340.608l75.008 70.570667a13.226667 13.226667 0 0 0 17.024 0.853333l54.186666-43.690667c16.554667 6.314667 32.768 9.685333 49.749334 11.349334l29.312 63.530666a13.013333 13.013333 0 0 0 15.445333 6.698667l99.584-30.037333a13.141333 13.141333 0 0 0 9.173333-14.293334l-10.453333-69.12c6.442667-5.333333 12.629333-10.88 18.517333-17.152 5.888-6.272 11.178667-13.098667 16.512-20.266666l69.12 6.698666a13.226667 13.226667 0 0 0 13.696-10.026666l23.637334-101.290667a12.8 12.8 0 0 0-7.68-15.061333l-65.066667-25.386667a188.416 188.416 0 0 0-14.592-48.682667l40.192-56.917333a13.226667 13.226667 0 0 0-1.962667-16.938667l-68.693333-64.384V193.322667a87.893333 87.893333 0 0 0-87.893333-87.893334z m0 175.829333h615.381333v187.008c-13.226667-4.266667-26.453333-7.168-40.106667-8.704l-29.44-63.274667a12.842667 12.842667 0 0 0-15.530666-6.656l-99.584 30.037334a12.842667 12.842667 0 0 0-9.173334 14.250666l11.093334 68.522667c-6.826667 5.717333-13.312 11.52-19.2 17.749333a202.368 202.368 0 0 0-15.957334 19.626667l-69.589333-6.058667a12.8 12.8 0 0 0-13.653333 10.026667l-23.722667 101.333333a13.056 13.056 0 0 0 7.68 15.018667l65.237333 25.173333c1.962667 12.16 5.248 23.893333 9.429334 35.541334H145.194667z m554.282666 281.429333a91.136 91.136 0 0 1 63.872 24.661334 91.136 91.136 0 0 1 4.138667 128.853333 91.136 91.136 0 0 1-128.768 4.010667 91.136 91.136 0 0 1-4.138667-128.768 91.136 91.136 0 0 1 64.896-28.757334z" fill="#EF5350" p-id="30867"></path></svg>