<?xml version="1.0" standalone="no"?><!DOCTYPE svg PUBLIC "-//W3C//DTD SVG 1.1//EN" "http://www.w3.org/Graphics/SVG/1.1/DTD/svg11.dtd"><svg t="1743952440248" class="icon" viewBox="0 0 1024 1024" version="1.1" xmlns="http://www.w3.org/2000/svg" p-id="16212" xmlns:xlink="http://www.w3.org/1999/xlink" width="200" height="200"><path d="M512 597.333333a42.666667 42.666667 0 0 1 42.666667 42.666667v170.666667a42.666667 42.666667 0 0 1-85.333334 0v-170.666667a42.666667 42.666667 0 0 1 42.666667-42.666667m0-85.333333a128 128 0 0 0-128 128v170.666667a128 128 0 0 0 256 0v-170.666667a128 128 0 0 0-128-128z m341.333333-177.92V469.333333h85.333334v-170.666666L725.333333 85.333333H85.333333v384h85.333334V170.666667h519.253333zM256 512l-42.666667 56.96L170.666667 512H85.333333v426.666667h85.333334V654.293333l42.666666 56.746667 42.666667-56.746667V938.666667h85.333333V512z m597.333333 0v199.04a85.333333 85.333333 0 0 1-17.066666 51.2l-25.6 34.133333-25.6-34.133333a85.333333 85.333333 0 0 1-17.066667-51.2V512h-85.333333v199.04a170.666667 170.666667 0 0 0 34.133333 102.4L810.666667 938.666667l93.866666-125.226667a170.666667 170.666667 0 0 0 34.133334-102.4V512z" p-id="16213"></path></svg>