<?xml version="1.0" standalone="no"?><!DOCTYPE svg PUBLIC "-//W3C//DTD SVG 1.1//EN" "http://www.w3.org/Graphics/SVG/1.1/DTD/svg11.dtd"><svg t="1752738521719" class="icon" viewBox="0 0 1024 1024" version="1.1" xmlns="http://www.w3.org/2000/svg" p-id="5859" xmlns:xlink="http://www.w3.org/1999/xlink" width="200" height="200"><path d="M648.76544 0c24.40704 0 47.8208 9.68704 65.09568 26.9312l187.61728 187.21792a92.16 92.16 0 0 1 27.05408 65.2288v120.6272c44.2368 0 80.09728 35.85536 80.10752 80.08704v319.7952c0 43.24864-34.3296 78.6944-77.55776 80.06656l-2.54976 0.03072v48.00512c0 53.02272-43.02848 96-96.12288 96H191.5904c-53.0944 0-96.12288-42.97728-96.12288-96v-48.00512c-44.2368 0-80.09728-35.85536-80.10752-80.08704V480.1024c0-43.24864 34.3296-78.6944 77.55776-80.06656l2.54976-0.04096V96C95.46752 42.97728 138.496 0 191.5904 0h457.17504z m183.64416 879.99488H191.5904v17.28512a30.72 30.72 0 0 0 30.72 30.72h579.3792a30.72 30.72 0 0 0 30.72-30.72v-17.28512zM299.49952 548.08576h-43.99104L225.28 720.11776h38.33856l21.38112-121.6512 39.3216 68.8128h6.88128l64.88064-66.84672-21.13536 119.68512h38.33856l30.22848-172.032h-43.49952L338.08384 614.1952l-38.58432-66.10944z m302.03904 0h-38.0928l-112.31232 101.49888-3.6864 39.3216h91.66848l-5.40672 31.21152h37.60128l5.40672-31.21152h19.6608l5.89824-33.1776h-19.6608l18.92352-107.64288z m146.47296-0.24576h-41.7792l-107.39712 172.032h42.76224l17.69472-29.4912H747.52l7.3728 29.4912h40.05888l-46.94016-172.032z m-26.05056 38.0928l16.95744 70.53312h-59.22816l42.27072-70.53312z m-166.13376 8.6016l-10.81344 61.19424H489.472l66.3552-61.19424z m47.39072-506.2144H222.3104a30.72 30.72 0 0 0-30.72 30.72v280.95488h640.8192v-81.5616h-137.00096c-50.8928-0.01024-92.14976-41.2672-92.16-92.16l-0.03072-137.95328z" fill="#FF527B" p-id="5860"></path></svg>