<?xml version="1.0" standalone="no"?><!DOCTYPE svg PUBLIC "-//W3C//DTD SVG 1.1//EN" "http://www.w3.org/Graphics/SVG/1.1/DTD/svg11.dtd"><svg t="1741328792896" class="icon" viewBox="0 0 1024 1024" version="1.1" xmlns="http://www.w3.org/2000/svg" p-id="29234" xmlns:xlink="http://www.w3.org/1999/xlink" width="200" height="200"><path d="M844.8 313.6L595.2 64H288c-64 0-108.8 51.2-115.2 115.2v665.6c0 64 51.2 115.2 115.2 115.2h448c64 0 115.2-51.2 115.2-115.2l-6.4-531.2z m-51.2 537.6c0 32-25.6 57.6-57.6 57.6h-448c-32 0-57.6-25.6-57.6-57.6V179.2c0-32 25.6-57.6 57.6-57.6h307.2v108.8c0 44.8 38.4 83.2 83.2 83.2h115.2v537.6z" p-id="29235"></path><path d="M422.4 646.4V569.6c-6.4 38.4-25.6 89.6-38.4 140.8h-32c-6.4-44.8-25.6-108.8-32-140.8V704h-32V550.4h51.2c12.8 38.4 25.6 96 32 115.2 6.4-19.2 19.2-76.8 32-115.2h51.2v160h-32v-64zM492.8 550.4h64c32 0 57.6 19.2 57.6 51.2s-25.6 51.2-57.6 51.2h-32v57.6h-32V550.4z m32 70.4h25.6c12.8 0 25.6-6.4 25.6-19.2 6.4-19.2-6.4-25.6-19.2-25.6h-32v44.8zM704 710.4v-32H633.6v-25.6l64-89.6h38.4v89.6h19.2v25.6h-12.8v32H704z m0-89.6v-32c-6.4 12.8-25.6 38.4-38.4 64h38.4v-32z" p-id="29236"></path></svg>