<?xml version="1.0" standalone="no"?><!DOCTYPE svg PUBLIC "-//W3C//DTD SVG 1.1//EN" "http://www.w3.org/Graphics/SVG/1.1/DTD/svg11.dtd"><svg t="1743952415900" class="icon" viewBox="0 0 1024 1024" version="1.1" xmlns="http://www.w3.org/2000/svg" p-id="15920" xmlns:xlink="http://www.w3.org/1999/xlink" width="200" height="200"><path d="M689.92 170.666667H170.666667v298.666666H85.333333V85.333333h640l213.333334 213.333334v170.666666h-85.333334v-135.253333zM256 512l-42.666667 56.96L170.666667 512H85.333333v426.666667h85.333334V654.293333l42.666666 56.746667 42.666667-56.746667V938.666667h85.333333V512z m597.333333 0v199.04a85.333333 85.333333 0 0 1-17.066666 51.2l-25.6 34.133333-25.6-34.133333a85.333333 85.333333 0 0 1-17.066667-51.2V512h-85.333333v199.04a170.666667 170.666667 0 0 0 34.133333 102.4L810.666667 938.666667l93.866666-125.226667a170.666667 170.666667 0 0 0 34.133334-102.4V512z m-469.333333 0v426.666667h85.333333V512z m256 0h-85.333333l-85.333334 213.333333 85.333334 213.333334h85.333333l-85.333333-213.333334z" p-id="15921"></path></svg>