<?xml version="1.0" standalone="no"?><!DOCTYPE svg PUBLIC "-//W3C//DTD SVG 1.1//EN" "http://www.w3.org/Graphics/SVG/1.1/DTD/svg11.dtd"><svg t="1741328778881" class="icon" viewBox="0 0 1024 1024" version="1.1" xmlns="http://www.w3.org/2000/svg" p-id="28214" xmlns:xlink="http://www.w3.org/1999/xlink" width="200" height="200"><path d="M844.8 313.6L595.2 64H288c-64 0-108.8 51.2-115.2 115.2v665.6c0 64 51.2 115.2 115.2 115.2h448c64 0 115.2-51.2 115.2-115.2l-6.4-531.2z m-51.2 537.6c0 32-25.6 57.6-57.6 57.6h-448c-32 0-57.6-25.6-57.6-57.6V179.2c0-32 25.6-57.6 57.6-57.6h307.2v108.8c0 44.8 38.4 83.2 83.2 83.2h115.2v537.6z" p-id="28215"></path><path d="M422.4 646.4V569.6c-6.4 38.4-25.6 89.6-38.4 140.8h-32c-6.4-44.8-25.6-108.8-32-140.8V704h-32V550.4h51.2c12.8 38.4 25.6 96 32 115.2 6.4-19.2 19.2-76.8 32-115.2h51.2v160h-32v-64zM492.8 550.4h64c32 0 57.6 19.2 57.6 51.2s-25.6 51.2-57.6 51.2h-32v57.6h-32V550.4z m32 70.4h25.6c12.8 0 25.6-6.4 25.6-19.2 6.4-19.2-6.4-25.6-19.2-25.6h-32v44.8zM633.6 595.2c0-19.2 12.8-44.8 51.2-44.8 32 0 51.2 19.2 51.2 38.4s-12.8 25.6-19.2 32c12.8 6.4 25.6 12.8 25.6 38.4 0 19.2-12.8 44.8-57.6 44.8-38.4 0-57.6-25.6-57.6-44.8h32c0 12.8 6.4 19.2 25.6 19.2 12.8 0 25.6-12.8 25.6-25.6s-6.4-25.6-25.6-25.6h-12.8v-12.8h12.8c12.8 0 19.2-6.4 19.2-19.2 0-6.4-6.4-19.2-19.2-19.2-12.8 0-19.2 6.4-19.2 19.2h-32z" p-id="28216"></path></svg>