<?xml version="1.0" standalone="no"?><!DOCTYPE svg PUBLIC "-//W3C//DTD SVG 1.1//EN" "http://www.w3.org/Graphics/SVG/1.1/DTD/svg11.dtd"><svg t="1755743703098" class="icon" viewBox="0 0 1024 1024" version="1.1" xmlns="http://www.w3.org/2000/svg" p-id="9362" xmlns:xlink="http://www.w3.org/1999/xlink" width="200" height="200"><path d="M509.581102 88.047874a308.812598 308.812598 0 0 0-107.560315 20.96378c-60.95622 25.317795-109.334173 64.503937-136.425826 119.332283-41.12126 72.889449-47.732913 166.420157 6.450393 247.695118 49.990551 76.437165 116.107087 146.423937 185.1263 226.892599 61.60126 22.415118 92.24063-43.862677 83.048818-67.729134-44.507717-56.440945-91.91811-112.075591-129.652913-170.935433a177.547087 177.547087 0 0 1-11.288189-146.101418c12.094488-31.929449 81.113701-135.458268 221.248504-134.813228 55.634646 6.450394 106.108976 9.514331 175.128189 85.467716a258.338268 258.338268 0 0 0-86.435276-121.428661A329.937638 329.937638 0 0 0 509.419843 88.047874z m39.508662 225.76378c-44.668976 0.32252-65.471496 36.605984-56.118425 70.470551 40.79874 58.859843 93.208189 120.622362 140.134803 180.933543 50.95811 98.207244 14.835906 173.67685-82.56504 237.374488-132.233071 73.857008-254.145512 18.706142-326.712441-48.055433 37.734803 78.856063 68.212913 102.56126 75.953386 109.495433 49.990551 43.540157 130.620472 84.983937 261.240945 68.212914 73.534488-16.448504 170.935433-41.28252 225.11874-176.902048 14.997165-42.733858 20.15748-87.080315 4.837796-135.942047-14.513386-54.505827-44.185197-93.530709-75.147087-133.684409-48.377953-56.602205-124.170079-157.873386-146.101417-169.806615a97.078425 97.078425 0 0 0-20.64126-2.096377z" fill="#039BE5" p-id="9363"></path></svg>