<?xml version="1.0" standalone="no"?><!DOCTYPE svg PUBLIC "-//W3C//DTD SVG 1.1//EN" "http://www.w3.org/Graphics/SVG/1.1/DTD/svg11.dtd"><svg t="1743951690000" class="icon" viewBox="0 0 1024 1024" version="1.1" xmlns="http://www.w3.org/2000/svg" p-id="15355" xmlns:xlink="http://www.w3.org/1999/xlink" width="200" height="200"><path d="M512 1024a512 512 0 1 1 512-512 512.6144 512.6144 0 0 1-512 512z m0-930.901333A418.901333 418.901333 0 1 0 930.9184 512 419.3792 419.3792 0 0 0 512 93.098667zM221.627733 679.9872A314.026667 314.026667 0 0 1 256 699.733333a91.869867 91.869867 0 0 0 51.2 17.066667c95.3856 2.884267 96.631467-17.834667 119.466667-34.133333a77.5168 77.5168 0 0 0 34.133333-68.266667c0-20.3264-20.104533-51.968-34.133333-68.266667a189.696 189.696 0 0 0-68.266667-51.2 167.253333 167.253333 0 0 1-51.2-34.133333 46.592 46.592 0 0 1-17.066667-34.133333c0-15.837867 3.259733-8.174933 17.066667-17.066667s12.270933-18.4832 34.133333-17.066667a190.0032 190.0032 0 0 1 85.333334 34.133334c0.853333-10.24 0-73.096533 0-73.096534a183.978667 183.978667 0 0 0-78.506667-12.561066 153.070933 153.070933 0 0 0-90.453333 25.326933 79.735467 79.735467 0 0 0-35.84 68.608 81.493333 81.493333 0 0 0 17.066666 50.9952 204.066133 204.066133 0 0 0 71.099734 48.247467 591.906133 591.906133 0 0 1 52.992 27.579733 76.4928 76.4928 0 0 1 22.186666 20.6336 44.9024 44.9024 0 0 1 8.106667 26.231467q0 52.0192-75.434667 52.002133a168.96 168.96 0 0 1-52.292266-8.96C247.2448 645.768533 232.823467 623.6672 221.866667 614.4z m303.616-28.689067a160.648533 160.648533 0 0 0 122.4192 48.657067 163.669333 163.669333 0 0 0 124.962134-49.493333 187.426133 187.426133 0 0 0 46.7456-134.058667 177.7664 177.7664 0 0 0-45.585067-126.6688 157.184 157.184 0 0 0-120.337067-48.657067A166.638933 166.638933 0 0 0 526.165333 390.826667a187.016533 187.016533 0 0 0-46.967466 133.8368 176.708267 176.708267 0 0 0 46.045866 126.634666z m49.493334-210.9952A97.979733 97.979733 0 0 1 649.659733 409.6a96.3072 96.3072 0 0 1 74.120534 29.013333 116.718933 116.718933 0 0 1 27.050666 82.568534 112.64 112.64 0 0 1-27.630933 81.0496 100.113067 100.113067 0 0 1-76.066133 29.013333 95.112533 95.112533 0 0 1-73.130667-30.225067 113.4592 113.4592 0 0 1-28.023467-80.3328 112.930133 112.930133 0 0 1 28.689067-80.366933z" fill="#666666" p-id="15356"></path></svg>