<?xml version="1.0" standalone="no"?><!DOCTYPE svg PUBLIC "-//W3C//DTD SVG 1.1//EN" "http://www.w3.org/Graphics/SVG/1.1/DTD/svg11.dtd"><svg t="1755683896085" class="icon" viewBox="0 0 1024 1024" version="1.1" xmlns="http://www.w3.org/2000/svg" p-id="45340" xmlns:xlink="http://www.w3.org/1999/xlink" width="200" height="200"><path d="M320 960h640V320h-192c-35.296 0-64-28.704-64-64V64H319.936l0.032 199.424A287.136 287.136 0 0 1 384 256c112.768 0 210.368 65.312 257.6 160H800a32 32 0 1 1 0 64h-135.424c4.704 20.64 7.424 41.984 7.424 64 0 10.848-0.736 21.504-1.888 32.032L800 576a32 32 0 1 1 0 64h-144.8a287.68 287.68 0 0 1-57.152 96H800a32 32 0 1 1 0 64h-284.672A285.76 285.76 0 0 1 384 832a288.736 288.736 0 0 1-64-7.392V960zM160 544c0 123.488 100.48 224 224 224s224-100.512 224-224-100.48-224-224-224-224 100.512-224 224zM768 109.248V256h146.752L768 109.248zM1005.248 256c11.936 11.904 18.752 28.416 18.752 45.248V960c0 35.296-28.704 64-64 64H320c-35.296 0-64-28.704-64-64v-158.368C161.312 754.368 96 656.8 96 544s65.312-210.368 160-257.632V64c0-35.296 28.704-64 64-64h402.752c17.088 0 33.152 6.656 45.248 18.752L1005.248 256zM145.248 769.344l45.28 45.248a32 32 0 0 1 0 45.248l-90.656 90.784a31.968 31.968 0 0 1-45.248 0L9.376 905.376a31.968 31.968 0 0 1 0-45.248l90.624-90.784a31.968 31.968 0 0 1 45.248 0z" p-id="45341"></path></svg>