<?xml version="1.0" standalone="no"?><!DOCTYPE svg PUBLIC "-//W3C//DTD SVG 1.1//EN" "http://www.w3.org/Graphics/SVG/1.1/DTD/svg11.dtd"><svg t="1724915547125" class="icon" viewBox="0 0 1024 1024" version="1.1" xmlns="http://www.w3.org/2000/svg" p-id="5880" xmlns:xlink="http://www.w3.org/1999/xlink" width="200" height="200"><path d="M544.16353 419.529852c0-17.485729-3.828992-31.014832-11.359342-40.842578-7.53035-9.700112-17.996261-14.677801-31.270099-14.677801-13.529104 0-24.25028 4.977689-32.291162 15.0607-8.040882 10.083011-11.997507 23.356849-11.997508 39.821513 0 16.592297 3.956625 29.738502 11.742241 39.566247 7.913249 9.827745 18.37916 14.805434 31.525365 14.805435 13.401471 0 23.995014-4.722423 31.780631-14.294902 7.913249-9.444846 11.869874-22.591051 11.869874-39.438614z" p-id="5881"></path><path d="M24.186464 302.49034v278.495326h948.824131V302.49034H24.186464z m340.652624 188.769289c-11.231709 8.296149-27.058208 12.380406-47.60713 12.380406-18.762059 0-34.205659-3.063193-46.203166-9.061947V459.478998c13.273838 10.976443 28.206905 16.464664 45.054469 16.464664 9.572479 0 16.71993-1.65923 21.569986-4.977689 4.850056-3.318459 7.275084-7.53035 7.275084-12.635673 0-4.467157-1.914496-8.679048-5.743487-12.635672-3.828992-3.956625-13.912003-9.317213-30.249034-16.081765-25.654244-10.84881-38.545183-26.675308-38.545183-47.479496 0-15.315967 5.871121-27.185841 17.485728-35.609623 11.614608-8.423782 27.058208-12.635672 46.203166-12.635672 16.081765 0 29.483236 2.042129 40.459679 6.254019v32.929329c-10.976443-7.53035-23.995014-11.231709-38.672816-11.231709-8.679048 0-15.571233 1.531597-20.676555 4.722423-5.105322 3.190826-7.785616 7.402717-7.785616 12.635672 0 4.211891 1.786863 8.168516 5.360588 11.742241 3.573726 3.573726 12.252773 8.423782 26.164776 14.422536 16.337031 7.019818 27.56874 14.422535 33.695127 22.208151 6.126387 7.785616 9.18958 16.975196 9.18958 27.824006-0.255266 15.571233-5.871121 27.56874-16.975196 35.864889z m227.186837 55.520378c-6.892185 2.042129-15.315967 3.063193-25.016078 3.063194-11.231709 0-21.952885-3.063193-32.291163-9.317213s-23.484482-18.634426-39.566247-37.141219c-22.591051-0.765798-40.587311-8.934314-54.244049-24.505547-13.656737-15.571233-20.421289-34.971457-20.421288-58.07304 0-26.037143 7.53035-47.096597 22.463417-63.050729 14.933067-15.954132 34.971457-23.995014 59.987536-23.995014 22.846317 0 41.608376 7.657983 56.158544 22.97395 14.550168 15.315967 21.697619 35.609622 21.69762 60.625701 0 19.783124-4.467157 36.75832-13.273838 50.925589-8.806681 14.167269-21.442353 24.122647-37.779384 29.738501 6.892185 7.53035 13.656737 13.018572 20.421288 16.592298 6.636919 3.573726 15.0607 5.360588 25.398978 5.360588 6.25402 0 11.742241-0.893431 16.592298-2.807927v29.610868z m134.780507-45.947899h-96.362957V336.568366h34.971457V472.242303h61.3915v28.589805z" p-id="5882"></path><path d="M514.552661 947.037268l-335.036769-1.148698V80.791724H575.816527l5.998754 159.796585h235.865886v299.044247h76.579833v-353.543562L608.362957 9.827745H102.936059v1006.897171h39.949146l371.667456 1.27633V947.037268z m252.968715-753.800823h-136.567369l-3.190826-86.152312 139.758195 86.152312z" p-id="5883"></path><path d="M791.51639 1024c-108.870996 0-197.448336-88.57734-197.448336-197.448336s88.57734-197.448336 197.448336-197.448336 197.448336 88.57734 197.448336 197.448336-88.57734 197.448336-197.448336 197.448336z m0-363.371307c-91.5129 0-165.922971 74.410071-165.922971 165.922971s74.410071 165.922971 165.922971 165.922971 165.922971-74.410071 165.922972-165.922971-74.410071-165.922971-165.922972-165.922971z" p-id="5884"></path><path d="M725.785367 931.083136V695.472517l167.199302 117.805309-167.199302 117.80531z m34.333292-169.369064v103.255142l73.261373-51.563755-73.261373-51.691387z" p-id="5885"></path></svg>