<?xml version="1.0" standalone="no"?><!DOCTYPE svg PUBLIC "-//W3C//DTD SVG 1.1//EN" "http://www.w3.org/Graphics/SVG/1.1/DTD/svg11.dtd"><svg t="1682667123430" class="icon" viewBox="0 0 1024 1024" version="1.1" xmlns="http://www.w3.org/2000/svg" p-id="1455" xmlns:xlink="http://www.w3.org/1999/xlink" width="200" height="200"><path d="M704 736H320v64h384v-64z" p-id="1456"></path><path d="M160 123.008c0-37.44 33.28-59.008 63.68-59.008h339.072a64 64 0 0 1 45.248 18.752L845.248 320a64 64 0 0 1 18.752 45.248v535.744c0 37.44-33.28 59.008-63.68 59.008h-576.64c-30.4 0-63.68-21.568-63.68-59.008V123.008zM224 128v768h576V384.832h-256V128h-320z m384 192.832h147.584L608 173.248v147.584z" p-id="1457"></path></svg>