<?xml version="1.0" standalone="no"?><!DOCTYPE svg PUBLIC "-//W3C//DTD SVG 1.1//EN" "http://www.w3.org/Graphics/SVG/1.1/DTD/svg11.dtd"><svg t="1741264276613" class="icon" viewBox="0 0 1024 1024" version="1.1" xmlns="http://www.w3.org/2000/svg" p-id="2789" xmlns:xlink="http://www.w3.org/1999/xlink" width="200" height="200"><path d="M822.4 665.6a32 32 0 0 0-32 32v101.76A29.44 29.44 0 0 1 768 832H256a29.44 29.44 0 0 1-24.96-32v-102.4a32 32 0 0 0-32-32 32 32 0 0 0-32 32v101.76A92.8 92.8 0 0 0 256 896h512a92.8 92.8 0 0 0 88.96-96v-102.4a32 32 0 0 0-34.56-32zM840.32 309.12l-152.96-164.48a50.56 50.56 0 0 0-37.12-16.64H256a92.8 92.8 0 0 0-88.96 96v275.2a32.64 32.64 0 0 0 32 32 32 32 0 0 0 32-32V224.64A29.44 29.44 0 0 1 256 192h384l145.92 156.16V499.2a32 32 0 0 0 32 32 32.64 32.64 0 0 0 32-32V343.68a49.28 49.28 0 0 0-9.6-34.56z" fill="#2c2c2c" p-id="2790"></path><path d="M402.56 471.04V569.6a56.96 56.96 0 0 1-10.24 37.76 48 48 0 0 1-37.12 12.8A44.16 44.16 0 0 1 320 608a46.08 46.08 0 0 1-10.24-32v-7.04h24.32V576c0 17.28 7.04 25.6 21.76 25.6a20.48 20.48 0 0 0 17.28-7.04 38.4 38.4 0 0 0 5.76-23.04V471.04zM523.52 478.72a48.64 48.64 0 0 1 17.92 33.28h-24.32a31.36 31.36 0 0 0-10.88-19.2 37.76 37.76 0 0 0-24.32-6.4 39.68 39.68 0 0 0-21.12 4.48 14.08 14.08 0 0 0-8.96 14.72 16.64 16.64 0 0 0 10.24 15.36l24.96 8.96a213.76 213.76 0 0 1 38.4 14.08 35.2 35.2 0 0 1 19.2 32 36.48 36.48 0 0 1-15.36 30.72 71.68 71.68 0 0 1-43.52 11.52 77.44 77.44 0 0 1-42.24-10.24 50.56 50.56 0 0 1-20.48-40.96H448a35.2 35.2 0 0 0 12.16 23.68 48.64 48.64 0 0 0 26.88 6.4 53.76 53.76 0 0 0 24.96-3.2 17.28 17.28 0 0 0 9.6-14.72 20.48 20.48 0 0 0-13.44-18.56l-28.8-9.6A208.64 208.64 0 0 1 448 538.88 32.64 32.64 0 0 1 427.52 512a34.56 34.56 0 0 1 16.64-30.72 64 64 0 0 1 39.04-10.88 64 64 0 0 1 40.32 8.32zM625.28 471.04c35.2 0 53.12 14.72 53.12 44.8s-17.92 45.44-53.12 45.44H588.8v55.68h-24.32V471.04zM588.8 540.8h34.56a44.16 44.16 0 0 0 23.68-5.76 23.04 23.04 0 0 0 7.04-19.2 21.76 21.76 0 0 0-7.04-18.56 39.04 39.04 0 0 0-23.68-5.76H588.8z" fill="#2c2c2c" p-id="2791"></path></svg>