<?xml version="1.0" standalone="no"?><!DOCTYPE svg PUBLIC "-//W3C//DTD SVG 1.1//EN" "http://www.w3.org/Graphics/SVG/1.1/DTD/svg11.dtd"><svg t="1741167520807" class="icon" viewBox="0 0 1024 1024" version="1.1" xmlns="http://www.w3.org/2000/svg" p-id="1578" xmlns:xlink="http://www.w3.org/1999/xlink" width="200" height="200"><path d="M822.4 666.88a32 32 0 0 0-32 32v102.4A29.44 29.44 0 0 1 768 832H256a29.44 29.44 0 0 1-24.96-32v-102.4a32 32 0 0 0-32-32 32 32 0 0 0-32 32v102.4A92.8 92.8 0 0 0 256 896h512a92.8 92.8 0 0 0 88.96-96v-102.4a32 32 0 0 0-34.56-30.72zM840.32 310.4l-152.96-164.48a50.56 50.56 0 0 0-37.12-17.92H256a92.8 92.8 0 0 0-88.96 96v276.48a32.64 32.64 0 0 0 32 32 32 32 0 0 0 32-32V225.92A29.44 29.44 0 0 1 256 192h384l145.92 156.16v152.32a32 32 0 0 0 32 32 32.64 32.64 0 0 0 32-32V344.96a50.56 50.56 0 0 0-9.6-34.56z" p-id="1579"></path><path d="M267.52 647.04a49.92 49.92 0 0 0 29.44-7.04 43.52 43.52 0 0 0 16-21.12 97.92 97.92 0 0 0 3.2-27.52V497.92h-29.44v94.72a44.8 44.8 0 0 1-4.48 23.04 15.36 15.36 0 0 1-14.08 5.76 15.36 15.36 0 0 1-12.16-7.68 32.64 32.64 0 0 1-3.84-17.92H224a48.64 48.64 0 0 0 12.16 35.84 44.8 44.8 0 0 0 31.36 15.36zM400.64 622.08a31.36 31.36 0 0 1-21.12-7.04 33.28 33.28 0 0 1-10.88-21.12h-28.8a58.88 58.88 0 0 0 17.92 37.76 64 64 0 0 0 42.88 12.8 79.36 79.36 0 0 0 32-5.76 44.16 44.16 0 0 0 19.84-16 45.44 45.44 0 0 0 6.4-23.68 42.24 42.24 0 0 0-5.76-23.04 40.96 40.96 0 0 0-16-15.36 156.8 156.8 0 0 0-32-10.24 78.72 78.72 0 0 1-26.88-10.24 9.6 9.6 0 0 1-4.48-8.32 11.52 11.52 0 0 1 4.48-9.6 37.12 37.12 0 0 1 20.48-5.12 30.72 30.72 0 0 1 18.56 5.12 25.6 25.6 0 0 1 8.32 16h29.44a40.96 40.96 0 0 0-14.72-32 60.16 60.16 0 0 0-41.6-12.16 67.84 67.84 0 0 0-28.8 5.12 42.24 42.24 0 0 0-18.56 14.72 40.32 40.32 0 0 0-5.76 21.12 38.4 38.4 0 0 0 13.44 29.44 78.08 78.08 0 0 0 33.28 14.08l23.68 6.4a28.16 28.16 0 0 1 10.24 6.4 12.16 12.16 0 0 1 0 8.96 17.92 17.92 0 0 1-7.04 14.08 31.36 31.36 0 0 1-18.56 7.68zM600.96 626.56a77.44 77.44 0 0 0 19.2-55.68 77.44 77.44 0 0 0-19.2-55.68 67.84 67.84 0 0 0-51.84-19.84 83.84 83.84 0 0 0-32 5.76 56.96 56.96 0 0 0-18.56 12.8 71.04 71.04 0 0 0-13.44 20.48 83.2 83.2 0 0 0-7.04 37.76 74.24 74.24 0 0 0 19.2 54.4 68.48 68.48 0 0 0 51.84 20.48 68.48 68.48 0 0 0 51.84-20.48z m-80.64-17.92A54.4 54.4 0 0 1 512 570.88a54.4 54.4 0 0 1 10.88-37.76 38.4 38.4 0 0 1 29.44-12.8 37.12 37.12 0 0 1 29.44 12.8 52.48 52.48 0 0 1 10.88 37.12 55.04 55.04 0 0 1-10.88 38.4 38.4 38.4 0 0 1-29.44 12.8 37.76 37.76 0 0 1-32-12.8zM730.24 644.48h30.08V497.92h-27.52v97.92l-60.16-97.92h-28.8v146.56h27.52v-96l58.88 96z" p-id="1580"></path></svg>