<?xml version="1.0" standalone="no"?><!DOCTYPE svg PUBLIC "-//W3C//DTD SVG 1.1//EN" "http://www.w3.org/Graphics/SVG/1.1/DTD/svg11.dtd"><svg t="1755687314573" class="icon" viewBox="0 0 1098 1024" version="1.1" xmlns="http://www.w3.org/2000/svg" p-id="10412" xmlns:xlink="http://www.w3.org/1999/xlink" width="214.453125" height="200"><path d="M671.830384 669.380923H406.798178a69.815795 69.815795 0 0 1-13.128205-0.472615 57.002667 57.002667 0 0 1-35.866256-20.19118 135.325538 135.325538 0 0 1-11.447795-19.035897l-141.784615-247.414154a54.587077 54.587077 0 0 1 1.890461-58.683077q71.154872-123.930256 142.152205-247.965538A85.254564 85.254564 0 0 1 357.12105 61.518769 57.764103 57.764103 0 0 1 395.140332 40.014769h2.861949-2.861949L396.505666 39.384615h305.572102l1.365334 0.630154a57.344 57.344 0 0 1 44.110769 30.667487q74.121846 129.522872 148.401231 258.966975a54.63959 54.63959 0 0 1-0.971488 51.646359q-74.988308 130.940718-150.055384 261.855179A56.923897 56.923897 0 0 1 697.614178 669.538462a1054.273641 1054.273641 0 0 0-25.783794-0.157539z m-76.826257-89.691897a106.207179 106.207179 0 0 0 40.146051 12.629333 54.140718 54.140718 0 0 0 30.746257-6.249026 57.238974 57.238974 0 0 0 23.263179-25.915077 119.834256 119.834256 0 0 0 10.292513-43.113025A254.897231 254.897231 0 0 0 695.828743 457.202872a197.500718 197.500718 0 0 0 64.512-37.861744 83.259077 83.259077 0 0 0 22.974359-34.133333 57.055179 57.055179 0 0 0 0.131282-35.052308 81.657436 81.657436 0 0 0-21.687795-33.240615A194.297436 194.297436 0 0 0 695.828743 277.687795a254.687179 254.687179 0 0 0 3.702153-60.205949 61.781333 61.781333 0 0 1-25.705025 14.362257 216.982974 216.982974 0 0 1-3.308308 37.441641 416.584205 416.584205 0 0 0-61.334974-12.393026 448.984615 448.984615 0 0 0-40.592411-49.88718 190.358974 190.358974 0 0 1 30.273641-22.554256 71.417436 71.417436 0 0 1-0.183794-31.140103 221.577846 221.577846 0 0 0-49.598359 34.658462 206.795487 206.795487 0 0 0-58.315488-38.623179 76.931282 76.931282 0 0 0-44.635897-5.645129 51.226256 51.226256 0 0 0-31.507692 22.029129 107.15241 107.15241 0 0 0-15.43877 51.803897 255.002256 255.002256 0 0 0 3.702154 60.179692 264.690872 264.690872 0 0 0-24.786051 10.870154 148.138667 148.138667 0 0 0-50.884923 39.227077 63.829333 63.829333 0 0 0-14.729846 43.795692 72.100103 72.100103 0 0 0 22.029128 44.163282 190.621538 190.621538 0 0 0 68.266667 41.458872 241.033846 241.033846 0 0 0-2.993231 67.689026 101.376 101.376 0 0 0 13.994667 43.165538 51.882667 51.882667 0 0 0 28.015589 21.976616 69.763282 69.763282 0 0 0 42.902975-2.231795 196.581744 196.581744 0 0 0 64.590769-40.854975 230.846359 230.846359 0 0 0 45.71241 32.715488zM651.192845 117.366154a48.574359 48.574359 0 0 0-31.507692 20.059897 53.011692 53.011692 0 0 0-8.874667 40.329846 51.803897 51.803897 0 0 0 16.173949 29.144616 47.47159 47.47159 0 0 0 26.807795 12.025436 46.788923 46.788923 0 0 0 28.724513-6.249026 50.884923 50.884923 0 0 0 22.055384-27.28041 53.773128 53.773128 0 0 0-1.31282-38.360616 50.412308 50.412308 0 0 0-22.816821-25.048615 46.631385 46.631385 0 0 0-21.661538-5.251282 44.793436 44.793436 0 0 0-7.588103 0.630154zM684.80105 40.198564z m0 0h6.354052c-2.074256-0.052513-4.201026 0-6.301539 0zM417.510794 40.198564z m0 0z m265.189743 0zM424.074896 40.172308z m10.948923 0z m-2.205538 0z m259.203282 0z m0.577641 0h6.590359a42.981744 42.981744 0 0 0-6.616615-0.131282zM403.962486 39.962256z m-5.540102 0L401.756948 39.909744z m4.542359 0z m-0.262565 0zM401.756948 39.909744z m233.366974 522.213743a72.310154 72.310154 0 0 1-34.474667-10.712615 185.580308 185.580308 0 0 1-31.980307-23.630769 454.235897 454.235897 0 0 0 40.671179-49.88718 410.492718 410.492718 0 0 0 61.07241-12.366769 181.825641 181.825641 0 0 1 2.048 54.56082 59.050667 59.050667 0 0 1-12.94441 31.507693 32.557949 32.557949 0 0 1-24.077128 10.502564z m-175.209026-0.236308a32.137846 32.137846 0 0 1-22.265435-11.762871 62.569026 62.569026 0 0 1-11.946667-31.717744 185.160205 185.160205 0 0 1 2.310564-52.801641 407.394462 407.394462 0 0 0 61.07241 12.340513 456.467692 456.467692 0 0 0 40.644923 49.887179 179.147487 179.147487 0 0 1-35.026051 25.179898 68.739282 68.739282 0 0 1-31.166359 9.032205q-1.837949 0.078769-3.623385-0.157539z m65.956103-80.843487c15.543795 0.735179 31.113846 0.65641 46.683897 0-7.404308 9.504821-15.123692 18.747077-23.341948 27.569231a363.493744 363.493744 0 0 1-23.341949-27.490461z m-21.845333-30.64123a576.590769 576.590769 0 0 1-45.161026-82.812718A569.081436 569.081436 0 0 1 504.156948 284.383179a508.796718 508.796718 0 0 1 90.322051 0 568.188718 568.188718 0 0 1 45.213538 83.075283 575.829333 575.829333 0 0 1-45.161025 83.022769q-22.422974 2.048-44.977231 2.021743t-45.528615-2.021743z m149.661538-47.629129q6.170256 17.381744 10.843898 35.236103c-11.264 3.072-22.659282 5.645128-34.133334 7.640615q12.471795-20.873846 23.26318-42.797948z m-219.766154 35.288616c3.098256-11.894154 6.774154-23.630769 10.817641-35.209846 7.246769 14.572308 14.99241 28.882051 23.341949 42.850461a368.850051 368.850051 0 0 1-34.15959-7.640615zM669.572332 367.458462a477.131487 477.131487 0 0 0 20.453744-62.332718 166.833231 166.833231 0 0 1 42.010256 22.606769 64.617026 64.617026 0 0 1 21.188923 25.993846 36.601436 36.601436 0 0 1 0.262564 26.807795 62.779077 62.779077 0 0 1-20.348717 25.783795 164.181333 164.181333 0 0 1-43.244308 23.446974A474.348308 474.348308 0 0 0 669.572332 367.458462zM367.36105 407.91959a63.593026 63.593026 0 0 1-22.921846-28.724513 36.969026 36.969026 0 0 1 1.942974-28.278154 68.502974 68.502974 0 0 1 20.716308-23.630769 168.933744 168.933744 0 0 1 41.380103-22.029128 481.253744 481.253744 0 0 0 20.453743 62.332718 476.054974 476.054974 0 0 0-20.453743 62.280205 168.487385 168.487385 0 0 1-41.117539-21.950359z m262.984205-118.784c11.500308 1.995487 22.89559 4.594872 34.133334 7.640615q-4.621128 17.854359-10.843898 35.209846-10.738872-21.87159-23.289436-42.850461zM433.92105 296.697436c11.264-3.045744 22.659282-5.618872 34.133334-7.640615q-12.524308 21.005128-23.341949 42.850461A433.099487 433.099487 0 0 1 433.92105 296.697436z m-8.192-80.60718a62.595282 62.595282 0 0 1 11.762872-31.245128 31.927795 31.927795 0 0 1 20.059897-11.55282 55.322256 55.322256 0 0 1 29.932308 5.251282 162.579692 162.579692 0 0 1 42.220308 28.645743 449.982359 449.982359 0 0 0-40.618667 49.88718 414.116103 414.116103 0 0 0-61.07241 12.209231 185.212718 185.212718 0 0 1-2.284308-53.195488z m100.168205 37.651693c7.378051-9.504821 15.149949-18.720821 23.315693-27.569231q12.261744 13.259487 23.315692 27.569231-23.289436-1.024-46.631385 0z" p-id="10413"></path></svg>