<?xml version="1.0" standalone="no"?><!DOCTYPE svg PUBLIC "-//W3C//DTD SVG 1.1//EN" "http://www.w3.org/Graphics/SVG/1.1/DTD/svg11.dtd">
<svg t="1722913497809" class="icon" viewBox="0 0 1024 1024" version="1.1" xmlns="http://www.w3.org/2000/svg" p-id="2492"
     width="200" height="200"><path d="M378.3 247.8l90.9 0.1c28.2 0 51.1 22.9 51.1 51.1v14.8c17.6 7.3 34.3 16.7 49.7 27.9l12.2-7c24.5-14.1 55.7-5.7 69.8 18.7l45.6 78.6c13.6 23.4 6.6 53.4-16 68.3l-2.8 1.7-12.2 7c2.1 19.4 1.8 39.1-0.9 58.7l8.6 5c23.5 13.6 32.3 43.1 20.2 67.3l-1.4 2.6-42.7 73.9c-13.6 23.5-43.1 32.3-67.3 20.2l-2.7-1.4-11.8-6.8c-14.8 10.7-30.8 19.6-47.7 26.6v20.3c0 27.1-21 49.5-48 51.2l-3.3 0.1-90.9-0.1c-28.2 0-51.1-22.9-51.1-51.1l-0.1-24.5c-14.1-6.6-27.5-14.6-40.1-23.8l-21.8 12.5c-24.5 14.1-55.7 5.7-69.8-18.7l-45.6-78.6c-13.6-23.4-6.6-53.4 16-68.3l2.8-1.7 22.2-12.8c-1.7-16.2-1.8-32.6-0.2-49l-24.6-14.2c-23.5-13.5-32.3-43.1-20.2-67.3l1.4-2.6 42.7-73.9c13.6-23.5 43.1-32.3 67.3-20.2l2.6 1.4 21.4 12.4c14-10.9 29.1-20.2 45.1-27.7V299c0-27.1 21-49.5 48-51.2h3.6z m0 51.2l0.1 52.1-29.4 13.8c-12.6 5.9-24.5 13.2-35.4 21.8l-27.2 21.2-50.2-28.9-1.3-0.7-42.7 73.9 53.2 30.7-3.3 32.9c-1.3 12.8-1.2 25.7 0.1 38.5l3.5 33.1-51 29.4 45.5 78.6 50.7-29.1 26.9 19.7c9.9 7.3 20.5 13.5 31.6 18.7l29.4 13.8 0.1 56.9 90.9 0.1-0.1-54.5 31.6-13.1c13.2-5.5 25.8-12.5 37.5-20.9l26.9-19.3 40.4 23.3 42.6-73.9-38.5-22.1 4.8-34.2c2.1-15.3 2.4-30.7 0.7-46.1l-3.6-33.2 41.2-23.8-45.6-78.6-41 23.6-26.9-19.6c-12.1-8.9-25.3-16.2-39.2-22L469.1 348l-0.1-48.9-90.7-0.1z m101.9 147c49 28.3 65.8 90.9 37.5 139.9-13.6 23.5-35.9 40.7-62.1 47.7-26.2 7-54.2 3.3-77.7-10.3-49-28.3-65.7-90.9-37.5-139.9 13.6-23.5 35.9-40.7 62.1-47.7 26.2-7 54.2-3.3 77.7 10.3z m-95.5 63c-14.1 24.5-5.7 55.9 18.8 70.1 11.7 6.8 25.7 8.6 38.8 5.1 13.1-3.5 24.3-12.1 31-23.9 13.5-23.5 6.4-53.5-16.2-68.5l-2.6-1.6-2.6-1.4c-24.2-12.1-53.7-3.2-67.2 20.2z m0 0" fill="#333333" p-id="2493"></path></svg>