<?xml version="1.0" standalone="no"?><!DOCTYPE svg PUBLIC "-//W3C//DTD SVG 1.1//EN" "http://www.w3.org/Graphics/SVG/1.1/DTD/svg11.dtd"><svg t="1741167475847" class="icon" viewBox="0 0 1024 1024" version="1.1" xmlns="http://www.w3.org/2000/svg" p-id="9833" xmlns:xlink="http://www.w3.org/1999/xlink" width="200" height="200"><path d="M244.48 644.48V497.92h29.44v57.6h58.24v-57.6h29.44v146.56h-29.44v-64h-58.24v64zM425.6 644.48V522.24H384v-24.32h114.56v24.32h-43.52v122.24zM517.12 644.48V497.92h44.16l26.88 99.84 26.24-99.84h44.16v146.56h-27.52V528.64l-28.8 115.84H576l-31.36-115.84v115.84zM688.64 644.48V499.2h30.08v120.32h73.6v24.96zM822.4 666.88a32 32 0 0 0-32 32v102.4A29.44 29.44 0 0 1 768 832H256a29.44 29.44 0 0 1-24.96-32v-102.4a32 32 0 0 0-32-32 32 32 0 0 0-32 32v102.4A92.8 92.8 0 0 0 256 896h512a92.8 92.8 0 0 0 88.96-96v-102.4a32 32 0 0 0-34.56-30.72z" p-id="9834"></path><path d="M840.32 310.4l-152.96-164.48a50.56 50.56 0 0 0-37.12-17.92H256a92.8 92.8 0 0 0-88.96 96v276.48a32.64 32.64 0 0 0 32 32 32 32 0 0 0 32-32V225.92A29.44 29.44 0 0 1 256 192h384l145.92 156.16v152.32a32 32 0 0 0 32 32 32.64 32.64 0 0 0 32-32V344.96a50.56 50.56 0 0 0-9.6-34.56z" p-id="9835"></path></svg>