<?xml version="1.0" standalone="no"?><!DOCTYPE svg PUBLIC "-//W3C//DTD SVG 1.1//EN" "http://www.w3.org/Graphics/SVG/1.1/DTD/svg11.dtd"><svg t="1755683507613" class="icon" viewBox="0 0 1024 1024" version="1.1" xmlns="http://www.w3.org/2000/svg" p-id="20901" xmlns:xlink="http://www.w3.org/1999/xlink" width="200" height="200"><path d="M304.8 702.304H241.92V547.2H126.656v155.104H64V321.408h62.656v151.936H241.92v-151.936h62.88v380.896zM534.144 702.304h-165.728V321.408h62.688v311.328h103.04v69.568zM558.784 687.712v-85.024a117.632 117.632 0 0 0 36.672 29.088 89.888 89.888 0 0 0 39.968 9.6 65.6 65.6 0 0 0 20.672-2.944 41.888 41.888 0 0 0 14.752-8.064 32.928 32.928 0 0 0 8.832-12.224 39.392 39.392 0 0 0 2.912-15.296 41.6 41.6 0 0 0-4.64-19.936 61.024 61.024 0 0 0-12.8-16.192 130.464 130.464 0 0 0-19.2-14.336q-11.072-6.88-23.872-14.048a129.44 129.44 0 0 1-48.608-45.408 124.288 124.288 0 0 1-16-64.832 135.424 135.424 0 0 1 8.736-51.2 96.64 96.64 0 0 1 23.808-35.2 94.016 94.016 0 0 1 34.816-20.288 133.344 133.344 0 0 1 41.92-6.4 186.112 186.112 0 0 1 38.4 3.552 121.6 121.6 0 0 1 30.944 11.04v79.424a91.488 91.488 0 0 0-15.232-11.68 102.784 102.784 0 0 0-16.96-8.384A99.2 99.2 0 0 0 686.72 384a89.408 89.408 0 0 0-16.384-1.6 63.808 63.808 0 0 0-19.392 2.784 43.104 43.104 0 0 0-14.752 7.84 34.944 34.944 0 0 0-9.312 12.064 36.608 36.608 0 0 0-3.2 15.808 38.4 38.4 0 0 0 3.68 17.152 53.024 53.024 0 0 0 10.496 14.336 110.752 110.752 0 0 0 16.48 13.28c6.4 4.352 13.76 8.8 21.952 13.408a227.008 227.008 0 0 1 29.952 20.32 118.784 118.784 0 0 1 22.816 24.288 104.608 104.608 0 0 1 14.56 30.944 146.336 146.336 0 0 1 5.056 40.512 142.048 142.048 0 0 1-8.864 53.504 92.416 92.416 0 0 1-23.968 35.2 90.336 90.336 0 0 1-35.2 19.2 151.744 151.744 0 0 1-42.4 5.824 175.232 175.232 0 0 1-43.552-5.312 109.12 109.12 0 0 1-35.904-15.84zM960 702.304h-165.696V321.408h62.656v311.328H960v69.568z" fill="#42A5F5" p-id="20902"></path></svg>