<?xml version="1.0" standalone="no"?><!DOCTYPE svg PUBLIC "-//W3C//DTD SVG 1.1//EN" "http://www.w3.org/Graphics/SVG/1.1/DTD/svg11.dtd"><svg t="1748243454102" class="icon" viewBox="0 0 1024 1024" version="1.1" xmlns="http://www.w3.org/2000/svg" p-id="8034" xmlns:xlink="http://www.w3.org/1999/xlink" width="200" height="200"><path d="M648.76544 0c24.40704 0 47.8208 9.68704 65.09568 26.9312l187.61728 187.21792a92.16 92.16 0 0 1 27.05408 65.2288v120.6272c44.2368 0 80.09728 35.85536 80.10752 80.08704v319.7952c0 43.24864-34.3296 78.6944-77.55776 80.06656l-2.54976 0.03072v48.00512c0 53.02272-43.02848 96-96.12288 96H191.5904c-53.0944 0-96.12288-42.97728-96.12288-96v-48.00512c-44.2368 0-80.09728-35.85536-80.10752-80.08704V480.1024c0-43.24864 34.3296-78.6944 77.55776-80.06656l2.54976-0.04096V96C95.46752 42.97728 138.496 0 191.5904 0h457.17504z m183.64416 879.99488H191.5904v17.28512a30.72 30.72 0 0 0 30.72 30.72h579.3792a30.72 30.72 0 0 0 30.72-30.72v-17.28512z m-451.15392-329.94304h-84.7872L266.24 722.08384h87.73632c36.864 0 59.22816-12.288 68.32128-40.30464 6.144-19.16928 0.49152-42.02496-19.90656-49.88928 21.62688-9.33888 29.98272-25.31328 29.98272-42.27072 0-26.78784-21.38112-39.56736-51.11808-39.56736z m216.51456 0h-131.4816l-5.65248 32.93184h79.872l-105.18528 119.1936-3.44064 19.90656h137.6256l6.38976-35.88096H491.35616l103.46496-119.43936 2.94912-16.71168zM692.6336 547.84c-33.66912 0-69.55008 13.27104-78.6432 53.32992h36.864c3.44064-14.00832 20.64384-20.64384 36.12672-20.64384 19.41504 0 29.98272 7.86432 27.52512 22.1184-2.94912 16.95744-22.36416 20.64384-34.89792 20.64384-33.91488 0-73.48224 10.32192-81.59232 56.5248-2.4576 14.25408-4.9152 28.2624-7.3728 42.27072h139.10016l6.144-35.38944h-102.97344l1.2288-6.63552c3.93216-21.62688 25.06752-23.3472 39.56736-23.3472 45.4656 0 79.38048-15.23712 79.38048-62.91456 0-31.21152-27.27936-45.95712-60.45696-45.95712z m-329.07264 101.00736c14.99136 0 22.60992 6.88128 22.60992 16.95744 0 13.5168-9.58464 22.85568-29.24544 22.85568h-47.18592l7.12704-39.81312z m12.04224-65.61792c12.288 0 17.44896 6.144 17.44896 13.5168 0 9.09312-8.35584 20.15232-24.08448 20.15232h-46.6944l6.144-33.66912z m227.61472-494.90944H222.3104a30.72 30.72 0 0 0-30.72 30.72v280.95488h640.8192v-81.5616h-137.00096c-50.8928-0.01024-92.14976-41.2672-92.16-92.16l-0.03072-137.95328z" fill="#2c2c2c" p-id="8035"></path></svg>