<?xml version="1.0" standalone="no"?><!DOCTYPE svg PUBLIC "-//W3C//DTD SVG 1.1//EN" "http://www.w3.org/Graphics/SVG/1.1/DTD/svg11.dtd"><svg t="1741332854649" class="icon" viewBox="0 0 1024 1024" version="1.1" xmlns="http://www.w3.org/2000/svg" p-id="44601" xmlns:xlink="http://www.w3.org/1999/xlink" width="200" height="200"><path d="M282.578024 669.739924c5.864037-6.388455 8.795029-15.030571 8.795029-26.379956 0-10.797258-2.91252-19.286462-8.732427-25.236705-5.82196-5.949216-14.097703-9.039278-24.826202-9.039278L234.243335 609.083985l0 69.785528 23.945672 0C268.583973 678.869513 276.715013 676.131457 282.578024 669.739924z" p-id="44602"></path><path d="M860.79628 347.203528 677.1454 163.933389c-2.561539-2.547172-5.79733-4.350307-9.409757-4.350307L286.570166 159.583083c-34.059443 0-62.589409 28.354476-62.589409 62.412892L223.980758 416.147525l-30.8216 0c-17.673185 0-32.806382 14.255747-32.806382 31.928932l0 287.998717c0 17.673185 15.133197 31.052508 32.806382 31.052508l30.8216 0 0 35.543412c0 34.059443 28.530992 60.924819 62.589409 60.924819l517.047136 0c34.059443 0 60.748302-26.865376 60.748302-60.924819L864.365604 356.89448C864.365604 353.256396 863.376292 349.769172 860.79628 347.203528zM193.193025 719.919824l0-255.538184 67.989577 0c21.040337 0 37.259314 5.317041 48.654881 15.89468 11.393514 10.576613 17.091297 25.244915 17.091297 43.975145 0 13.882189-3.519038 26.064895-10.586875 36.531698-7.06989 10.468855-15.391814 17.690631-26.680649 21.657118l0 0.661936c13.341351 2.205428 24.329493 8.815554 32.606262 19.831405 8.274716 11.01893 12.404378 24.846727 12.404378 41.482365 0 23.247817-6.2417 41.471076-18.716889 55.188038S286.424438 719.919824 264.80016 719.919824L193.193025 719.919824zM832.551614 802.374504c0 16.583299-12.648627 29.407416-29.2309 29.407416l-516.65921 0c-16.470411 0-30.866755-12.731754-30.866755-29.201139L255.794748 767.127681l513.360818 0c17.673185 0 31.582057-13.379323 31.582057-31.052508l0-287.998717c0-17.673185-13.908872-31.928932-31.582057-31.928932L255.794748 416.147525 255.794748 222.414688c0-16.153297 14.014576-29.991357 30.167873-29.991357l372.718348 0c7.549152 0 12.7492 6.864638 12.7492 14.41379l0 113.758621c0 16.908623 14.628278 29.872311 31.537927 29.872311l116.836368 0c7.548126 0 12.748174 6.864638 12.748174 14.41379L832.55264 802.374504zM544.753017 510.563239c-2.494833 16.420124-4.490904 27.361058-5.988214 32.87001L491.107444 719.919824l-32.810487 0-48.280297-174.834299c-1.165829-4.186105-3.20295-16.049645-6.113418-34.522285l-1.122726 0c1.079623 21.551413 1.821608 43.507172 1.821608 65.099635L404.602125 719.919824l-36.94528 0 0-255.538184 59.451112 0 41.668118 154.259884c3.493381 12.78204 5.863011 25.335225 7.11094 35.597803l0.873345 0c2.576933-13.341351 5.239046-25.682101 7.984285-35.928258L526.538994 464.38164l58.684498 0 0 255.538184-41.050311 0L544.173181 565.086262c0-14.321427 0.495683-32.97161 1.577358-54.523023L544.753017 510.563239zM630.378833 719.919824l0-255.538184 66.076633 0c48.071966 0 72.108976 27.02342 72.108976 81.009709 0 26.222938-7.256669 46.975923-21.770006 62.784398-14.51539 15.811553-32.666811 23.485909-54.456316 22.459651L671.429144 630.635398l0 89.284426L630.378833 719.919824z" p-id="44603"></path><path d="M275.529685 559.287905c5.406326-5.949216 8.109489-14.522574 8.109489-25.210022 0-19.609733-10.812652-29.672191-32.436929-29.672191L234.243335 504.405693l0 63.627982 19.080184 0C262.720962 568.033674 270.122333 565.237122 275.529685 559.287905z" p-id="44604"></path><path d="M725.27381 547.012836c0-27.212251-11.976428-40.554628-35.929284-40.554628L671.429144 506.458208l0 82.100621 17.540798 0C713.173205 588.558829 725.27381 574.88805 725.27381 547.012836z" p-id="44605"></path></svg>