<?xml version="1.0" standalone="no"?><!DOCTYPE svg PUBLIC "-//W3C//DTD SVG 1.1//EN" "http://www.w3.org/Graphics/SVG/1.1/DTD/svg11.dtd"><svg t="1755687194804" class="icon" viewBox="0 0 1024 1024" version="1.1" xmlns="http://www.w3.org/2000/svg" p-id="3846" xmlns:xlink="http://www.w3.org/1999/xlink" width="200" height="200"><path d="M0 254.986v17.724c26.672 0 43.806 1.52 51.402 4.558s11.396 13.504 11.396 31.4v406.664c0 17.894-3.798 28.36-11.394 31.4s-24.732 4.558-51.402 4.558v17.726h259.292c23.632 0 44.988-3.884 64.062-11.648s35.534-18.062 49.378-30.892c13.842-12.83 24.476-27.6 31.904-44.312s11.142-34.014 11.142-51.908c0-16.544-3.714-32.412-11.142-47.604s-17.556-28.698-30.386-40.514c-12.83-11.818-27.938-21.354-45.324-28.612s-36.21-11.562-56.466-12.914c17.894-3.376 34.268-8.778 49.124-16.206s27.6-16.46 38.236-27.094 18.906-22.536 24.814-35.704c5.908-13.166 8.862-27.01 8.862-41.526 0-15.53-3.798-30.808-11.394-45.832s-18.23-28.444-31.904-40.262c-13.674-11.818-30.132-21.27-49.378-28.36s-40.514-10.634-63.81-10.634H0.004z m107.362 237.01v-192.442c0-13.504 1.266-22.114 3.798-25.828s11.732-5.572 27.6-5.572h93.688c17.894 0 33.51 3.292 46.844 9.876s24.476 15.024 33.424 25.322 15.7 21.86 20.258 34.69 6.836 25.322 6.836 37.476c0 14.518-2.786 28.782-8.356 42.794s-13.674 26.418-24.31 37.224-23.718 19.582-39.248 26.334C252.364 488.622 234.64 492 214.72 492H107.358z m31.4 254.734c-15.868 0-25.068-1.856-27.6-5.572s-3.798-12.322-3.798-25.828V505.162h138.762c18.908 0 35.366 3.798 49.376 11.394s25.574 17.386 34.69 29.374c9.116 11.986 15.952 25.406 20.51 40.26s6.836 29.542 6.836 44.058c0 13.504-2.532 27.346-7.596 41.528s-12.746 27.178-23.044 38.996c-10.298 11.818-23.296 21.524-38.996 29.12s-34.184 11.394-55.454 11.394H138.76v-4.558z m419.83-312.972c0-15.53 3.038-25.406 9.116-29.626s22.452-6.33 49.124-6.33v-17.726c-13.504 2.362-28.782 3.714-45.832 4.05s-30.134 0.506-39.248 0.506c-8.778 0-21.776-0.168-38.996-0.506s-32.412-1.688-45.58-4.05v17.726c26.672 0 42.286 2.11 46.844 6.33s6.836 14.096 6.836 29.626v277.016c0 15.868-2.786 25.828-8.356 29.88s-20.678 6.076-45.324 6.076v17.726h169.654v-17.726c-26.672 0-43.048-2.026-49.124-6.076s-9.116-14.01-9.116-29.88V433.758z m102.806-53.684v17.726c24.646 0 39.754 2.11 45.326 6.33s8.356 14.096 8.356 29.626v277.016c0 15.868-2.784 25.828-8.356 29.88s-20.678 6.076-45.326 6.076v17.726h228.4c21.27 0 40.178-2.784 56.72-8.356s30.554-13.168 42.034-22.788c11.48-9.622 20.256-20.596 26.334-32.918s9.116-25.236 9.116-38.742c0-12.154-2.954-23.718-8.862-34.69s-13.842-20.764-23.802-29.374c-9.96-8.61-21.776-15.868-35.45-21.776s-28.276-10.044-43.806-12.408c26.672-4.39 48.956-14.77 66.85-31.144s26.842-35.872 26.842-58.492c0-12.154-3.206-23.888-9.622-35.198s-15.446-21.27-27.094-29.88c-11.648-8.608-25.744-15.53-42.288-20.764s-34.944-7.85-55.202-7.85H661.4z m98.752 178.772v-125.088c0-15.53 1.856-24.646 5.572-27.346s12.154-4.05 25.322-4.05h71.914c33.424 0 55.202 10.466 65.328 31.4s15.192 35.788 15.192 44.566c0 13.504-6.33 30.3-18.99 50.39s-39.248 30.134-79.764 30.134h-84.574z m0 13.672h111.414c31.4 0 53.428 10.972 66.09 32.918s18.99 40.682 18.99 56.214c0 17.894-7.26 36.548-21.776 55.96s-38.49 29.12-71.914 29.12H791.04c-13.168 0-21.608-1.856-25.322-5.572s-5.572-12.322-5.572-25.828v-142.812z" fill="#FF8A65" p-id="3847"></path></svg>