<?xml version="1.0" standalone="no"?><!DOCTYPE svg PUBLIC "-//W3C//DTD SVG 1.1//EN" "http://www.w3.org/Graphics/SVG/1.1/DTD/svg11.dtd"><svg t="1755683619411" class="icon" viewBox="0 0 1024 1024" version="1.1" xmlns="http://www.w3.org/2000/svg" p-id="27969" xmlns:xlink="http://www.w3.org/1999/xlink" width="200" height="200"><path d="M69.888 892.48V139.2h113.664V465.92h2.304l188.16-326.784H499.2L325.632 435.392l204.288 457.088H404.736l-146.688-337.92-74.496 126.208v211.712H69.888z m736.512 14.272c-143.616 0-260.352-136.384-260.352-387.84 0-248.384 120.576-393.984 264.192-393.984 72.192 0 129.792 45.824 166.656 96.704l-59.904 95.68c-28.416-36.608-61.44-63.104-104.448-63.104-86.016 0-150.528 97.728-150.528 259.584 0 163.904 58.368 262.656 148.224 262.656 48.384 0 86.784-30.528 117.504-74.304l59.904 93.632c-46.848 72.32-107.52 110.976-181.248 110.976z" fill="#4C8EB7" p-id="27970"></path></svg>