<?xml version="1.0" standalone="no"?><!DOCTYPE svg PUBLIC "-//W3C//DTD SVG 1.1//EN" "http://www.w3.org/Graphics/SVG/1.1/DTD/svg11.dtd"><svg t="1752739188394" class="icon" viewBox="0 0 1024 1024" version="1.1" xmlns="http://www.w3.org/2000/svg" p-id="1836" xmlns:xlink="http://www.w3.org/1999/xlink" width="200" height="200"><path d="M901.632 926.72c0 12.8-5.12 25.088-14.336 34.304-9.216 9.216-21.504 14.336-34.304 14.336H170.496c-12.8 0-25.6-5.12-34.304-14.336-9.216-9.216-14.336-21.504-14.336-34.304V48.64c0-12.8 5.12-25.6 14.336-34.304C144.896 5.12 157.696 0 170.496 0h418.816c12.8 0 25.6 5.12 34.816 14.336l263.68 263.68c9.216 9.216 14.336 21.504 14.336 34.816V926.72h-0.512z" fill="#EBECF0" p-id="1837"></path><path d="M901.632 926.72v48.64c0 12.8-5.12 25.6-14.336 34.304-9.216 9.216-21.504 14.336-34.304 14.336H170.496c-27.136 0-48.64-22.016-48.64-48.64V926.72c0 12.8 5.12 25.088 14.336 34.304 9.216 9.216 21.504 14.336 34.304 14.336h682.496c27.136 0 48.64-22.016 48.64-48.64z" fill="#C1C7D0" p-id="1838"></path><path d="M24.064 536.576h975.36v243.712c0 27.136-22.016 48.64-48.64 48.64H73.216c-12.8 0-25.6-5.12-34.304-14.336-9.216-9.216-14.336-21.504-14.336-34.816v-243.2H24.064z" fill="#00CEB0" p-id="1839"></path><path d="M121.856 536.576V438.784L24.064 536.576h97.792z m779.776 0l1.024-97.792 97.28 97.792h-98.304z" fill="#00A589" p-id="1840"></path><path d="M901.632 312.832v6.656h-263.68c-27.136 0-48.64-22.016-48.64-48.64V0c12.8 0 25.6 5.12 34.816 14.336l264.192 263.68c8.704 9.216 13.824 21.504 13.312 34.816z" fill="#C1C7D0" p-id="1841"></path><path d="M201.6768 778.8544v-191.488h78.7968c17.408 0 31.232 1.024 41.4208 3.072s18.688 5.3248 25.5488 9.8304c8.8576 5.9904 15.4112 13.4144 19.7632 22.2208s6.5024 19.3024 6.5024 31.4368c0 21.4016-6.3488 37.7856-18.9952 49.2032s-30.8736 17.1008-54.7328 17.1008H263.168v58.624H201.6768z m61.4912-105.4208h19.7632c12.8 0 21.4016-1.4336 25.7536-4.3008s6.5024-7.936 6.5024-15.2064-2.0992-12.4928-6.2464-15.36-12.8-4.3008-26.0096-4.3008H263.168v39.1168zM522.24 704.6144h58.2656c-1.7408 25.2416-10.5984 44.8-26.6752 58.6752s-37.7344 20.8896-65.1264 20.8896c-30.6688 0-54.8352-9.0112-72.3968-26.9824s-26.368-42.5984-26.368-73.8816 8.704-55.808 26.112-73.8304 41.1648-27.0336 71.2192-27.0336c27.7504 0 49.5616 6.7072 65.4336 20.0704s24.832 32.512 26.7264 57.3952h-58.88c-0.8704-9.7792-4.0448-17.2032-9.472-22.1696s-13.1072-7.4752-22.9888-7.4752c-12.032 0-21.0944 4.4032-27.0848 13.2096s-9.0112 22.0672-9.0112 39.8336 3.2256 30.6176 9.6256 39.5264 15.8208 13.4144 28.2112 13.4144c9.5232 0 17.1008-2.7136 22.6816-8.192s8.8576-13.2608 9.8304-23.3984zM662.016 778.8544h-55.6544v-191.488h74.8544l26.5216 95.5392c0.3584 1.28 1.024 4.2496 2.0992 8.9088s2.5088 11.008 4.4032 19.2c1.2288-6.4 2.3552-12.032 3.3792-16.8448s1.9456-8.448 2.7136-10.8544l27.1872-95.9488h74.752v191.488h-55.6544l0.512-94.2592c0-5.7344 0-11.3152 0.0512-16.6912s0.1024-11.008 0.2048-16.8448c-2.0992 9.8816-4.608 20.6848-7.5264 32.3584l-0.4096 1.6896-23.6544 93.7472h-42.9056l-23.9104-91.648c-1.1264-4.1472-2.2528-8.9088-3.3792-14.2848s-2.6112-12.6464-4.4032-21.8624c0.256 8.2432 0.4608 15.3088 0.5632 21.1968s0.2048 10.5984 0.2048 14.1824v92.416z" fill="#FFFFFF" p-id="1842"></path></svg>