<?xml version="1.0" standalone="no"?><!DOCTYPE svg PUBLIC "-//W3C//DTD SVG 1.1//EN" "http://www.w3.org/Graphics/SVG/1.1/DTD/svg11.dtd"><svg t="1755683716894" class="icon" viewBox="0 0 1024 1024" version="1.1" xmlns="http://www.w3.org/2000/svg" p-id="34914" xmlns:xlink="http://www.w3.org/1999/xlink" width="200" height="200"><path d="M533.333333 597.333333c-42.666667 0-128 42.666667-128 85.333334 0 85.333333 128 85.333333 128 85.333333v-42.666667a42.666667 42.666667 0 0 1-42.666666-42.666666 42.666667 42.666667 0 0 1 42.666666-42.666667v-42.666667m0 213.333334s-170.666667-21.333333-170.666666-106.666667c0-128 128-160 170.666666-160V490.666667c-42.666667 0-213.333333 64-213.333333 192 0 170.666667 213.333333 170.666667 213.333333 170.666666v-42.666666M450.986667 299.946667l50.773333 22.613333c18.346667-104.106667 67.413333-173.226667 67.413333-173.226667-18.346667 43.946667-30.293333 80.213333-37.973333 108.8C582.826667 151.466667 687.36 85.333333 687.36 85.333333a679.082667 679.082667 0 0 0-112.64 150.613334c67.413333-71.68 160.853333-118.613333 160.853333-118.613334-114.773333 73.386667-166.4 189.866667-179.2 222.293334l23.466667 3.413333c0 22.186667 0 42.666667 10.666667 58.88 32.426667 80.64 198.826667 87.466667 198.826666 280.746667s-171.946667 256-263.253333 256-291.413333-41.386667-291.413333-256 211.2-216.32 248.746666-302.08c5.12-16.213333-32.426667-80.64-32.426666-80.64z" fill="#9575CD" p-id="34915"></path></svg>