<?xml version="1.0" standalone="no"?><!DOCTYPE svg PUBLIC "-//W3C//DTD SVG 1.1//EN" "http://www.w3.org/Graphics/SVG/1.1/DTD/svg11.dtd"><svg t="1755687227251" class="icon" viewBox="0 0 1024 1024" version="1.1" xmlns="http://www.w3.org/2000/svg" p-id="5725" xmlns:xlink="http://www.w3.org/1999/xlink" width="200" height="200"><path d="M770.986667 0H253.013333A253.44 253.44 0 0 0 0 253.013333v517.973334A253.44 253.44 0 0 0 253.013333 1024h517.973334A253.44 253.44 0 0 0 1024 770.986667V253.013333A253.44 253.44 0 0 0 770.986667 0z m-314.026667 657.066667h-81.066667L307.2 822.613333a21.333333 21.333333 0 0 1-28.16 11.52 21.76 21.76 0 0 1-11.52-28.586666l61.866667-148.48H206.933333a21.333333 21.333333 0 0 1-21.333333-21.76 22.186667 22.186667 0 0 1 22.186667-21.333334h250.026666a21.333333 21.333333 0 0 1 20.906667 22.186667 20.906667 20.906667 0 0 1-21.76 20.906667z m337.92 177.92a21.76 21.76 0 0 1-28.16-12.373334l-228.266667-554.666666L436.48 512h66.986667a21.333333 21.333333 0 0 1 20.906666 22.186667 20.906667 20.906667 0 0 1-21.76 20.906666H252.586667a21.333333 21.333333 0 0 1-21.333334-21.76 22.186667 22.186667 0 0 1 22.186667-21.333333h136.533333l128-310.186667a20.906667 20.906667 0 0 1 19.2-13.226666 22.186667 22.186667 0 0 1 20.48 13.226666l249.173334 604.586667a21.76 21.76 0 0 1-11.946667 28.586667z" p-id="5726"></path></svg>