<?xml version="1.0" standalone="no"?><!DOCTYPE svg PUBLIC "-//W3C//DTD SVG 1.1//EN" "http://www.w3.org/Graphics/SVG/1.1/DTD/svg11.dtd"><svg t="1743952242146" class="icon" viewBox="0 0 1024 1024" version="1.1" xmlns="http://www.w3.org/2000/svg" p-id="15190" xmlns:xlink="http://www.w3.org/1999/xlink" width="200" height="200"><path d="M810.666667 597.333333a42.666667 42.666667 0 0 1 0 85.333334h-42.666667v-85.333334h42.666667m0-85.333333h-128v426.666667h85.333333v-170.666667h42.666667a128 128 0 0 0 128-128 128 128 0 0 0-128-128z m-597.333334 85.333333a42.666667 42.666667 0 0 1 42.666667 42.666667v42.666667H170.666667v-42.666667a42.666667 42.666667 0 0 1 42.666666-42.666667m0-85.333333a128 128 0 0 0-128 128v298.666667h85.333334v-170.666667h85.333333v170.666667h85.333333V640a128 128 0 0 0-128-128z m298.666667 170.666667a42.666667 42.666667 0 1 1 42.666667-42.666667h85.333333a128 128 0 1 0-128 128 42.666667 42.666667 0 1 1-42.666667 42.666667h-85.333333a128 128 0 1 0 128-128zM725.333333 85.333333l213.333334 213.333334v170.666666h-85.333334v-135.253333L689.92 170.666667H170.666667v298.666666H85.333333V85.333333z" p-id="15191"></path></svg>