<?xml version="1.0" standalone="no"?><!DOCTYPE svg PUBLIC "-//W3C//DTD SVG 1.1//EN" "http://www.w3.org/Graphics/SVG/1.1/DTD/svg11.dtd"><svg t="1769774511086" class="icon" viewBox="0 0 1024 1024" version="1.1" xmlns="http://www.w3.org/2000/svg" p-id="9272" xmlns:xlink="http://www.w3.org/1999/xlink" width="200" height="200"><path d="M545.718857 130.608762c11.337143 6.265905 20.699429 15.555048 26.989714 26.819048l345.014858 617.667047a68.87619 68.87619 0 0 1-26.989715 93.915429c-10.313143 5.705143-21.942857 8.704-33.718857 8.704H166.985143A69.266286 69.266286 0 0 1 97.52381 808.643048c0-11.751619 2.998857-23.28381 8.752761-33.548191l344.990477-617.642667a69.656381 69.656381 0 0 1 94.451809-26.819047z m0.999619 539.867428h-69.461333v69.071239h69.485714V670.47619z m0-298.374095h-69.461333v252.318476h69.485714V372.102095z" p-id="9273"></path></svg>