<?xml version="1.0" standalone="no"?><!DOCTYPE svg PUBLIC "-//W3C//DTD SVG 1.1//EN" "http://www.w3.org/Graphics/SVG/1.1/DTD/svg11.dtd"><svg t="1752738569060" class="icon" viewBox="0 0 1024 1024" version="1.1" xmlns="http://www.w3.org/2000/svg" p-id="6509" xmlns:xlink="http://www.w3.org/1999/xlink" width="200" height="200"><path d="M648.76544 0c24.40704 0 47.8208 9.68704 65.09568 26.9312l187.61728 187.21792a92.16 92.16 0 0 1 27.05408 65.2288v120.6272c44.2368 0 80.09728 35.85536 80.10752 80.08704v319.7952c0 43.24864-34.3296 78.6944-77.55776 80.06656l-2.54976 0.03072v48.00512c0 53.02272-43.02848 96-96.12288 96H191.5904c-53.0944 0-96.12288-42.97728-96.12288-96v-48.00512c-44.2368 0-80.09728-35.85536-80.10752-80.08704V480.1024c0-43.24864 34.3296-78.6944 77.55776-80.06656l2.54976-0.04096V96C95.46752 42.97728 138.496 0 191.5904 0h457.17504z m183.64416 879.99488H191.5904v17.28512a30.72 30.72 0 0 0 30.72 30.72h579.3792a30.72 30.72 0 0 0 30.72-30.72v-17.28512zM780.82048 547.84c-72.74496 0-109.85472 56.27904-109.85472 107.39712 0 39.3216 23.83872 72.99072 77.90592 72.99072 25.55904 0 49.88928-7.86432 70.53312-25.31328l-19.16928-26.54208c-12.04224 10.32192-31.21152 16.46592-44.97408 16.46592-38.0928 0-48.90624-28.50816-44.72832-53.57568 4.17792-25.06752 24.82176-55.54176 63.8976-55.54176 13.76256 0 28.50816 3.93216 36.864 14.00832l28.01664-23.3472c-14.7456-17.44896-34.89792-26.54208-58.49088-26.54208z m-446.0544 4.17792h-125.3376L179.2 723.80416h38.33856L228.352 662.1184h81.59232l6.144-34.16064H234.496l7.12704-40.79616h86.99904l6.144-35.14368z m67.584-0.24576h-38.33856l-30.22848 172.032H458.1376l6.144-35.14368h-86.016l24.08448-136.88832z m207.91296 0h-41.7792l-107.39712 172.032h42.76224l17.69472-29.4912h88.22784l7.3728 29.4912h40.05888l-46.94016-172.032z m-26.05056 38.0928l16.95744 70.53312h-59.22816l42.27072-70.53312z m19.00544-501.54496H222.3104a30.72 30.72 0 0 0-30.72 30.72v280.95488h640.8192v-81.5616h-137.00096c-50.8928-0.01024-92.14976-41.2672-92.16-92.16l-0.03072-137.95328z" fill="#FF527B" p-id="6510"></path></svg>