<?xml version="1.0" standalone="no"?><!DOCTYPE svg PUBLIC "-//W3C//DTD SVG 1.1//EN" "http://www.w3.org/Graphics/SVG/1.1/DTD/svg11.dtd"><svg t="1752738555952" class="icon" viewBox="0 0 1024 1024" version="1.1" xmlns="http://www.w3.org/2000/svg" p-id="6347" xmlns:xlink="http://www.w3.org/1999/xlink" width="200" height="200"><path d="M653.88544 0a92.16 92.16 0 0 1 65.09568 26.9312l187.61728 187.21792a92.16 92.16 0 0 1 27.05408 65.2288v120.6272A80.10752 80.10752 0 0 1 1013.76 480.09216v319.7952a80.10752 80.10752 0 0 1-77.55776 80.06656l-2.54976 0.03072v48.00512c0 53.02272-43.02848 96-96.12288 96H196.7104c-53.0944 0-96.12288-42.97728-96.12288-96v-48.00512A80.10752 80.10752 0 0 1 20.48 799.8976v-319.7952a80.10752 80.10752 0 0 1 77.55776-80.06656l2.54976-0.04096V96C100.58752 42.97728 143.616 0 196.7104 0h457.17504zM837.5296 879.99488H196.7104v17.28512a30.72 30.72 0 0 0 30.72 30.72h579.3792a30.72 30.72 0 0 0 30.72-30.72v-17.28512zM444.59008 559.49312H337.7152L303.62624 719.36h42.63936l13.7216-65.69984h61.99296l6.2976-29.92128h-61.75744l7.08608-34.53952h64.57344l6.41024-29.696z m70.54336 0h-43.08992l-34.0992 159.86688h108.91264l6.9632-31.8464h-66.1504l27.46368-128.02048z m107.99104 0h-42.1888l21.0432 159.86688h51.3024l88.76032-159.86688H697.0368l-48.37376 92.3648a217.7024 217.7024 0 0 0-8.66304 18.2272 152.2688 152.2688 0 0 0-5.8368 16.5376h-1.1264a193.05472 193.05472 0 0 0 0.6656-16.5376 231.45472 231.45472 0 0 0-1.35168-24.18688l-9.216-86.40512zM608.33792 88.32H227.4304a30.72 30.72 0 0 0-30.72 30.72v280.95488h640.8192v-81.5616H700.52864c-50.8928-0.01024-92.14976-41.2672-92.16-92.16l-0.03072-137.95328z m96.12288 59.84256v58.91072a15.36 15.36 0 0 0 15.36 15.36h59.0848l-74.4448-74.27072z" fill="#FF527B" p-id="6348"></path></svg>