<?xml version="1.0" standalone="no"?><!DOCTYPE svg PUBLIC "-//W3C//DTD SVG 1.1//EN" "http://www.w3.org/Graphics/SVG/1.1/DTD/svg11.dtd"><svg t="1741331581393" class="icon" viewBox="0 0 1024 1024" version="1.1" xmlns="http://www.w3.org/2000/svg" p-id="42692" xmlns:xlink="http://www.w3.org/1999/xlink" width="200" height="200"><path d="M416.087 128h96v64h-96v-64z m-96 64h96v64h-96v-64z m96 64h96v64h-96v-64z m-96 64h96v64h-96v-64z m96 64h96v64h-96v-64z m-96 64h96v64h-96v-64z m96 64v64h-96v224c0 17.663 14.336 32 32 32h128c17.664 0 32-14.337 32-32V512h-96z m64 256h-128v-64h128v64zM903.51 199.423L760.63 56.576C729.526 25.473 668.054 0 624.054 0h-480c-44 0-79.999 36-79.999 80v864c0 44 36 80 80 80h735.999c44 0 80-36 80-80V336c0-44-25.471-105.472-56.575-136.577h0.03z m-45.248 45.249c3.137 3.135 6.24 6.975 9.28 11.328H704.086V92.544c4.353 3.04 8.192 6.144 11.328 9.28l142.88 142.848h-0.032z m37.825 699.327c0 8.672-7.327 16-16 16h-736c-8.673 0-16-7.328-16-16V80c0-8.673 7.327-16 16-16h480c4.832 0 10.239 0.608 16 1.696V320H894.39c1.089 5.76 1.696 11.167 1.696 16v607.999z" p-id="42693"></path></svg>