<?xml version="1.0" standalone="no"?><!DOCTYPE svg PUBLIC "-//W3C//DTD SVG 1.1//EN" "http://www.w3.org/Graphics/SVG/1.1/DTD/svg11.dtd"><svg t="1755683233760" class="icon" viewBox="0 0 1024 1024" version="1.1" xmlns="http://www.w3.org/2000/svg" p-id="9005" xmlns:xlink="http://www.w3.org/1999/xlink" width="200" height="200"><path d="M923.136 969.557333H193.024v-909.653333h521.386667l208.725333 207.701333z" fill="#7CCDFF" p-id="9006"></path><path d="M912.896 253.952l2.56 671.914667c0 15.530667-12.458667 27.989333-27.989333 27.989333H237.909333c-15.530667 0-27.989333-12.458667-27.989333-27.989333V96.938667c0-15.530667 12.458667-27.989333 27.989333-27.989334l493.397334-1.024-38.912-39.936H239.274667c-36.352 0-65.706667 29.354667-65.706667 65.706667v835.584c0 36.352 29.354667 65.706667 65.706667 65.706667h646.826666c36.352 0 65.706667-29.354667 65.706667-65.706667V293.888l-38.912-39.936z" fill="#4191FB" p-id="9007"></path><path d="M692.394667 222.72c0 39.424 31.914667 71.338667 71.338666 71.338667h188.245334L692.394667 27.989333v194.730667z" fill="#C7E2FF" p-id="9008"></path><path d="M557.568 482.304H158.72c-50.346667 0-91.136-40.789333-91.136-91.136v-60.245333c0-50.346667 40.789333-91.136 91.136-91.136h398.848c50.346667 0 91.136 40.789333 91.136 91.136v60.245333c0 50.346667-40.789333 91.136-91.136 91.136z" fill="#4191FB" p-id="9009"></path><path d="M228.181333 379.562667l42.154667 12.8c-2.901333 11.776-7.338667 21.674667-13.312 29.696-6.144 7.850667-13.653333 13.994667-22.698667 17.92-9.045333 4.096-20.48 5.973333-34.474666 5.973333-16.896 0-30.72-2.389333-41.472-7.338667-10.752-4.949333-19.968-13.653333-27.818667-25.941333-7.850667-12.458667-11.605333-28.16-11.605333-47.616 0-25.770667 6.826667-45.568 20.48-59.392s33.109333-20.821333 58.197333-20.821333c19.626667 0 34.986667 3.925333 46.250667 11.946666 11.264 7.850667 19.626667 20.138667 25.088 36.522667l-42.496 9.386667c-1.536-4.778667-3.072-8.192-4.608-10.410667-2.730667-3.754667-5.973333-6.485333-9.898667-8.533333s-8.192-2.901333-13.141333-2.901334c-10.922667 0-19.285333 4.437333-25.088 13.141334-4.437333 6.485333-6.656 16.725333-6.656 30.72 0 17.237333 2.56 29.013333 7.850666 35.498666s12.629333 9.557333 22.016 9.557334c9.216 0 16.213333-2.56 20.821334-7.68 4.778667-5.12 8.192-12.629333 10.410666-22.528zM285.354667 391.850667l45.738666-2.901334c1.024 7.509333 3.072 13.141333 5.973334 17.066667 4.949333 6.314667 12.117333 9.386667 21.162666 9.386667 6.826667 0 12.117333-1.536 15.872-4.778667 3.754667-3.242667 5.632-6.997333 5.632-11.264 0-4.096-1.706667-7.68-5.290666-10.752-3.584-3.242667-11.776-6.144-24.576-9.045333-21.162667-4.778667-36.181333-11.093333-45.226667-18.944s-13.653333-17.92-13.653333-30.037334c0-8.021333 2.389333-15.530667 6.997333-22.698666 4.608-7.168 11.605333-12.629333 20.992-16.725334 9.386667-4.096 22.016-6.144 38.229333-6.144 19.968 0 35.157333 3.754667 45.568 11.093334 10.410667 7.338667 16.725333 19.114667 18.602667 35.328l-45.397333 2.730666c-1.194667-6.997333-3.754667-12.117333-7.68-15.36s-9.216-4.778667-16.042667-4.778666c-5.632 0-9.728 1.194667-12.629333 3.584-2.901333 2.389333-4.266667 5.290667-4.266667 8.704 0 2.56 1.194667 4.778667 3.584 6.656 2.218667 2.048 7.68 3.925333 16.213333 5.802666 20.992 4.608 36.181333 9.045333 45.226667 13.824 9.045333 4.608 15.701333 10.410667 19.797333 17.237334 4.096 6.826667 6.144 14.506667 6.144 23.04 0 10.069333-2.730667 19.114667-8.362666 27.648-5.461333 8.362667-13.312 14.848-23.210667 19.114666-9.898667 4.437333-22.357333 6.485333-37.546667 6.485334-26.453333 0-44.885333-5.12-54.954666-15.36-9.898667-10.24-15.530667-23.210667-16.896-38.912zM435.541333 287.573333h50.346667l34.986667 112.128 34.645333-112.128h48.810667l-57.856 155.818667h-52.224l-58.709334-155.818667z" fill="#FFFFFF" p-id="9010"></path><path d="M468.650667 538.794667c40.789333 0 81.578667-0.170667 122.368 0 33.109333 0.170667 45.909333 11.946667 46.08 44.885333 0.341333 82.773333 0.512 165.546667 0 248.32-0.170667 34.133333-12.458667 46.421333-46.592 46.592-81.578667 0.512-163.157333 0.512-244.565334 0-35.328-0.170667-47.616-12.288-47.786666-47.274667-0.512-82.773333-0.512-165.546667 0-248.32 0.170667-32.085333 12.970667-44.032 44.885333-44.202666 41.642667-0.170667 83.626667 0 125.610667 0z m-1.365334 153.6c-10.410667-20.650667-19.968-37.034667-26.965333-54.272-6.485333-16.042667-17.408-19.797333-32.938667-18.602667-11.093333 0.853333-12.629333 4.266667-6.997333 13.312 11.605333 19.285333 22.016 39.253333 34.474667 58.026667 7.68 11.776 8.533333 20.992 0.170666 32.938666-13.653333 19.285333-25.770667 39.765333-38.058666 60.074667-2.218667 3.754667-9.386667 8.704-0.512 13.141333 9.898667 5.12 29.184-0.853333 34.986666-10.922666 7.509333-13.141333 14.506667-26.794667 22.016-39.936 3.242667-5.632 4.437333-14.506667 11.946667-14.848 8.874667-0.341333 9.728 9.557333 13.141333 15.701333 6.485333 11.605333 12.8 23.552 18.261334 35.669333 5.290667 11.605333 13.482667 16.725333 25.941333 15.018667 5.12-0.682667 11.946667 2.730667 14.848-3.413333 2.218667-4.778667-2.56-9.045333-4.949333-12.970667-12.117333-19.626667-23.722667-39.594667-36.693334-58.88-6.826667-10.069333-6.485333-18.432-0.170666-28.330667 11.434667-17.92 22.016-36.352 32.597333-54.954666 2.901333-4.949333 9.557333-10.24 5.973333-16.042667-3.925333-6.314667-12.288-2.901333-18.602666-3.413333-9.557333-0.682667-13.824 5.973333-17.578667 13.312-9.728 18.432-19.114667 36.693333-30.890667 59.392zM787.285333 772.949333c0 14.506667 0.170667 29.184 0 43.690667 0 5.290667 0.512 11.776-6.826666 12.970667-6.485333 1.024-8.021333-4.266667-8.704-9.216-1.365333-10.069333-6.656-8.533333-12.629334-4.266667-12.629333 8.874667-26.624 14.336-41.813333 17.066667-22.528 3.925333-44.373333-7.68-49.834667-26.624-7.68-25.941333 1.365333-48.64 23.210667-58.709334 19.456-9.045333 40.277333-7.850667 60.928-8.192 20.309333-0.341333 23.210667-5.973333 13.312-24.234666-10.922667-19.797333-38.570667-26.624-66.56-16.896-5.12 1.706667-11.776 9.557333-15.701333 2.389333-4.608-8.362667 4.608-12.458667 10.922666-15.872 46.250667-24.746667 93.696 3.072 94.037334 55.125333-0.170667 10.922667-0.170667 21.845333-0.341334 32.768 0.170667 0 0.170667 0 0 0zM711.168 812.373333c32.085333 0.341333 55.637333-16.725333 59.392-40.96 1.536-10.24-0.170667-17.237333-12.8-15.36-16.725333 2.389333-33.792 4.096-50.346667 7.338667-13.653333 2.730667-23.893333 10.410667-21.845333 26.282667 2.048 16.213333 13.653333 21.674667 25.6 22.698666zM836.778667 798.72c10.410667 0 16.554667 2.048 13.653333 11.434667-5.973333 18.944-12.288 37.888-18.602667 56.832-2.218667 6.656-7.338667 9.728-14.165333 8.192-9.216-2.048-5.973333-9.216-4.778667-14.677334 3.413333-15.872 7.168-31.744 11.093334-47.616 1.706667-8.362667 5.12-15.189333 12.8-14.165333z" fill="#4191FB" p-id="9011"></path></svg>