<?xml version="1.0" standalone="no"?><!DOCTYPE svg PUBLIC "-//W3C//DTD SVG 1.1//EN" "http://www.w3.org/Graphics/SVG/1.1/DTD/svg11.dtd"><svg t="1755683212708" class="icon" viewBox="0 0 1024 1024" version="1.1" xmlns="http://www.w3.org/2000/svg" p-id="10851" xmlns:xlink="http://www.w3.org/1999/xlink" width="200" height="200"><path d="M198.228907 318.72c89.6 22.613333 203.946667 34.133333 341.76 34.133333 140.8 0 252.586667-11.52 341.76-34.133333 95.146667-22.186667 140.8-52.053333 140.8-80.213333 0-20.053333-20.48-39.68-57.6-54.613334 8.533333 5.546667 14.933333 14.933333 14.933333 25.173334 0 28.586667-43.093333 52.053333-129.706667 71.68-80.213333 17.493333-182.613333 29.866667-307.2 29.866666-120.32 0-227.413333-12.373333-304.64-29.013333-83.2-20.48-126.72-42.666667-126.72-71.68 0-11.946667 5.546667-22.186667 22.186667-34.133333-52.053333 20.053333-80.213333 37.12-80.213333 62.72 2.986667 29.013333 49.493333 58.026667 144.64 80.213333z m200.106666-92.16c96.853333-8.533333 125.013333-70.826667 238.506667-81.066667 55.893333-4.266667 91.306667 6.826667 95.146667 26.453334 3.413333 18.346667-24.32 30.72-58.026667 33.28-46.506667 4.693333-65.706667-11.946667-69.546667-27.733334-34.56 3.84-40.106667 18.346667-38.4 28.586667 3.84 19.626667 45.653333 39.253333 117.333334 32.426667 81.066667-6.4 108.373333-38.4 101.546666-70.4-8.533333-41.813333-70.826667-76.8-182.613333-66.133334-143.36 12.8-142.506667 79.36-240.213333 87.466667-40.106667 3.84-62.293333-5.546667-66.133334-21.333333-2.56-15.786667 17.066667-23.466667 40.106667-25.173334 21.333333-2.133333 47.36 1.706667 59.733333 8.533334 8.96-4.693333 11.946667-9.386667 11.093334-14.933334-4.266667-14.933333-33.706667-21.333333-70.826667-18.773333-72.533333 6.4-72.533333 38.826667-69.973333 53.333333 7.253333 37.12 63.146667 61.866667 132.266666 55.466667z m487.253334 163.84c-89.6 20.906667-203.946667 34.56-341.76 34.56-140.8 0-255.573333-14.506667-344.746667-34.133333-80.213333-20.48-122.88-43.093333-137.813333-66.56 7.68 52.48 20.906667 103.253333 37.973333 151.466666-20.48 12.8-38.826667 28.586667-55.466667 49.92A192.853333 192.853333 0 0 0 0.255573 657.92a153.6 153.6 0 0 0 60.586667 111.786667c37.12 29.013333 77.226667 37.546667 122.88 29.013333 17.493333-2.986667 37.12-11.946667 55.04-17.92-37.546667 0-69.12-11.946667-100.693333-37.12a151.466667 151.466667 0 0 1-63.573334-103.253333c-8.533333-40.106667 0-77.226667 22.613334-110.08 5.12-6.4 10.666667-11.946667 16.64-17.066667 12.8 31.146667 26.453333 61.866667 41.813333 90.453333 34.56 52.48 69.12 98.133333 103.68 147.626667 14.933333 29.013333 24.746667 57.6 31.573333 86.186667a166.4 166.4 0 0 0 95.146667 64c49.066667 17.066667 100.266667 24.746667 152.746667 21.76h5.546666a435.2 435.2 0 0 0 157.44-22.186667 178.346667 178.346667 0 0 0 92.16-63.573333h2.986667c5.546667-28.586667 14.933333-57.173333 28.586667-86.186667 34.133333-49.92 69.12-95.146667 103.253333-147.626667A896 896 0 0 0 1024.255573 324.693333c-18.346667 25.6-61.44 48.213333-138.666666 65.706667z" p-id="10852"></path></svg>