<?xml version="1.0" standalone="no"?><!DOCTYPE svg PUBLIC "-//W3C//DTD SVG 1.1//EN" "http://www.w3.org/Graphics/SVG/1.1/DTD/svg11.dtd"><svg t="1755683203064" class="icon" viewBox="0 0 1024 1024" version="1.1" xmlns="http://www.w3.org/2000/svg" p-id="10697" xmlns:xlink="http://www.w3.org/1999/xlink" width="200" height="200"><path d="M490.83264 521.216c-5.077333 11.050667-10.709333 23.424-16.512 36.608-20.565333 46.592-43.349333 103.253333-51.626667 139.562667a209.493333 209.493333 0 0 0-4.778666 46.762666c0 6.997333 0.384 14.378667 0.938666 21.930667 29.098667 10.666667 60.458667 16.554667 93.269334 16.64a272.64 272.64 0 0 0 85.376-13.909333 162.474667 162.474667 0 0 1-17.834667-18.816c-36.437333-46.464-56.704-114.432-88.832-228.778667M356.517973 290.688A270.805333 270.805333 0 0 0 241.403307 512a270.805333 270.805333 0 0 0 112 219.050667c16.64-69.205333 58.282667-132.565333 120.746666-259.584-3.712-10.197333-7.936-21.333333-12.672-33.066667-17.322667-43.434667-42.282667-93.781333-64.554666-116.608a182.272 182.272 0 0 0-40.405334-31.104m391.338667 531.797333c-35.84-4.48-65.408-9.898667-91.349333-19.029333A325.333333 325.333333 0 0 1 186.747307 512a324.266667 324.266667 0 0 1 110.933333-244.48 238.165333 238.165333 0 0 0-56.490667-6.912c-95.402667 0.853333-196.138667 53.674667-238.08 196.352-3.925333 20.736-2.986667 36.437333-2.986666 55.04 0 282.752 229.248 512 512 512 173.184 0 326.101333-86.058667 418.773333-217.642667-50.090667 12.501333-98.346667 18.474667-139.562667 18.602667-15.445333 0-29.952-0.853333-43.477333-2.474667m-96.170667-99.2c3.157333 1.536 10.325333 4.138667 20.266667 6.954667a271.104 271.104 0 0 0 110.933333-218.24h-0.085333a271.104 271.104 0 0 0-270.72-270.72 270.421333 270.421333 0 0 0-84.992 13.824c54.997333 62.634667 81.408 152.149333 106.965333 250.112l0.042667 0.128c0.042667 0.085333 8.192 27.178667 22.101333 63.146667 13.909333 35.925333 33.664 80.426667 55.168 112.853333 14.165333 21.76 29.738667 37.376 40.32 41.941333M512.08064 0a511.146667 511.146667 0 0 0-416.085333 213.888c48.384-30.293333 97.749333-41.258667 140.842666-40.832 59.477333 0.170667 106.282667 18.602667 128.725334 31.232 5.418667 3.114667 10.581333 6.485333 15.616 9.941333A325.333333 325.333333 0 0 1 837.371307 512a324.48 324.48 0 0 1-96.768 231.466667c14.677333 1.621333 30.250667 2.688 46.250666 2.602666 56.661333 0 118.016-12.501333 163.925334-51.114666 29.994667-25.258667 55.082667-62.208 68.992-117.632 2.773333-21.418667 4.266667-43.178667 4.266666-65.322667 0-282.752-229.162667-512-511.957333-512" p-id="10698"></path></svg>