<?xml version="1.0" standalone="no"?><!DOCTYPE svg PUBLIC "-//W3C//DTD SVG 1.1//EN" "http://www.w3.org/Graphics/SVG/1.1/DTD/svg11.dtd"><svg t="1743952327660" class="icon" viewBox="0 0 1024 1024" version="1.1" xmlns="http://www.w3.org/2000/svg" p-id="15482" xmlns:xlink="http://www.w3.org/1999/xlink" width="200" height="200"><path d="M938.666667 512H682.666667v85.333333h85.333333v341.333334h85.333333V597.333333h85.333334z m-725.333334 85.333333H170.666667v256h42.666666a42.666667 42.666667 0 0 0 42.666667-42.666666v-170.666667a42.666667 42.666667 0 0 0-42.666667-42.666667m0-85.333333a128 128 0 0 1 128 128v170.666667a128 128 0 0 1-128 128H85.333333V512z m298.666667 85.333333a42.666667 42.666667 0 0 1 42.666667 42.666667v170.666667a42.666667 42.666667 0 0 1-85.333334 0v-170.666667a42.666667 42.666667 0 0 1 42.666667-42.666667m0-85.333333a128 128 0 0 0-128 128v170.666667a128 128 0 0 0 256 0v-170.666667a128 128 0 0 0-128-128zM725.333333 85.333333l213.333334 213.333334v170.666666h-85.333334v-135.253333L689.92 170.666667H170.666667v298.666666H85.333333V85.333333z" p-id="15483"></path></svg>