<?xml version="1.0" standalone="no"?><!DOCTYPE svg PUBLIC "-//W3C//DTD SVG 1.1//EN" "http://www.w3.org/Graphics/SVG/1.1/DTD/svg11.dtd"><svg t="1743951732648" class="icon" viewBox="0 0 1024 1024" version="1.1" xmlns="http://www.w3.org/2000/svg" p-id="17188" xmlns:xlink="http://www.w3.org/1999/xlink" width="200" height="200"><path d="M1012.969547 194.426704L966.346383 662.399998 512.186472 1023.309587 59.754232 667.581016 9.675725 201.333396l504.236421 258.956993L1012.969547 194.426704zM389.579713 148.458657c0-42.540666-118.426392-69.272639-212.657393-48.001307s-94.229004 74.731282 0 96.002614 212.657393-5.462638 212.657393-48.001307z m525.789374 1.517954c0-47.200386-118.42839-76.86241-212.657394-53.260219s-94.231001 82.922243 0 106.522436 212.657393-6.059833 212.657394-53.262217zM670.710822 281.429447c0-53.613743-133.036701-87.304337-238.892036-60.498464s-105.853337 94.191055 0 120.996928c105.855335 26.80787 238.892036-6.882724 238.892036-60.498464z m-26.084844-226.946136c0-41.256397-109.766064-67.181457-197.104355-46.553258s-87.338291 72.480315 0 93.108514 197.104355-5.296861 197.104355-46.555256z" p-id="17189"></path></svg>