<?xml version="1.0" standalone="no"?><!DOCTYPE svg PUBLIC "-//W3C//DTD SVG 1.1//EN" "http://www.w3.org/Graphics/SVG/1.1/DTD/svg11.dtd"><svg t="1741328839205" class="icon" viewBox="0 0 1024 1024" version="1.1" xmlns="http://www.w3.org/2000/svg" p-id="30409" xmlns:xlink="http://www.w3.org/1999/xlink" width="200" height="200"><path d="M640 64a32 32 0 0 1 22.624 9.376L877.28 288H928a32 32 0 0 1 32 32v416a32 32 0 0 1-32 32h-32v160a32 32 0 0 1-32 32H160a32 32 0 0 1-32-32v-160H96a32 32 0 0 1-32-32V320a32 32 0 0 1 32-32h32V96a32 32 0 0 1 32-32h480z m192 704H192v128h640v-128z m64-416H128v352h768V352z m-563.2 48a35.2 35.2 0 0 1 35.2 35.2v185.6a35.2 35.2 0 0 1-35.2 35.2H176v-256h156.8z m219.872 0H624v256h-64v-156.192L512 567.04l-48-67.2v156.16h-64v-256h71.296L512 456.928l40.672-56.96z m279.328 0v64h-112v128h64v-32h-32v-64h60.8a35.2 35.2 0 0 1 35.2 35.2v89.6a35.2 35.2 0 0 1-35.2 35.2h-121.6a35.2 35.2 0 0 1-35.2-35.2v-185.6a35.2 35.2 0 0 1 35.2-35.2H832z m-528 64h-64v128h64v-128zM626.72 128H192v160h594.72l-160-160z" p-id="30410"></path></svg>