<?xml version="1.0" standalone="no"?><!DOCTYPE svg PUBLIC "-//W3C//DTD SVG 1.1//EN" "http://www.w3.org/Graphics/SVG/1.1/DTD/svg11.dtd"><svg t="1741331359587" class="icon" viewBox="0 0 1024 1024" version="1.1" xmlns="http://www.w3.org/2000/svg" p-id="40590" xmlns:xlink="http://www.w3.org/1999/xlink" width="200" height="200"><path d="M354.401 0c-87.04 0-157.44 70.559-157.44 157.599V433.28H78.72c-21.658 0-39.363 17.7-39.363 39.363V708.96c0 21.658 17.7 39.358 39.363 39.358h118.241V866.4c0 87.04 70.4 157.599 157.44 157.599H827.04c87.04 0 157.598-70.559 157.598-157.599V315.034c0-41.749-38.988-81.93-107.52-149.28L848 136.633l-29.123-29.112C751.54 38.989 711.393 0 669.6 0H354.406z m0 78.72h287.202c28.354 7.091 27.996 42.138 27.996 76.8v120.161c0 21.658 17.7 39.358 39.362 39.358H827.04c39.388 0 78.878-0.026 78.878 39.362v512c0 43.32-35.553 78.879-78.878 78.879H354.406c-43.325 0-78.72-35.558-78.72-78.879V748.32h393.918c21.663 0 39.362-17.695 39.362-39.358V472.643c0-21.663-17.7-39.363-39.362-39.363H275.68V157.599c0-43.32 35.395-78.879 78.72-78.879z m-3.84 427.679h20.158l65.28 176.64h-23.04l-19.2-54.718h-65.28l-19.2 54.718h-23.04l64.322-176.64z m-185.282 0.962h42.24c21.12 0 36.802 4.158 47.042 12.478 10.24 8.32 15.36 20.802 15.36 37.442 0 23.04-11.52 38.718-34.56 47.038l48 78.72h-25.927l-42.24-72.96h-27.838v72.96h-22.082V507.36z m294.722 0h42.24c21.12 0 36.798 4.158 47.038 12.478 10.24 8.32 15.36 20.802 15.36 37.442 0 23.04-11.52 38.718-34.56 47.038l48 78.72H552.16l-42.24-72.96H482.08v72.96H460V507.36z m-272.64 19.2v65.28h20.158c13.44 0 23.362-2.882 29.762-8.642s9.6-14.08 9.6-24.96-3.2-18.878-9.6-23.998c-5.76-5.12-16-7.68-30.72-7.68h-19.2z m294.718 0v65.28h20.162c13.44 0 23.358-2.882 29.758-8.642s9.6-14.08 9.6-24.96-3.2-18.878-9.6-23.998c-5.76-5.12-16-7.68-30.72-7.68h-19.2z m-120.96 3.84c-1.92 8.96-4.798 18.238-8.638 27.838l-17.28 50.882h51.84L368.8 558.24c-3.84-10.88-6.4-20.158-7.68-27.838z" p-id="40591"></path></svg>