<?xml version="1.0" standalone="no"?><!DOCTYPE svg PUBLIC "-//W3C//DTD SVG 1.1//EN" "http://www.w3.org/Graphics/SVG/1.1/DTD/svg11.dtd"><svg t="1743951931730" class="icon" viewBox="0 0 1024 1024" version="1.1" xmlns="http://www.w3.org/2000/svg" p-id="14752" xmlns:xlink="http://www.w3.org/1999/xlink" width="200" height="200"><path d="M341.333333 640a128 128 0 0 0-128-128H85.333333v426.666667h85.333334v-170.666667h51.2l34.133333 170.666667h85.333333l-40.96-205.013334A128 128 0 0 0 341.333333 640z m-170.666666 42.666667v-85.333334h42.666666a42.666667 42.666667 0 0 1 0 85.333334zM725.333333 85.333333l213.333334 213.333334v170.666666h-85.333334v-135.253333L689.92 170.666667H170.666667v298.666666H85.333333V85.333333z m-85.333333 725.333334a128 128 0 0 1-256 0h85.333333a42.666667 42.666667 0 1 0 42.666667-42.666667 128 128 0 1 1 128-128h-85.333333a42.666667 42.666667 0 1 0-42.666667 42.666667 128 128 0 0 1 128 128z m298.666667 0a128 128 0 0 1-256 0h85.333333a42.666667 42.666667 0 1 0 42.666667-42.666667 128 128 0 1 1 128-128h-85.333334a42.666667 42.666667 0 1 0-42.666666 42.666667 128 128 0 0 1 128 128z" p-id="14753"></path></svg>