<?xml version="1.0" standalone="no"?><!DOCTYPE svg PUBLIC "-//W3C//DTD SVG 1.1//EN" "http://www.w3.org/Graphics/SVG/1.1/DTD/svg11.dtd"><svg t="1743952431344" class="icon" viewBox="0 0 1024 1024" version="1.1" xmlns="http://www.w3.org/2000/svg" p-id="16066" xmlns:xlink="http://www.w3.org/1999/xlink" width="200" height="200"><path d="M725.333333 85.333333H85.333333v384h85.333334V170.666667h519.253333L853.333333 334.08V853.333333h-170.666666v85.333334h256V298.666667zM341.333333 640a128 128 0 0 0-128-128H85.333333v426.666667h85.333334v-170.666667h51.2l34.133333 170.666667h85.333333l-40.96-205.013334A128 128 0 0 0 341.333333 640z m-170.666666 42.666667v-85.333334h42.666666a42.666667 42.666667 0 0 1 0 85.333334z m469.333333-170.666667v426.666667h-85.333333V654.293333l-42.666667 56.746667-42.666667-56.746667V938.666667h-85.333333V512h85.333333l42.666667 56.96L554.666667 512z" p-id="16067"></path></svg>