<?xml version="1.0" standalone="no"?><!DOCTYPE svg PUBLIC "-//W3C//DTD SVG 1.1//EN" "http://www.w3.org/Graphics/SVG/1.1/DTD/svg11.dtd"><svg t="1755683826381" class="icon" viewBox="0 0 1638 1024" version="1.1" xmlns="http://www.w3.org/2000/svg" p-id="40672" xmlns:xlink="http://www.w3.org/1999/xlink" width="319.921875" height="200"><path d="M455.055385 375.469231c-4.983077-4.335385-12.461538-6.507692-22.43077-6.507693h-47.630769v55.661539h47.630769c9.969231 0 17.447692-2.215385 22.43077-6.646154 4.984615-4.430769 7.476923-11.630769 7.476923-21.6 0-9.598462-2.492308-16.567692-7.476923-20.907692z" p-id="40673"></path><path d="M236.307692 147.692308v492.307692h787.692308V147.692308H236.307692z m232.041539 385.207692c-2.403077-6.273846-3.876923-13.749231-4.430769-22.430769-0.553846-8.675385-1.384615-16.984615-2.492308-24.923077-1.48-10.338462-4.616923-17.904615-9.415385-22.707692-4.803077-4.796923-12.646154-7.198462-23.538461-7.198462h-43.476923v77.26h-43.476923v-197.723077h106.615384c8.861538 0 16.843077 1.432308 23.953846 4.292308 7.104615 2.864615 13.196923 6.784615 18.276923 11.769231a51.18 51.18 0 0 1 11.63077 17.307692c2.672308 6.553846 4.015385 13.615385 4.015384 21.184615 0 11.630769-2.449231 21.695385-7.338461 30.184616-4.895385 8.493846-12.876923 14.953846-23.953846 19.384615v0.553846c5.352308 1.48 9.783077 3.74 13.292307 6.784616a37.644615 37.644615 0 0 1 8.584616 10.801538c2.215385 4.153846 3.829231 8.723077 4.846153 13.704615a119.7 119.7 0 0 1 2.076924 14.955385c0.18 3.14 0.367692 6.832308 0.553846 11.076923 0.181538 4.247692 0.506154 8.584615 0.96923 13.015385a86.584615 86.584615 0 0 0 2.215385 12.6c1.012308 3.972308 2.533846 7.338462 4.569231 10.107692h-43.476923z m284.029231-45.930769c-4.810769 10.627692-11.955385 19.804615-21.447693 27.52-9.489231 7.723077-21.256923 13.732308-35.301538 18.030769-14.046154 4.301538-30.307692 6.452308-48.778462 6.452308-14.933846 0-29.418462-1.838462-43.461538-5.504616-14.046154-3.661538-26.447692-9.423077-37.201539-17.270769-10.76-7.84-19.3-17.84-25.623077-29.989231-6.329231-12.144615-9.366154-26.569231-9.110769-43.272307h57.698462c0 9.110769 1.644615 16.833846 4.935384 23.155384 3.286154 6.329231 7.650769 11.455385 13.095385 15.372308 5.44 3.927692 11.827692 6.833846 19.170769 8.732308 7.336923 1.9 14.927692 2.846154 22.775385 2.846153 5.315385 0 11.007692-0.438462 17.08-1.327692 6.073846-0.884615 11.767692-2.590769 17.083077-5.123077 5.315385-2.527692 9.738462-6.010769 13.284615-10.44 3.541538-4.426154 5.315385-10.06 5.315385-16.892307 0-7.335385-2.344615-13.284615-7.023077-17.84-4.684615-4.553846-10.816923-8.353846-18.410769-11.389231s-16.198462-5.693846-25.81077-7.972308a704.172308 704.172308 0 0 1-29.22923-7.590769 258.030769 258.030769 0 0 1-29.607693-9.3c-9.621538-3.666154-18.221538-8.410769-25.812307-14.235385-7.592308-5.818462-13.730769-13.096923-18.41077-21.827692-4.686154-8.730769-7.023077-19.292308-7.023077-31.695385 0-13.913846 2.972308-26.003077 8.92-36.252307 5.943077-10.249231 13.724615-18.790769 23.346154-25.621539 9.613846-6.832308 20.496923-11.892308 32.646154-15.184615 12.146154-3.286154 24.292308-4.933846 36.44-4.933846 14.169231 0 27.769231 1.584615 40.804615 4.744615 13.030769 3.166154 24.609231 8.292308 34.735385 15.373846 10.116923 7.086154 18.153846 16.132308 24.104615 27.141539 5.94 11.007692 8.918462 24.358462 8.918462 40.046153h-57.698462c-0.510769-8.095385-2.218462-14.803077-5.123076-20.118461-2.912308-5.313846-6.776923-9.489231-11.578462-12.526154-4.810769-3.038462-10.315385-5.184615-16.513846-6.453846-6.201538-1.261538-12.969231-1.898462-20.307692-1.898462-4.807692 0-9.618462 0.510769-14.423077 1.52-4.810769 1.013846-9.175385 2.786154-13.096923 5.313847-3.926154 2.532308-7.153846 5.692308-9.678462 9.48923-2.532308 3.795385-3.796923 8.606154-3.796923 14.426154 0 5.313846 1.009231 9.62 3.036923 12.904616 2.021538 3.292308 6.007692 6.329231 11.956923 9.110769 5.944615 2.787692 14.169231 5.569231 24.673846 8.350769 10.5 2.787692 24.227692 6.329231 41.184616 10.630769 5.06 1.012308 12.081538 2.846154 21.06923 5.501539 8.978462 2.658462 17.9 6.9 26.761539 12.718461 8.855385 5.823077 16.510769 13.606154 22.966154 23.344616 6.450769 9.744615 9.676923 22.206154 9.676923 37.38923 0 12.404615-2.406154 23.915385-7.210769 34.544616z m181.92-115.238462h-59.263077v161.169231h-43.476923v-161.169231h-59.261539v-36.553846h162.001539v36.553846z" p-id="40674"></path></svg>