<?xml version="1.0" standalone="no"?><!DOCTYPE svg PUBLIC "-//W3C//DTD SVG 1.1//EN" "http://www.w3.org/Graphics/SVG/1.1/DTD/svg11.dtd"><svg t="1755683797312" class="icon" viewBox="0 0 1024 1024" version="1.1" xmlns="http://www.w3.org/2000/svg" p-id="39631" xmlns:xlink="http://www.w3.org/1999/xlink" width="200" height="200"><path d="M512 640c34.56 0 64-12.8 90.026667-37.973333 25.173333-26.026667 37.973333-55.466667 37.973333-90.026667s-12.8-64-37.973333-90.026667C576 396.8 546.56 384 512 384s-64 12.8-90.026667 37.973333C396.8 448 384 477.44 384 512s12.8 64 37.973333 90.026667c26.026667 25.173333 55.466667 37.973333 90.026667 37.973333m0-554.666667c117.333333 0 217.6 42.666667 300.8 125.866667S938.666667 394.666667 938.666667 512v61.866667c0 42.666667-14.933333 78.933333-42.666667 108.8-29.866667 28.586667-64 42.666667-106.666667 42.666666-51.2 0-93.44-21.333333-125.44-64-42.666667 42.666667-93.013333 64-151.893333 64-58.453333 0-108.8-21.333333-151.04-62.293333C320 620.8 298.666667 570.88 298.666667 512c0-58.453333 21.333333-108.8 62.293333-151.04C403.2 320 453.546667 298.666667 512 298.666667c58.88 0 108.8 21.333333 151.04 62.293333C704 403.2 725.333333 453.546667 725.333333 512v61.866667c0 17.493333 6.826667 32.853333 19.626667 46.08s27.733333 20.053333 44.373333 20.053333c17.92 0 32.853333-6.826667 45.653334-20.053333s18.346667-28.586667 18.346666-46.08V512c0-93.44-32.853333-173.653333-100.266666-241.066667S605.44 170.666667 512 170.666667s-173.653333 32.853333-241.066667 100.266666S170.666667 418.56 170.666667 512s32.853333 173.653333 100.266666 241.066667S418.56 853.333333 512 853.333333h213.333333v85.333334h-213.333333c-117.333333 0-217.6-42.666667-300.8-125.866667S85.333333 629.333333 85.333333 512s42.666667-217.6 125.866667-300.8S394.666667 85.333333 512 85.333333z" fill="#42A5F5" p-id="39632"></path></svg>