<?xml version="1.0" standalone="no"?><!DOCTYPE svg PUBLIC "-//W3C//DTD SVG 1.1//EN" "http://www.w3.org/Graphics/SVG/1.1/DTD/svg11.dtd">
<svg t="1728719559846" class="icon" viewBox="0 0 1024 1024" version="1.1" xmlns="http://www.w3.org/2000/svg" p-id="8646"
     width="200" height="200"><path d="M480.492308 968.999385C226.953846 862.011077 98.461538 742.242462 98.461538 613.12V205.233231L513.969231 59.076923l415.507692 146.156308v407.886769c0 129.122462-128.551385 248.851692-382.030769 355.879385l-33.476923 14.139077zM173.292308 256.905846v356.214154c0 98.363077 110.158769 192.708923 336.836923 288.433231l3.820307 1.614769 3.820308-1.614769c226.678154-95.606154 336.856615-189.971692 336.856616-288.433231V256.905846l-340.676924-119.867077z m303.261538 538.013539V554.299077l-7.030154-2.107077a155.884308 155.884308 0 0 1-104.782769-193.673846 155.904 155.904 0 0 1 193.673846-104.782769 154.801231 154.801231 0 0 1 92.553846 75.145846 154.781538 154.781538 0 0 1 12.268308 118.528 155.195077 155.195077 0 0 1-104.782769 104.763077l-7.030154 2.087384v118.567385h94.523077v74.830769h-94.523077v47.261539z m-43.323077-391.876923a80.738462 80.738462 0 0 0 80.738462 80.738461 80.738462 80.738462 0 0 0 80.738461-80.738461 80.856615 80.856615 0 0 0-80.738461-80.738462 80.738462 80.738462 0 0 0-80.738462 80.758154z" p-id="8647"></path></svg>