<?xml version="1.0" standalone="no"?><!DOCTYPE svg PUBLIC "-//W3C//DTD SVG 1.1//EN" "http://www.w3.org/Graphics/SVG/1.1/DTD/svg11.dtd"><svg t="1780471714248" class="icon" viewBox="0 0 1024 1024" version="1.1" xmlns="http://www.w3.org/2000/svg" p-id="7510" xmlns:xlink="http://www.w3.org/1999/xlink" width="200" height="200"><path d="M854.592 288.64L639.424 73.344A32 32 0 0 0 616.768 64H192a32 32 0 0 0-32 32v832a32 32 0 0 0 32 32h640a32 32 0 0 0 32-32V311.296a32.192 32.192 0 0 0-9.408-22.72z m-64.384 37.376h-188.16v-188.16l188.16 188.16z m1.792 561.984h-560V136h302.016V352c0 23.168 18.752 41.984 41.984 41.984h216v494.016zM544 472a8 8 0 0 0-8-8h-48a8 8 0 0 0-8 8v108.032H371.968a8 8 0 0 0-8 7.936v48c0 4.48 3.648 8.064 8 8.064H480v107.968c0 4.416 3.584 8 8 8h48a8 8 0 0 0 8-8v-108.032h108.032a8 8 0 0 0 7.936-7.936v-48a8 8 0 0 0-7.936-8.064H544V472z" fill="#000000" p-id="7511"></path></svg>