<?xml version="1.0" standalone="no"?><!DOCTYPE svg PUBLIC "-//W3C//DTD SVG 1.1//EN" "http://www.w3.org/Graphics/SVG/1.1/DTD/svg11.dtd"><svg t="1744723511177" class="icon" viewBox="0 0 1024 1024" version="1.1" xmlns="http://www.w3.org/2000/svg" p-id="9241" xmlns:xlink="http://www.w3.org/1999/xlink" width="200" height="200"><path d="M826.5 476.2H193.7C127.1 476.2 73 422.1 73 355.6V243.7C73 177.1 127.1 123 193.7 123h632.8c66.5 0 120.7 54.1 120.7 120.7v111.9c-0.1 66.5-54.2 120.6-120.7 120.6zM193.7 210.8c-18.1 0-32.9 14.7-32.9 32.9v111.9c0 18.1 14.7 32.9 32.9 32.9h632.8c18.1 0 32.9-14.7 32.9-32.9V243.7c0-18.1-14.7-32.9-32.9-32.9H193.7z" fill="#636363" p-id="9242"></path><path d="M200.2 256.4H259v86.4h-58.8zM300.9 256.4h58.8v86.4h-58.8zM712.2 256.4h107.7v86.4H712.2zM200.2 641.6H259V728h-58.8zM300.9 641.6h58.8V728h-58.8z" fill="#636363" p-id="9243"></path><path d="M596.3 773.6H193.7c-18.1 0-32.9-14.7-32.9-32.9V628.8c0-18.1 14.7-32.9 32.9-32.9h402.7v-87.8H193.7C127.1 508.2 73 562.3 73 628.8v111.9c0 66.5 54.1 120.7 120.7 120.7h402.7v-87.8z" fill="#636363" p-id="9244"></path><path d="M931 727.9H631.9c-14.9 0-27-12.1-27-27s12.1-27 27-27H931c14.9 0 27 12.1 27 27s-12.1 27-27 27z" p-id="9245"></path><path d="M931 727.9H631.9c-14.9 0-27-12.1-27-27s12.1-27 27-27H931c14.9 0 27 12.1 27 27s-12.1 27-27 27z" p-id="9246"></path><path d="M781.5 877.4c-14.9 0-27-12.1-27-27V551.3c0-14.9 12.1-27 27-27s27 12.1 27 27v299.1c0 14.9-12.1 27-27 27z" p-id="9247"></path></svg>