<?xml version="1.0" standalone="no"?><!DOCTYPE svg PUBLIC "-//W3C//DTD SVG 1.1//EN" "http://www.w3.org/Graphics/SVG/1.1/DTD/svg11.dtd"><svg t="1756380839172" class="icon" viewBox="0 0 1024 1024" version="1.1" xmlns="http://www.w3.org/2000/svg" p-id="13808" xmlns:xlink="http://www.w3.org/1999/xlink" width="200" height="200"><path d="M242.667 442.495h251.956c17.377 0 32.58-15.203 32.58-32.58s-15.203-32.58-32.58-32.58H242.667c-17.377 0-32.58 15.203-32.58 32.58s13.032 32.58 32.58 32.58z m0 197.654h445.265c17.377 0 32.58-15.203 32.58-32.58s-15.203-32.58-32.58-32.58H242.667c-17.377 0-32.58 15.203-32.58 32.58s13.032 32.58 32.58 32.58zM609.74 392.538c8.687 0 17.377-4.345 23.893-10.861l149.871-149.871c13.032-13.032 13.032-34.751 0-47.786s-34.751-13.032-47.786 0L585.847 333.891c-13.032 13.032-13.032 34.751 0 47.786 6.516 8.687 15.203 10.861 23.893 10.861zM872.557 97.141c-6.516-6.516-15.203-8.687-23.893-8.687-8.687 0-17.377 4.345-23.893 10.861l-15.203 15.203c-13.032 13.032-13.032 34.751 0 47.786 6.516 6.516 15.203 8.687 23.893 8.687s17.377-4.345 23.893-10.861l15.203-15.203c13.032-13.032 13.032-34.751 0-47.786z" fill="#5D5D5D" p-id="13809"></path><path d="M826.945 355.613c-17.377 0-32.58 15.203-32.58 32.58V790.02c0 39.096-30.409 69.505-69.505 69.505H236.154c-39.096 0-69.505-30.409-69.505-69.505V251.357c0-39.096 30.409-69.505 69.505-69.505h267.159c17.377 0 32.58-15.203 32.58-32.58s-15.203-32.58-32.58-32.58H236.154c-76.021-2.171-136.839 58.644-136.839 134.665v540.837c0 76.021 60.818 136.839 136.839 136.839H724.86c76.021 0 136.839-60.818 136.839-136.839V390.367c0-19.548-15.203-34.751-34.751-34.751z" fill="#5D5D5D" p-id="13810"></path></svg>