<?xml version="1.0" standalone="no"?><!DOCTYPE svg PUBLIC "-//W3C//DTD SVG 1.1//EN" "http://www.w3.org/Graphics/SVG/1.1/DTD/svg11.dtd"><svg t="1742716405719" class="icon" viewBox="0 0 1024 1024" version="1.1" xmlns="http://www.w3.org/2000/svg" p-id="5305" xmlns:xlink="http://www.w3.org/1999/xlink" width="200" height="200"><path d="M0.146286 511.122286L0 169.398857C0 44.690286 72.265143 36.571429 141.824 36.571429h626.980571c99.474286 0 117.028571 26.112 117.028572 135.753142v195.803429c0 53.467429-96.768 47.396571-96.768 0v-171.154286c0-50.322286-8.557714-67.949714-71.972572-67.949714H167.497143c-58.660571 0-70.948571 7.606857-70.948572 67.949714v629.76c0 37.229714 21.284571 67.949714 70.948572 67.949715h155.428571c43.300571 0 46.518857 92.452571 0 92.452571-46.592 0-121.051429 0.512-207.872 0.219429-51.2-0.219429-94.939429-21.723429-110.08-66.56-4.169143-12.580571-4.534857-34.011429-4.534857-47.323429C-0.073143 729.965714 0.146286 654.555429 0.146286 511.122286" p-id="5306"></path><path d="M677.376 239.762286c56.539429 0.073143 48.786286 91.721143 0 91.721143H212.699429c-53.174857 0-50.980571-91.721143 0-91.721143h464.676571zM467.821714 443.465143c56.539429 0.073143 48.786286 90.843429 0 90.843428H228.717714c-53.174857 0-50.980571-90.843429 0-90.843428h239.177143z m534.966857 73.289143c-28.306286-27.062857-74.093714-12.068571-102.4 15.067428l-312.539428 299.227429-162.742857-151.04c-28.306286-27.062857-68.900571-37.083429-97.206857-10.020572s-28.306286 55.954286 0 83.090286l208.749714 195.072c13.604571 13.019429 31.963429 20.333714 51.2 20.260572a73.874286 73.874286 0 0 0 56.612571-26.112 62.610286 62.610286 0 0 0 6.070857-5.193143L1002.788571 599.771429c28.306286-27.062857 28.306286-56.027429 0-83.090286z" p-id="5307"></path></svg>