<?xml version="1.0" standalone="no"?><!DOCTYPE svg PUBLIC "-//W3C//DTD SVG 1.1//EN" "http://www.w3.org/Graphics/SVG/1.1/DTD/svg11.dtd">
<svg t="1734602834143" class="icon" viewBox="0 0 1024 1024" version="1.1" xmlns="http://www.w3.org/2000/svg" p-id="6390"
     width="200" height="200"><path d="M869.1 959.2H154.9c-49.5 0-89.8-40.3-89.8-89.8V153.8c0-49.5 40.3-89.8 89.8-89.8h714.2c49.5 0 89.8 40.3 89.8 89.8v715.5c0.1 49.6-40.2 89.9-89.8 89.9zM154.9 110c-24.2 0-43.8 19.7-43.8 43.8v715.5c0 24.2 19.7 43.8 43.8 43.8h714.2c24.2 0 43.8-19.7 43.8-43.8V153.8c0-24.2-19.7-43.8-43.8-43.8H154.9z" fill="#231815" p-id="6391"></path><path d="M673.2 482.5c-29.6 0-56.6-16.4-76.3-46.3-17.7-26.9-27.4-62.2-27.4-99.4s9.7-72.5 27.4-99.4c19.6-29.9 46.7-46.3 76.3-46.3 29.6 0 56.6 16.4 76.3 46.3 17.7 26.9 27.4 62.2 27.4 99.4s-9.7 72.5-27.4 99.4c-19.6 29.9-46.7 46.3-76.3 46.3z m0-245.4c-18.3 0-31.6 16-37.9 25.6-12.6 19.2-19.9 46.2-19.9 74.1s7.2 54.9 19.9 74.1c6.3 9.6 19.6 25.6 37.9 25.6 18.3 0 31.6-16 37.9-25.6 12.6-19.2 19.9-46.2 19.9-74.1s-7.2-54.9-19.9-74.1c-6.3-9.6-19.6-25.6-37.9-25.6z" fill="#231815" p-id="6392"></path><path d="M374.7 472.8h-43.9V277.6c-16.4 17.8-35.4 30.9-56.9 39.2v-47c12.2-4.8 24.9-13.3 38-25.6 13.1-12.3 22.2-26.5 27.3-42.5h35.5v271.1z" fill="#231815" p-id="6393"></path><path d="M350.2 827.5c-29.6 0-56.6-16.4-76.3-46.3-17.7-26.9-27.4-62.2-27.4-99.4s9.7-72.5 27.4-99.4c19.6-29.9 46.7-46.3 76.3-46.3s56.6 16.4 76.3 46.3c17.7 26.9 27.4 62.2 27.4 99.4s-9.7 72.5-27.4 99.4c-19.6 29.8-46.7 46.3-76.3 46.3z m0-245.4c-18.3 0-31.6 16-37.9 25.6-12.6 19.2-19.9 46.2-19.9 74.1 0 27.9 7.2 54.9 19.9 74.1 6.3 9.6 19.6 25.6 37.9 25.6 18.3 0 31.6-16 37.9-25.6 12.6-19.2 19.9-46.2 19.9-74.1 0-27.9-7.2-54.9-19.9-74.1-6.3-9.6-19.6-25.6-37.9-25.6z" fill="#231815" p-id="6394"></path><path d="M713.7 817.7h-43.9V622.6c-16.4 17.8-35.4 30.9-56.9 39.2v-47c12.2-4.8 24.9-13.3 38-25.6 13.1-12.3 22.2-26.5 27.3-42.5h35.5v271z" fill="#231815" p-id="6395"></path></svg>