<?xml version="1.0" standalone="no"?><!DOCTYPE svg PUBLIC "-//W3C//DTD SVG 1.1//EN" "http://www.w3.org/Graphics/SVG/1.1/DTD/svg11.dtd">
<svg t="1742013728939" class="icon" viewBox="0 0 1024 1024" version="1.1" xmlns="http://www.w3.org/2000/svg"
     p-id="18380"
     width="200" height="200"><path d="M128 213.333333a85.333333 85.333333 0 0 1 85.333333-85.333333h597.333334a85.333333 85.333333 0 0 1 85.333333 85.333333v597.333334a85.333333 85.333333 0 0 1-85.333333 85.333333H213.333333a85.333333 85.333333 0 0 1-85.333333-85.333333V213.333333z m85.333333 384v213.333334h597.333334V597.333333h-97.258667l-32.938667 98.837334A42.666667 42.666667 0 0 1 640 725.333333H384a42.666667 42.666667 0 0 1-40.469333-29.162666L310.570667 597.333333H213.333333z m597.333334-85.333333V213.333333H213.333333v298.666667h97.258667a85.333333 85.333333 0 0 1 80.938667 58.346667L414.741333 640h194.496l23.232-69.653333A85.333333 85.333333 0 0 1 713.386667 512H810.666667z" fill="#000000" p-id="18381"></path></svg>