<?xml version="1.0" standalone="no"?><!DOCTYPE svg PUBLIC "-//W3C//DTD SVG 1.1//EN" "http://www.w3.org/Graphics/SVG/1.1/DTD/svg11.dtd"><svg t="1780566542071" class="icon" viewBox="0 0 1024 1024" version="1.1" xmlns="http://www.w3.org/2000/svg" p-id="3520" xmlns:xlink="http://www.w3.org/1999/xlink" width="200" height="200"><path d="M725.333333 938.666667 128 938.666667c-21.333333 0-38.4-17.066667-42.666667-38.4l-85.333333-768c0-12.8 4.266667-25.6 8.533333-34.133333C17.066667 89.6 29.866667 85.333333 42.666667 85.333333l768 0c12.8 0 25.6 4.266667 29.866667 12.8C849.066667 106.666667 853.333333 119.466667 853.333333 132.266667l-85.333333 768C763.733333 921.6 746.666667 938.666667 725.333333 938.666667zM166.4 853.333333l520.533333 0 76.8-682.666667L89.6 170.666667 166.4 853.333333z" p-id="3521"></path><path d="M951.466667 665.6c-38.4 0-98.133333-17.066667-209.066667-76.8-72.533333-38.4-162.133333-93.866667-268.8-162.133333-42.666667-29.866667-72.533333-46.933333-72.533333-46.933333C384 362.666667 379.733333 337.066667 392.533333 315.733333c12.8-21.333333 38.4-25.6 59.733333-12.8 0 0 25.6 17.066667 68.266667 46.933333 38.4 25.6 157.866667 102.4 264.533333 157.866667 85.333333 46.933333 128 59.733333 149.333333 64-12.8-38.4-64-102.4-174.933333-187.733333-17.066667-12.8-21.333333-42.666667-8.533333-59.733333 12.8-17.066667 42.666667-21.333333 59.733333-8.533333 145.066667 110.933333 213.333333 200.533333 213.333333 273.066667 0 25.6-12.8 46.933333-29.866667 59.733333C981.333333 661.333333 968.533333 665.6 951.466667 665.6z" p-id="3522"></path><path d="M426.666667 341.333333m-85.333333 0a2 2 0 1 0 170.666667 0 2 2 0 1 0-170.666667 0Z" p-id="3523"></path><path d="M426.666667 448c-59.733333 0-106.666667-46.933333-106.666667-106.666667S366.933333 234.666667 426.666667 234.666667s106.666667 46.933333 106.666667 106.666667S486.4 448 426.666667 448zM426.666667 277.333333C392.533333 277.333333 362.666667 307.2 362.666667 341.333333S392.533333 405.333333 426.666667 405.333333s64-29.866667 64-64S460.8 277.333333 426.666667 277.333333z" p-id="3524"></path></svg>