<?xml version="1.0" standalone="no"?><!DOCTYPE svg PUBLIC "-//W3C//DTD SVG 1.1//EN" "http://www.w3.org/Graphics/SVG/1.1/DTD/svg11.dtd"><svg t="1750041699367" class="icon" viewBox="0 0 1024 1024" version="1.1" xmlns="http://www.w3.org/2000/svg" p-id="14722" xmlns:xlink="http://www.w3.org/1999/xlink" width="200" height="200"><path d="M938.097778 94.738963c0-20.859259-17.066667-37.925926-37.925926-37.925926H123.828148c-20.859259 0-37.925926 17.066667-37.925926 37.925926v149.428148c0 4.475259 106.723556 562.555259 124.434963 655.928889a82.75437 82.75437 0 0 0 81.161482 67.128889h441.002666a82.678519 82.678519 0 0 0 81.161482-67.128889c52.717037-277.504 124.434963-650.733037 124.434963-655.928889v-149.428148zM355.176296 891.335111h-63.715555a6.750815 6.750815 0 0 1-6.599111-5.499259l-27.117037-142.222222h97.431703v147.721481z m0-223.573333h-111.881481l-30.947556-162.322963h142.829037v162.322963z m-157.278815-238.174815l-28.141037-147.531852h185.419852v147.531852H197.897481z m395.074371 461.748148h-161.943704v-147.721481h161.943704v147.721481z m0-223.573333h-161.943704v-162.322963h161.943704v162.322963z m-161.943704-238.174815v-147.531852h161.943704v147.531852h-161.943704z m308.110222 456.286815a6.750815 6.750815 0 0 1-6.637037 5.461333h-63.677629v-147.721481h97.431703l-27.117037 142.260148z m41.566815-218.074074h-111.881481v-162.322963h142.829037l-30.947556 162.322963z m-111.881481-238.174815v-147.531852h185.381926l-28.103111 147.531852h-157.278815z" p-id="14723"></path></svg>