<?xml version="1.0" standalone="no"?><!DOCTYPE svg PUBLIC "-//W3C//DTD SVG 1.1//EN" "http://www.w3.org/Graphics/SVG/1.1/DTD/svg11.dtd">
<svg t="1720081321527" class="icon" viewBox="0 0 1024 1024" version="1.1" xmlns="http://www.w3.org/2000/svg"
     p-id="10510"
     width="200" height="200"><path d="M959.681624 0 63.998081 0c-63.977104 0-63.977104 64.976874-63.977104 63.977104l0 895.684566c0 63.977104 63.977104 63.977104 63.977104 63.977104l895.684566 0c0 0.998747 63.978127 0 63.978127-63.977104L1023.660774 63.977104C1022.659981 62.977333 1024.660544 0 959.681624 0M959.681624 959.661669 63.998081 959.661669 63.998081 63.977104l895.684566 0L959.682647 959.661669z" fill="#2c2c2c" p-id="10511"></path><path d="M191.953312 447.841771l127.95523 0 0 127.95523-127.95523 0 0-127.95523Z" fill="#2c2c2c" p-id="10512"></path><path d="M447.863772 447.841771l127.954207 0 0 127.95523-127.954207 0 0-127.95523Z" fill="#2c2c2c" p-id="10513"></path><path d="M703.772186 447.841771l127.95523 0 0 127.95523-127.95523 0 0-127.95523Z" fill="#2c2c2c" p-id="10514"></path></svg>