<?xml version="1.0" standalone="no"?><!DOCTYPE svg PUBLIC "-//W3C//DTD SVG 1.1//EN" "http://www.w3.org/Graphics/SVG/1.1/DTD/svg11.dtd"><svg t="1741832388170" class="icon" viewBox="0 0 1024 1024" version="1.1" xmlns="http://www.w3.org/2000/svg" p-id="2893" xmlns:xlink="http://www.w3.org/1999/xlink" width="200" height="200"><path d="M920.868571 219.428571h-179.2l-49.005714-139.702857A35.108571 35.108571 0 0 0 658.285714 55.588571H365.714286a35.108571 35.108571 0 0 0-34.377143 24.137143L283.062857 219.428571H103.131429a37.302857 37.302857 0 0 0-36.571429 36.571429 36.571429 36.571429 0 0 0 36.571429 36.571429h817.737142a36.571429 36.571429 0 0 0 36.571429-36.571429 37.302857 37.302857 0 0 0-36.571429-36.571429zM392.777143 128.731429h239.177143L664.137143 219.428571H360.594286zM512 895.268571H238.445714V391.314286a36.571429 36.571429 0 0 0-36.571428-36.571429 37.302857 37.302857 0 0 0-36.571429 36.571429v577.097143H512a36.571429 36.571429 0 0 0 36.571429-36.571429 36.571429 36.571429 0 0 0-36.571429-36.571429zM857.234286 563.931429V391.314286a36.571429 36.571429 0 0 0-36.571429-36.571429 37.302857 37.302857 0 0 0-36.571428 36.571429v172.617143a36.571429 36.571429 0 0 0 36.571428 36.571428 36.571429 36.571429 0 0 0 36.571429-36.571428zM896 685.348571a36.571429 36.571429 0 0 0-51.931429 0l-81.92 81.92L680.228571 685.348571a35.108571 35.108571 0 0 0-51.2 0 36.571429 36.571429 0 0 0 0 51.931429l81.188572 81.188571-81.188572 81.92a36.571429 36.571429 0 0 0 0 51.931429 37.302857 37.302857 0 0 0 51.2 0l81.92-81.92 81.92 80.457143a34.377143 34.377143 0 0 0 25.6 10.24 36.571429 36.571429 0 0 0 26.331429-10.24 37.302857 37.302857 0 0 0 0-51.931429l-81.92-81.92 81.92-81.188571a37.302857 37.302857 0 0 0 0-50.468572z" p-id="2894"></path><path d="M444.708571 750.445714V448.365714a36.571429 36.571429 0 0 0-36.571428-36.571428 36.571429 36.571429 0 0 0-36.571429 36.571428v302.08a36.571429 36.571429 0 0 0 36.571429 36.571429 36.571429 36.571429 0 0 0 36.571428-36.571429zM650.971429 563.931429V448.365714a36.571429 36.571429 0 0 0-36.571429-36.571428 36.571429 36.571429 0 0 0-36.571429 36.571428v115.565715a36.571429 36.571429 0 0 0 36.571429 36.571428 36.571429 36.571429 0 0 0 36.571429-36.571428z" p-id="2895"></path></svg>