<?xml version="1.0" standalone="no"?><!DOCTYPE svg PUBLIC "-//W3C//DTD SVG 1.1//EN" "http://www.w3.org/Graphics/SVG/1.1/DTD/svg11.dtd">
<svg t="1742019824290" class="icon" viewBox="0 0 1024 1024" version="1.1" xmlns="http://www.w3.org/2000/svg"
     p-id="18572"
     width="200" height="200"><path d="M229.4 452.7l258.5 195.1a39.9 39.9 0 0 0 48.2 0l258.5-195.1c12.2-9.2 5.7-28.7-9.6-28.7H612.9V168a40 40 0 0 0-40-40H451.1a40 40 0 0 0-40 40v256H239c-15.3 0-21.8 19.5-9.6 28.7zM856 656H619.6a4.4 4.4 0 0 0-2.5 0.8l-47.3 35.7a95.8 95.8 0 0 1-115.6 0l-47.3-35.7a4.4 4.4 0 0 0-2.5-0.8H168a40 40 0 0 0-40 40v160a40 40 0 0 0 40 40h688a40 40 0 0 0 40-40V696a40 40 0 0 0-40-40zM688 808a32 32 0 1 1 32-32 32 32 0 0 1-32 32z m120 0a32 32 0 1 1 32-32 32 32 0 0 1-32 32z" p-id="18573"></path></svg>