<?xml version="1.0" standalone="no"?><!DOCTYPE svg PUBLIC "-//W3C//DTD SVG 1.1//EN" "http://www.w3.org/Graphics/SVG/1.1/DTD/svg11.dtd"><svg t="1720506632713" class="icon" viewBox="0 0 1024 1024" version="1.1" xmlns="http://www.w3.org/2000/svg" p-id="4408" xmlns:xlink="http://www.w3.org/1999/xlink" width="200" height="200"><path d="M919.272727 46.545455A34.909091 34.909091 0 0 1 954.181818 81.454545v272.104728a34.909091 34.909091 0 1 1-69.818182 0v-187.810909L613.655273 436.433455a34.792727 34.792727 0 0 1-24.669091 10.216727 34.909091 34.909091 0 0 1-24.692364-59.578182L835.025455 116.363636h-187.81091a34.909091 34.909091 0 1 1 0-69.818181H919.272727zM387.072 564.293818a34.909091 34.909091 0 1 1 49.361455 49.361455L165.725091 884.363636h187.857454a34.909091 34.909091 0 1 1 0 69.818182H81.454545A34.909091 34.909091 0 0 1 46.545455 919.272727V647.168a34.909091 34.909091 0 1 1 69.818181 0v187.810909l270.708364-270.661818z" fill="#2c2c2c" p-id="4409"></path></svg>