<?xml version="1.0" standalone="no"?><!DOCTYPE svg PUBLIC "-//W3C//DTD SVG 1.1//EN" "http://www.w3.org/Graphics/SVG/1.1/DTD/svg11.dtd"><svg t="1750904679248" class="icon" viewBox="0 0 1024 1024" version="1.1" xmlns="http://www.w3.org/2000/svg" p-id="1583" xmlns:xlink="http://www.w3.org/1999/xlink" width="200" height="200"><path d="M914.016 738.016L575.008 171.008q-16.992-28-40-38.016t-46.016-0.512-39.008 38.496L109.984 740.992q-16.992 28-15.008 51.008t21.504 36.512 52.512 13.504l0.992-3.008h684.992q32.992 0 52.512-12.992t21.504-36-15.008-52z m-403.008 0q-18.016 0-30.016-12t-12-28.992 12.512-29.504 30.016-12.512 29.504 12.512 12 29.504-12 28.992-30.016 12z m52-172q0 16.992-15.488 29.504t-34.016 12.512-34.016-12.512-15.488-28.512v-202.016q0-16.992 15.488-29.504t34.016-12.512 34.016 12.992 15.488 28.992v200.992z" fill="" p-id="1584"></path></svg>