<?xml version="1.0" standalone="no"?><!DOCTYPE svg PUBLIC "-//W3C//DTD SVG 1.1//EN" "http://www.w3.org/Graphics/SVG/1.1/DTD/svg11.dtd"><svg t="1744875763118" class="icon" viewBox="0 0 1024 1024" version="1.1" xmlns="http://www.w3.org/2000/svg" p-id="928" xmlns:xlink="http://www.w3.org/1999/xlink" width="200" height="200"><path d="M512 682.666667c-104.675556 0-199.509333-58.709333-284.330667-176.128C314.595556 396.401778 409.315556 341.333333 512 341.333333c104.675556 0 199.566222 56.888889 284.444444 170.666667-84.878222 113.777778-179.768889 170.666667-284.444444 170.666667z m0-56.888889a113.777778 113.777778 0 1 0 0-227.555556 113.777778 113.777778 0 0 0 0 227.555556z m0-56.888889a56.888889 56.888889 0 1 1 0-113.777778 56.888889 56.888889 0 0 1 0 113.777778z" fill="#5A6677" p-id="929"></path></svg>