<?xml version="1.0" standalone="no"?><!DOCTYPE svg PUBLIC "-//W3C//DTD SVG 1.1//EN" "http://www.w3.org/Graphics/SVG/1.1/DTD/svg11.dtd"><svg t="1743325351579" class="icon" viewBox="0 0 1024 1024" version="1.1" xmlns="http://www.w3.org/2000/svg" p-id="12612" xmlns:xlink="http://www.w3.org/1999/xlink" width="200" height="200"><path d="M513 121.3l329.8 194.5v390.8L513 901 183.2 706.5V315.7L513 121.3m0-58.1l-379.8 224v447.9L513 959l379.8-223.9V287.2L513 63.2z" fill="#999999" p-id="12613"></path><path d="M512 371.2c37.7 0 73.1 14.7 99.7 41.3 26.6 26.6 41.3 62 41.3 99.7s-14.7 73.1-41.3 99.7c-26.6 26.6-62 41.3-99.7 41.3s-73.1-14.7-99.7-41.3c-26.6-26.6-41.3-62-41.3-99.7s14.7-73.1 41.3-99.7c26.6-26.6 62-41.3 99.7-41.3m0-50c-105.5 0-191 85.5-191 191s85.5 191 191 191 191-85.5 191-191-85.5-191-191-191z" fill="#999999" p-id="12614"></path><path d="M368.565 619.602L615.06 373.107l35.355 35.355L403.92 654.957z" fill="#999999" p-id="12615"></path></svg>