<?xml version="1.0" standalone="no"?><!DOCTYPE svg PUBLIC "-//W3C//DTD SVG 1.1//EN" "http://www.w3.org/Graphics/SVG/1.1/DTD/svg11.dtd"><svg t="1751595477770" class="icon" viewBox="0 0 1024 1024" version="1.1" xmlns="http://www.w3.org/2000/svg" p-id="8757" xmlns:xlink="http://www.w3.org/1999/xlink" width="200" height="200"><path d="M224 390.4a38.4 38.4 0 0 1-38.4-38.4v-57.728h-57.728a38.4 38.4 0 0 1 0-76.8H185.6V160a38.4 38.4 0 0 1 76.8 0v57.472H320a38.4 38.4 0 0 1 0 76.8h-57.6V352a38.4 38.4 0 0 1-38.4 38.4z m95.872 339.2H262.4v-57.6a38.4 38.4 0 1 0-76.8 0v57.6H128a38.4 38.4 0 1 0 0 76.8h57.6v57.6a38.4 38.4 0 1 0 76.8 0v-57.6H320a38.4 38.4 0 1 0 0-76.8z m74.88-237.376l-53.952 19.84 53.952 19.84a271.744 271.744 0 0 1 161.472 161.472l19.84 53.952 19.84-53.952a271.808 271.808 0 0 1 161.472-161.536l53.952-19.84-53.952-19.776A271.808 271.808 0 0 1 595.84 330.752L576 276.8l-19.776 53.952A271.744 271.744 0 0 1 394.752 492.16z m-26.496 111.744L217.6 548.672a39.04 39.04 0 0 1 0-73.216l150.656-55.296a194.944 194.944 0 0 0 115.84-115.84L539.52 153.6a39.04 39.04 0 0 1 73.216 0l55.296 150.656c19.712 53.76 62.08 96.192 115.84 115.84l150.656 55.36a39.04 39.04 0 0 1 0 73.216l-150.656 55.296c-53.76 19.712-96.128 62.08-115.84 115.84l-55.296 150.656a39.04 39.04 0 0 1-73.216 0l-55.296-150.656a195.008 195.008 0 0 0-115.84-115.84z" p-id="8758"></path></svg>