<?xml version="1.0" standalone="no"?><!DOCTYPE svg PUBLIC "-//W3C//DTD SVG 1.1//EN" "http://www.w3.org/Graphics/SVG/1.1/DTD/svg11.dtd"><svg t="1708594451596" class="icon" viewBox="0 0 1024 1024" version="1.1" xmlns="http://www.w3.org/2000/svg" p-id="8162" xmlns:xlink="http://www.w3.org/1999/xlink" width="200" height="200"><path d="M525.312 247.808h-2.048c-2.048 13.824-6.144 26.624-12.288 38.912L453.632 429.568h137.728l-55.808-142.336c-7.168-16.896-10.24-30.208-10.24-39.424z" fill="#333333" p-id="8163"></path><path d="M887.808 98.304c0-20.48-18.432-37.376-41.472-37.376H177.152c-23.04 0-41.472 16.896-41.472 37.376V660.48c0 20.48 14.336 48.128 31.744 60.928l312.32 231.424c18.944 13.312 45.056 13.312 64 0.512l312.32-227.328c17.92-12.8 32.256-40.448 32.256-60.416l-0.512-567.296z m-215.552 492.032l-44.544-99.84H420.352L373.76 590.336H293.376L487.424 174.08h73.728l194.048 416.256h-82.944z" fill="#333333" p-id="8164"></path></svg>