<?xml version="1.0" standalone="no"?><!DOCTYPE svg PUBLIC "-//W3C//DTD SVG 1.1//EN" "http://www.w3.org/Graphics/SVG/1.1/DTD/svg11.dtd"><svg t="1737449657584" class="icon" viewBox="0 0 1024 1024" version="1.1" xmlns="http://www.w3.org/2000/svg" p-id="4266" xmlns:xlink="http://www.w3.org/1999/xlink" width="200" height="200"><path d="M914.048 44.512l0.384 623.872c0 24.48-15.456 57.12-34.496 72.48l-334.528 271.36a56.736 56.736 0 0 1-68.768-0.384L142.048 734.976c-18.848-15.68-34.272-48.448-34.272-72.928V44.416A44.672 44.672 0 0 1 152.288-0.032h717.248a44.672 44.672 0 0 1 44.512 44.512zM357.76 285.856c-24.256 0-37.344-0.48-55.776-1.952 1.952 11.648 2.432 22.784 2.432 38.304v39.296c0 15.04-0.48 25.696-2.432 36.864h53.344v-64.512h315.296v64.512h53.344a278.656 278.656 0 0 1-2.432-36.832v-39.328c0-16 0.48-26.208 1.952-38.304-18.432 1.44-30.56 1.952-55.296 1.952h-124.16a325.984 325.984 0 0 0-27.968-55.2l0.8 1.344-55.296 19.392c11.168 16.48 14.56 22.784 20.384 34.432h-124.16z m184.32 255.616h128.064c22.304 0 43.648 0.96 59.168 2.912v-54.816c-16.32 1.856-35.232 2.944-54.4 2.944l-5.024-0.032h0.256-128.064v-3.392c35.424-20.384 63.072-40.736 99.424-72.288 7.264-6.304 10.656-9.216 19.392-16.48l-25.696-32.512a232.48 232.48 0 0 1-37.696 1.92h0.32-177.056c-22.304 0-36.384-0.48-50.432-2.432v52.864c15.04-1.952 28.608-2.912 50.432-2.912h151.808a266.784 266.784 0 0 1-58.624 40.512l-1.504 0.704h-25.216c1.44 10.176 1.952 20.864 1.952 31.04v2.912h-133.376c-22.304 0-41.728-0.96-59.168-2.912v54.816a508.8 508.8 0 0 1 55.264-2.912h4.096-0.224 133.376v78.592c0 10.176-5.344 13.088-23.776 13.088a545.824 545.824 0 0 1-69.504-6.208l3.04 0.384c10.656 26.208 12.608 32.512 15.52 51.424a707.52 707.52 0 0 0 58.208 2.912c25.696 0 39.296-1.952 49.472-8.256 13.568-7.776 19.872-22.304 19.872-46.56v-85.376z" p-id="4267"></path></svg>