<?xml version="1.0" standalone="no"?><!DOCTYPE svg PUBLIC "-//W3C//DTD SVG 1.1//EN" "http://www.w3.org/Graphics/SVG/1.1/DTD/svg11.dtd"><svg t="1760345182796" class="icon" viewBox="0 0 1024 1024" version="1.1" xmlns="http://www.w3.org/2000/svg" p-id="12243" xmlns:xlink="http://www.w3.org/1999/xlink" width="200" height="200"><path d="M191.454757 639.837922l149.11477-397.639386h71.394344l149.11477 397.639386h-68.683166l-35.24531-101.217298H296.286959l-36.149035 101.217298h-68.683167z m125.617897-159.055754h118.38809l-57.838456-164.47811h-3.614904l-56.93473 164.47811z m356.971722 168.093013q-46.09002 0-73.201796-24.852461T573.730804 558.502593q0-39.763939 31.178543-65.520126T684.889087 467.22628q20.785695 0 40.667664 3.614903t34.341584 9.940985v-10.844711q0-26.20805-18.526381-42.475116T692.118894 411.195275q-20.785695 0-37.956487 8.585396T624.339453 444.633133l-42.475116-31.630406q21.689421-26.20805 49.25306-38.860213t61.905223-12.652162q62.357086 0 93.083765 29.371091t30.72668 88.113273v160.863206h-56.93473v-33.437857h-3.614904q-12.652162 20.785695-34.341583 31.630406t-47.897472 10.84471z m10.844711-48.801197q31.630406 0 53.77169-21.689421t22.141284-50.60865q-12.652162-7.229807-30.274817-11.296573T695.733797 512.412573q-28.919228 0-45.186294 12.652163t-16.267065 33.437857q0 18.074518 14.459614 29.822954t36.149035 11.748437z" p-id="12244"></path></svg>