<?xml version="1.0" standalone="no"?><!DOCTYPE svg PUBLIC "-//W3C//DTD SVG 1.1//EN" "http://www.w3.org/Graphics/SVG/1.1/DTD/svg11.dtd">
<svg t="1742038774586" class="icon" viewBox="0 0 1026 1024" version="1.1" xmlns="http://www.w3.org/2000/svg"
     p-id="20484"
     width="200.390625" height="200"><path d="M1025.125612 715.070651c0-2.148896-0.409313-4.195463-1.125612-6.139702L1024 0 0 0l0 1023.897672 1023.897672 0L1023.897672 721.210353C1024.716299 719.266114 1025.125612 717.219546 1025.125612 715.070651zM989.822324 34.177676l0 663.804137L827.017887 697.981813l-78.997502-93.732787c-8.083941-9.618867-23.433197-7.469971-28.549615 3.990806l-91.890876 202.507845L492.097132 471.52913c-5.832717-14.530629-26.503048-14.223643-31.926451 0.511642L313.738783 874.805236 170.683721 704.223843c-3.274508-3.888478-7.981613-6.139702-13.098031-6.139702L34.177676 698.084141 34.177676 34.177676 989.822324 34.177676zM34.177676 989.822324 34.177676 732.159488l115.52873 0 156.97172 187.158589c8.493255 10.02818 24.661137 7.265314 29.163585-5.116419l141.213151-388.540821L610.593385 860.581593c5.525732 13.916658 25.172779 14.4283 31.41481 0.716299l97.31428-214.377935 66.718097 79.09983c3.274508 3.888478 7.981613 6.037374 12.995703 6.037374l170.78605 0 0 257.662836L34.177676 989.719996z" p-id="20485"></path><path d="M290.100929 204.759069l443.695813 0c9.41421 0 17.088838-7.674628 17.088838-17.088838s-7.674628-17.088838-17.088838-17.088838L290.100929 170.581393c-9.41421 0-17.088838 7.674628-17.088838 17.088838S280.686719 204.759069 290.100929 204.759069z" p-id="20486"></path><path d="M290.100929 341.265114l443.695813 0c9.41421 0 17.088838-7.674628 17.088838-17.088838 0-9.41421-7.674628-17.088838-17.088838-17.088838L290.100929 307.087439c-9.41421 0-17.088838 7.674628-17.088838 17.088838C273.012092 333.692815 280.686719 341.265114 290.100929 341.265114z" p-id="20487"></path></svg>