<?xml version="1.0" standalone="no"?><!DOCTYPE svg PUBLIC "-//W3C//DTD SVG 1.1//EN" "http://www.w3.org/Graphics/SVG/1.1/DTD/svg11.dtd"><svg t="1750990141100" class="icon" viewBox="0 0 1267 1024" version="1.1" xmlns="http://www.w3.org/2000/svg" p-id="14143" xmlns:xlink="http://www.w3.org/1999/xlink" width="247.4609375" height="200"><path d="M365.714286 609.52381m24.380952 0l438.857143 0q24.380952 0 24.380952 24.380952l0 0q0 24.380952-24.380952 24.380952l-438.857143 0q-24.380952 0-24.380952-24.380952l0 0q0-24.380952 24.380952-24.380952Z" p-id="14144"></path><path d="M652.464469 491.884174m17.239937-17.239936l0 0q17.239937-17.239937 34.479873 0l137.919495 137.919494q17.239937 17.239937 0 34.479873l0 0q-17.239937 17.239937-34.479874 0l-137.919494-137.919494q-17.239937-17.239937 0-34.479873Z" p-id="14145"></path><path d="M652.285436 775.900969m17.239937-17.239937l137.919494-137.919494q17.239937-17.239937 34.479874 0l0 0q17.239937 17.239937 0 34.479873l-137.919494 137.919494q-17.239937 17.239937-34.479874 0l0 0q-17.239937-17.239937 0-34.479873Z" p-id="14146"></path><path d="M1170.285714 243.809524H845.287619l-133.607619-200.411429A97.52381 97.52381 0 0 0 630.491429 0H97.52381a97.52381 97.52381 0 0 0-97.52381 97.52381v828.95238a97.52381 97.52381 0 0 0 97.52381 97.52381h1072.761904a97.52381 97.52381 0 0 0 97.52381-97.52381V341.333333a97.52381 97.52381 0 0 0-97.52381-97.523809zM48.761905 97.52381a48.761905 48.761905 0 0 1 48.761905-48.761905h532.967619a48.761905 48.761905 0 0 1 40.472381 21.699047L786.529524 243.809524H48.761905z m1170.285714 828.95238a48.761905 48.761905 0 0 1-48.761905 48.761905H97.52381a48.761905 48.761905 0 0 1-48.761905-48.761905V292.571429h1121.523809a48.761905 48.761905 0 0 1 48.761905 48.761904z" p-id="14147"></path></svg>