<?xml version="1.0" standalone="no"?><!DOCTYPE svg PUBLIC "-//W3C//DTD SVG 1.1//EN" "http://www.w3.org/Graphics/SVG/1.1/DTD/svg11.dtd"><svg t="1732785288953" class="icon" viewBox="0 0 1024 1024" version="1.1" xmlns="http://www.w3.org/2000/svg" p-id="5954" xmlns:xlink="http://www.w3.org/1999/xlink" width="200" height="200"><path d="M170.666667 554.666667c25.6 0 42.666667-17.066667 42.666666-42.666667V128h597.333334V512c0 25.6 17.066667 42.666667 42.666666 42.666667s42.666667-17.066667 42.666667-42.666667V128c0-42.666667-42.666667-85.333333-85.333333-85.333333h-597.333334c-42.666667 0-85.333333 42.666667-85.333333 85.333333V512c0 25.6 17.066667 42.666667 42.666667 42.666667z" fill="#333333" p-id="5955"></path><path d="M657.066667 256c0-25.6-17.066667-42.666667-42.666667-42.666667H315.733333c-17.066667 0-34.133333 17.066667-34.133333 42.666667s17.066667 42.666667 34.133333 42.666667h298.666667c25.6 0 42.666667-17.066667 42.666667-42.666667zM315.733333 426.666667c-17.066667 0-34.133333 17.066667-34.133333 42.666666s17.066667 42.666667 34.133333 42.666667h213.333334c25.6 0 42.666667-17.066667 42.666666-42.666667S554.666667 426.666667 529.066667 426.666667H315.733333zM358.4 750.933333c-34.133333 0-51.2 17.066667-51.2 42.666667 0 17.066667 0 25.6 8.533333 25.6 8.533333 17.066667 25.6 17.066667 42.666667 17.066667 34.133333 0 42.666667-17.066667 42.666667-42.666667s-17.066667-42.666667-42.666667-42.666667z" fill="#333333" p-id="5956"></path><path d="M853.333333 597.333333H170.666667c-42.666667 0-85.333333 42.666667-85.333334 85.333334v170.666666c0 42.666667 42.666667 85.333333 85.333334 85.333334h682.666666c42.666667 0 85.333333-42.666667 85.333334-85.333334V682.666667c0-42.666667-42.666667-85.333333-85.333334-85.333334z m-426.666666 256c-17.066667 17.066667-42.666667 17.066667-68.266667 17.066667-34.133333 0-59.733333-8.533333-76.8-17.066667-17.066667-17.066667-25.6-34.133333-25.6-59.733333 0-25.6 8.533333-42.666667 25.6-51.2 17.066667-17.066667 42.666667-25.6 76.8-25.6s59.733333 8.533333 76.8 25.6c17.066667 17.066667 25.6 34.133333 25.6 51.2-8.533333 25.6-17.066667 42.666667-34.133333 59.733333z m110.933333 17.066667h-42.666667V665.6h51.2v204.8z m230.4 0H640c-25.6-8.533333-42.666667-17.066667-51.2-34.133333-8.533333-17.066667-8.533333-25.6-8.533333-42.666667 0-25.6 8.533333-42.666667 34.133333-59.733333 17.066667-8.533333 34.133333-17.066667 59.733333-17.066667h51.2v-51.2H768v204.8z" fill="#333333" p-id="5957"></path><path d="M640 768s-8.533333 17.066667-8.533333 25.6c0 17.066667 8.533333 25.6 17.066666 34.133333 8.533333 8.533333 17.066667 8.533333 34.133334 8.533334h34.133333v-85.333334H682.666667c-17.066667 0-34.133333 8.533333-42.666667 17.066667z" fill="#333333" p-id="5958"></path></svg>