<?xml version="1.0" standalone="no"?><!DOCTYPE svg PUBLIC "-//W3C//DTD SVG 1.1//EN" "http://www.w3.org/Graphics/SVG/1.1/DTD/svg11.dtd"><svg t="1779688650445" class="icon" viewBox="0 0 1024 1024" version="1.1" xmlns="http://www.w3.org/2000/svg" p-id="9798" xmlns:xlink="http://www.w3.org/1999/xlink" width="200" height="200"><path d="M524.8 364.8c6.4 6.4 19.2 6.4 32 0l32-32c6.4-6.4 6.4-19.2 0-32l-198.4-192c-19.2-19.2-44.8-19.2-57.6 0L134.4 307.2c-6.4 6.4-6.4 19.2 0 25.6l32 32c6.4 6.4 19.2 6.4 32 0L320 243.2v409.6c0 166.4 134.4 300.8 300.8 300.8h256c12.8 0 25.6-12.8 25.6-25.6v-44.8c0-12.8-12.8-25.6-25.6-25.6h-256c-128 0-211.2-128-211.2-211.2V243.2l115.2 121.6z" p-id="9799"></path></svg>