<?xml version="1.0" standalone="no"?><!DOCTYPE svg PUBLIC "-//W3C//DTD SVG 1.1//EN" "http://www.w3.org/Graphics/SVG/1.1/DTD/svg11.dtd">
<svg t="1708503854564" class="icon" viewBox="0 0 1024 1024" version="1.1" xmlns="http://www.w3.org/2000/svg" p-id="4240"
     width="200" height="200"><path d="M779.036444 301.511111L719.985778 242.346667a19.342222 19.342222 0 0 1 0-27.306667l88.519111-88.519111a38.570667 38.570667 0 0 1 54.613333 0l31.800889 31.744a38.570667 38.570667 0 0 1 0 54.613333L806.343111 301.511111a19.342222 19.342222 0 0 1-27.306667 0zM165.034667 896.682667l-40.163556-40.163556a32.597333 32.597333 0 0 1 0-46.193778l526.791111-526.791111a16.327111 16.327111 0 0 1 23.096889 0l63.260445 63.317334a16.327111 16.327111 0 0 1 0 23.04l-526.791112 526.791111a32.597333 32.597333 0 0 1-46.193777 0zM442.709333 220.728889v-30.549333c-42.154667 0-76.344889-34.133333-76.344889-76.344889h-30.492444c0 42.154667-34.133333 76.344889-76.344889 76.344889v30.549333c42.154667 0 76.344889 34.133333 76.344889 76.344889h30.492444c0-42.211556 34.304-76.344889 76.344889-76.344889z m465.066667 572.586667v-45.795556c-63.260444 0-114.517333-51.256889-114.517333-114.517333h-45.795556c0 63.260444-51.256889 114.517333-114.517333 114.517333v45.795556c63.260444 0 114.517333 51.2 114.517333 114.517333h45.795556c0-63.260444 51.2-114.517333 114.517333-114.517333zM205.368889 490.837333V475.591111a38.115556 38.115556 0 0 1-38.115556-38.172444H151.893333c0 21.048889-17.066667 38.115556-38.172444 38.115555v15.303111c21.048889 0 38.172444 17.066667 38.172444 38.115556h15.246223c0-21.048889 17.066667-38.115556 38.172444-38.115556z" fill="#333333" p-id="4241"></path></svg>