<?xml version="1.0" standalone="no"?><!DOCTYPE svg PUBLIC "-//W3C//DTD SVG 1.1//EN" "http://www.w3.org/Graphics/SVG/1.1/DTD/svg11.dtd">
<svg t="1741836728318" class="icon" viewBox="0 0 1024 1024" version="1.1" xmlns="http://www.w3.org/2000/svg" p-id="3883"
     width="200" height="200"><path d="M561.152 1016.32c-27.794286 5.12-56.466286 7.68-85.723429 7.68C212.845714 1024 0 812.470857 0 551.497143c0-103.643429 33.645714-199.606857 90.697143-277.504-0.731429-3.657143-77.604571-41.691429-88.137143-50.102857C161.645714 126.098286 244.150857 75.849143 250.294857 73.142857c2.194286 3.145143 4.169143 99.913143 6.144 290.230857-2.194286 0.950857-97.645714-54.564571-99.84-55.661714A396.288 396.288 0 0 0 73.142857 551.497143c0 220.891429 180.077714 399.798857 402.285714 399.798857 23.259429 0 46.299429-1.974857 68.827429-5.851429 18.139429-1.243429 30.72 5.851429 37.741714 21.284572a40.594286 40.594286 0 0 1-0.804571 32.694857 42.203429 42.203429 0 0 1-20.041143 16.896zM462.701714 7.68C490.496 2.56 519.168 0 548.425143 0c262.582857 0 475.428571 211.529143 475.428571 472.502857 0 103.643429-33.645714 199.606857-90.697143 277.504 0.731429 3.657143 77.604571 41.691429 88.137143 50.102857-159.012571 97.792-241.590857 148.041143-247.734857 150.747429-2.194286-3.145143-4.169143-99.913143-6.144-290.230857 2.194286-0.950857 97.645714 54.564571 99.84 55.661714a396.288 396.288 0 0 0 83.456-243.785143c0-220.891429-180.077714-399.798857-402.285714-399.798857-23.259429 0-46.299429 1.974857-68.827429 5.851429-18.139429 1.243429-30.72-5.851429-37.668571-21.284572a40.594286 40.594286 0 0 1 0.731428-32.694857 42.203429 42.203429 0 0 1 20.041143-16.896zM365.714286 358.985143c0-23.332571 25.307429-37.595429 44.909714-25.380572l245.76 153.014858a29.988571 29.988571 0 0 1 0 50.761142L410.697143 690.468571A29.476571 29.476571 0 0 1 365.714286 665.014857V358.985143z" fill="#000000" fill-opacity=".65" p-id="3884"></path></svg>