<?xml version="1.0" standalone="no"?><!DOCTYPE svg PUBLIC "-//W3C//DTD SVG 1.1//EN" "http://www.w3.org/Graphics/SVG/1.1/DTD/svg11.dtd">
<svg t="1715933311131" class="icon" viewBox="0 0 1024 1024" version="1.1" xmlns="http://www.w3.org/2000/svg" p-id="8577"
     width="200" height="200"><path d="M261.12 350.677333l109.141333-136.362666a32 32 0 0 0-50.005333-39.978667L155.733333 379.989333a21.333333 21.333333 0 0 0 16.64 34.688h672.853334a32 32 0 0 0 0-64H261.12zM767.104 670.677333l-109.098667 136.32a32 32 0 0 0 50.005334 39.978667l164.522666-205.653333a21.333333 21.333333 0 0 0-16.64-34.688H183.04a32 32 0 0 0 0 64h584.064z" fill="#14132A" p-id="8578"></path></svg>