<?xml version="1.0" standalone="no"?><!DOCTYPE svg PUBLIC "-//W3C//DTD SVG 1.1//EN" "http://www.w3.org/Graphics/SVG/1.1/DTD/svg11.dtd"><svg t="1779957357664" class="icon" viewBox="0 0 1024 1024" version="1.1" xmlns="http://www.w3.org/2000/svg" p-id="5633" xmlns:xlink="http://www.w3.org/1999/xlink" width="200" height="200"><path d="M992 384h-51.2c-6.4-32-19.2-57.6-32-83.2l38.4-38.4c6.4-6.4 6.4-12.8 6.4-25.6 0-6.4-6.4-19.2-6.4-25.6l-134.4-134.4c-12.8-12.8-32-12.8-44.8 0l-38.4 38.4c-25.6-12.8-57.6-25.6-83.2-32V32C640 12.8 627.2 0 608 0h-192c-19.2 0-32 12.8-32 32v51.2c-32 6.4-57.6 19.2-83.2 32l-38.4-32c-12.8-12.8-32-12.8-44.8 0L83.2 217.6c-12.8 12.8-12.8 32 0 44.8l38.4 38.4c-19.2 25.6-32 51.2-38.4 83.2H32c-19.2 0-32 12.8-32 32v192c0 19.2 12.8 32 32 32h51.2c6.4 32 19.2 57.6 32 83.2l-38.4 38.4c-12.8 12.8-12.8 32 0 44.8l134.4 134.4c6.4 6.4 12.8 6.4 25.6 6.4s19.2-6.4 25.6-6.4l38.4-38.4c25.6 12.8 57.6 25.6 83.2 32v51.2c0 25.6 12.8 38.4 32 38.4h192c19.2 0 32-12.8 32-32v-51.2c32-6.4 57.6-19.2 83.2-32l38.4 38.4c12.8 12.8 32 12.8 44.8 0l134.4-134.4c12.8-12.8 12.8-32 0-44.8l-38.4-38.4c12.8-25.6 25.6-57.6 32-83.2h51.2c19.2 0 32-12.8 32-32v-192c6.4-25.6-6.4-38.4-25.6-38.4zM960 576h-44.8c-12.8 0-25.6 12.8-32 25.6-6.4 38.4-25.6 76.8-44.8 115.2-6.4 12.8-6.4 32 6.4 38.4l32 32-89.6 89.6-32-32c-12.8-12.8-25.6-12.8-38.4-6.4-32 19.2-70.4 38.4-115.2 44.8-12.8 6.4-25.6 19.2-25.6 32v44.8H448v-44.8c0-12.8-12.8-25.6-25.6-32-38.4-6.4-76.8-25.6-115.2-44.8-6.4-6.4-25.6-6.4-38.4 6.4l-32 32-89.6-89.6 32-32c12.8-12.8 12.8-32 6.4-44.8-19.2-32-38.4-70.4-44.8-108.8-6.4-12.8-19.2-25.6-32-25.6H64V448h44.8c12.8 0 25.6-12.8 32-25.6 6.4-38.4 25.6-76.8 44.8-108.8 6.4-12.8 6.4-32-6.4-44.8l-32-25.6 89.6-89.6 32 32c12.8 6.4 32 6.4 44.8 0 32-19.2 70.4-38.4 108.8-44.8 12.8-6.4 25.6-19.2 25.6-32V64h128v44.8c0 12.8 12.8 25.6 25.6 32 38.4 6.4 76.8 25.6 115.2 44.8 6.4 6.4 25.6 6.4 38.4-6.4l32-32 89.6 89.6-32 32c-12.8 12.8-12.8 32-6.4 44.8 19.2 32 38.4 70.4 44.8 115.2 6.4 6.4 19.2 19.2 32 19.2h44.8v128z" p-id="5634"></path><path d="M512 256C371.2 256 256 371.2 256 512s115.2 256 256 256 256-115.2 256-256-115.2-256-256-256z m0 448c-108.8 0-192-83.2-192-192s83.2-192 192-192 192 83.2 192 192-83.2 192-192 192z" p-id="5635"></path></svg>