<?xml version="1.0" standalone="no"?><!DOCTYPE svg PUBLIC "-//W3C//DTD SVG 1.1//EN" "http://www.w3.org/Graphics/SVG/1.1/DTD/svg11.dtd"><svg t="1742633586194" class="icon" viewBox="0 0 1024 1024" version="1.1" xmlns="http://www.w3.org/2000/svg" p-id="2881" xmlns:xlink="http://www.w3.org/1999/xlink" width="200" height="200"><path d="M581.504 281.984l-118.016-131.968H83.2V812.8h868.48V281.984H581.504z m-141.44-80l70.912 80H135.68v-80h304.384zM899.072 760.32H135.68V334.592h763.392V760.32z m0 0" p-id="2882"></path><path d="M491.136 786.432h52.608v205.696h-52.608z" p-id="2883"></path><path d="M83.2 912.256h868.48v52.608H83.2z" p-id="2884"></path><path d="M277.888 881.408h458.368v114.304H277.888z" p-id="2885"></path><path d="M241.536 583.68c13.952 11.52 29.696 17.28 47.488 17.28 9.984 0 17.536-1.664 22.656-5.248s7.552-7.936 7.552-13.312c0-4.736-2.048-9.088-6.016-13.312-3.968-4.224-14.592-9.856-31.744-17.024-27.008-11.392-40.576-28.16-40.576-50.048 0-16.128 6.144-28.544 18.304-37.504 12.288-8.832 28.416-13.312 48.64-13.312 16.896 0 31.104 2.176 42.496 6.528v34.56c-11.648-7.936-25.216-11.776-40.704-11.776-9.088 0-16.384 1.664-21.76 4.992-5.376 3.328-8.192 7.808-8.192 13.312 0 4.48 1.792 8.576 5.632 12.288 3.712 3.712 12.928 8.832 27.52 15.232 17.152 7.424 29.056 15.104 35.456 23.296s9.6 17.92 9.6 29.184c0 16.64-5.888 29.184-17.664 37.888-11.776 8.704-28.416 13.056-50.176 13.056-19.84 0-35.968-3.2-48.64-9.6V583.68zM485.504 484.48h-61.696v44.416h56.832v30.08h-56.832V627.2h-36.864V454.4h98.56v30.08zM636.672 484.48h-49.28V627.2H550.4V484.48h-49.152V454.4h135.424v30.08zM697.216 567.04V627.2h-36.864V454.4h59.52c43.008 0 64.512 18.176 64.512 54.656 0 17.664-6.528 31.872-19.456 42.624-12.928 10.624-29.184 15.744-48.768 15.36h-18.944z m0-84.096v55.808h16c21.632 0 32.512-9.472 32.512-28.288 0-18.432-10.752-27.52-32.128-27.52h-16.384z" p-id="2886"></path></svg>