<?xml version="1.0" standalone="no"?><!DOCTYPE svg PUBLIC "-//W3C//DTD SVG 1.1//EN" "http://www.w3.org/Graphics/SVG/1.1/DTD/svg11.dtd"><svg t="1749624631844" class="icon" viewBox="0 0 1024 1024" version="1.1" xmlns="http://www.w3.org/2000/svg" p-id="5871" xmlns:xlink="http://www.w3.org/1999/xlink" width="200" height="200"><path d="M606.592 86.357333a42.666667 42.666667 0 0 1 32.426667 50.901334l-170.666667 768a42.666667 42.666667 0 1 1-83.328-18.517334l170.666667-768a42.666667 42.666667 0 0 1 50.901333-32.384zM328.832 268.501333a42.666667 42.666667 0 0 1 0 60.330667L145.664 512l183.168 183.168a42.666667 42.666667 0 1 1-60.330667 60.330667l-213.333333-213.333334a42.666667 42.666667 0 0 1 0-60.330666l213.333333-213.333334a42.666667 42.666667 0 0 1 60.330667 0zM695.168 268.501333a42.666667 42.666667 0 0 1 60.330667 0l213.333333 213.333334a42.666667 42.666667 0 0 1 0 60.330666l-213.333333 213.333334a42.666667 42.666667 0 0 1-60.330667-60.330667L878.336 512l-183.168-183.168a42.666667 42.666667 0 0 1 0-60.330667z" p-id="5872"></path></svg>