<?xml version="1.0" standalone="no"?><!DOCTYPE svg PUBLIC "-//W3C//DTD SVG 1.1//EN" "http://www.w3.org/Graphics/SVG/1.1/DTD/svg11.dtd"><svg t="1748484316494" class="icon" viewBox="0 0 1024 1024" version="1.1" xmlns="http://www.w3.org/2000/svg" p-id="4303" xmlns:xlink="http://www.w3.org/1999/xlink" width="200" height="200"><path d="M536.576 64c0-35.328 29.184-64 64-64h359.936c35.328 0 64 29.184 64 64v359.936c0 35.328-29.184 64-64 64h-359.936c-35.328 0-64-29.184-64-64V64z m0 535.552c0-35.328 29.184-64 64-64h359.936c35.328 0 64 29.184 64 64v359.936c0 35.328-29.184 64-64 64h-359.936c-35.328 0-64-29.184-64-64v-359.936zM0 599.552c0-35.328 29.184-64 64-64h359.936c35.328 0 64 29.184 64 64v359.936c0 35.328-29.184 64-64 64H64c-35.328 0-64-29.184-64-63.488v-360.448zM0 64C0 28.672 29.184 0 64 0h359.936c35.328 0 64 29.184 64 64v359.936c0 35.328-29.184 64-64 64H64C28.672 487.424 0 458.752 0 423.936V64z m76.8 347.648h336.896V74.752H76.8v336.896z" fill="#040000" p-id="4304"></path></svg>