<?xml version="1.0" standalone="no"?><!DOCTYPE svg PUBLIC "-//W3C//DTD SVG 1.1//EN" "http://www.w3.org/Graphics/SVG/1.1/DTD/svg11.dtd">
<svg t="1736257341807" class="icon" viewBox="0 0 1024 1024" version="1.1" xmlns="http://www.w3.org/2000/svg" p-id="6264"
     width="200" height="200"><path d="M511.980308 1004.307692C240.068923 1004.307692 19.672615 783.891692 19.672615 512 19.672615 240.068923 240.068923 19.672615 511.980308 19.672615 783.911385 19.672615 1004.307692 240.068923 1004.307692 512 1004.307692 783.891692 783.911385 1004.307692 511.980308 1004.307692ZM511.980308 81.211077C274.077538 81.211077 81.211077 274.077538 81.211077 512 81.211077 749.902769 274.077538 942.769231 511.980308 942.769231 749.902769 942.769231 942.769231 749.902769 942.769231 512 942.769231 274.077538 749.902769 81.211077 511.980308 81.211077ZM773.966769 573.538462 511.547077 573.538462C502.272 573.538462 494.08 569.245538 488.526769 562.609231 484.036923 557.331692 481.220923 550.616615 481.220923 543.192615L481.220923 542.916923C481.220923 542.857846 481.201231 542.818462 481.201231 542.759385 481.201231 542.700308 481.220923 542.680615 481.220923 542.601846L481.201231 234.614154C481.220923 217.856 494.985846 204.288 511.980308 204.288 528.974769 204.288 542.779077 217.875692 542.779077 234.614154L542.759385 512 773.927385 512C790.705231 512 804.312615 525.764923 804.292923 542.759385 804.292923 559.773538 790.724923 573.538462 773.966769 573.538462Z" p-id="6265"></path></svg>