<?xml version="1.0" standalone="no"?><!DOCTYPE svg PUBLIC "-//W3C//DTD SVG 1.1//EN" "http://www.w3.org/Graphics/SVG/1.1/DTD/svg11.dtd"><svg t="1699492845411" class="icon" viewBox="0 0 1024 1024" version="1.1" xmlns="http://www.w3.org/2000/svg" p-id="9860" xmlns:xlink="http://www.w3.org/1999/xlink" width="200" height="200"><path d="M928.654222 200.391111a14.620444 14.620444 0 0 0-22.983111-2.844444l-196.920889 196.892444-77.596444-77.596444 197.034666-197.034667a14.563556 14.563556 0 0 0-2.844444-22.869333 292.977778 292.977778 0 0 0-355.783111 45.397333 293.063111 293.063111 0 0 0-76.003556 282.737778L58.709333 759.921778a8.874667 8.874667 0 0 0 0.341334 12.572444l193.934222 193.962667c3.555556 3.527111 9.244444 3.754667 12.572444 0.341333L600.291556 632.035556c97.735111 26.055111 206.307556 0.824889 282.965333-75.889778a292.977778 292.977778 0 0 0 45.397333-355.754667z m-103.537778 297.472a210.602667 210.602667 0 0 1-245.276444 38.4l-10.069333 10.069333-0.085334-0.113777-313.173333 313.258666-90.510222-90.510222 262.968889-262.968889s0 0.113778 0.142222 0.113778l60.302222-60.359111A210.602667 210.602667 0 0 1 692.451556 139.377778l-151.893334 151.779555a36.608 36.608 0 0 0 0 51.768889l142.279111 142.279111a36.608 36.608 0 0 0 51.768889 0l151.779556-151.751111a210.773333 210.773333 0 0 1-61.269334 164.437334z" fill="#000000" fill-opacity=".65" p-id="9861"></path></svg>