<?xml version="1.0" standalone="no"?><!DOCTYPE svg PUBLIC "-//W3C//DTD SVG 1.1//EN" "http://www.w3.org/Graphics/SVG/1.1/DTD/svg11.dtd"><svg t="1742526098497" class="icon" viewBox="0 0 1024 1024" version="1.1" xmlns="http://www.w3.org/2000/svg" p-id="2099" xmlns:xlink="http://www.w3.org/1999/xlink" width="200" height="200"><path d="M150.02 248.7c-1.57-65.09 49.92-119.13 115-120.7h382.33c17.14 1.05 30.22 15.75 29.27 32.9 0.95 17.15-12.13 31.84-29.27 32.9H265.1c-30.76-0.4-56.06 24.15-56.58 54.91V775.3c0.54 30.75 25.83 55.27 56.58 54.87h382.25c18.18 2.17 31.15 18.68 28.98 36.85-1.82 15.19-13.79 27.16-28.98 28.98H265.1c-65.09-1.47-116.67-55.42-115.2-120.51v-0.19l0.12-526.6z m283.05 228.18H761.6L642.14 357.41c-12.82-12.92-12.73-33.79 0.19-46.61s33.79-12.73 46.61 0.19l175.53 175.4c12.87 12.86 12.87 33.72 0.01 46.58l-0.01 0.01L688.95 708.6c-12.57 13.15-33.42 13.63-46.57 1.06s-13.63-33.42-1.06-46.57c0.34-0.36 0.69-0.7 1.04-1.04l119.47-119.47H433.29c-10.92 0-19.75-14.76-19.75-32.9s8.61-32.8 19.53-32.8z" p-id="2100"></path></svg>