<?xml version="1.0" standalone="no"?><!DOCTYPE svg PUBLIC "-//W3C//DTD SVG 1.1//EN" "http://www.w3.org/Graphics/SVG/1.1/DTD/svg11.dtd"><svg t="1742526095104" class="icon" viewBox="0 0 1024 1024" version="1.1" xmlns="http://www.w3.org/2000/svg" p-id="1941" xmlns:xlink="http://www.w3.org/1999/xlink" width="200" height="200"><path d="M873.97 775.3c1.57 65.09-49.92 119.13-115 120.7H376.65c-17.14-1.05-30.22-15.75-29.27-32.9-0.95-17.15 12.13-31.84 29.27-32.9H758.9c30.76 0.4 56.06-24.15 56.58-54.91V248.7c-0.54-30.75-25.83-55.27-56.58-54.87H376.65c-18.18-2.17-31.15-18.68-28.98-36.85 1.82-15.19 13.79-27.16 28.98-28.98H758.9c65.09 1.47 116.67 55.42 115.2 120.51v0.19l-0.13 526.6zM590.92 547.11H262.39l119.47 119.47c12.82 12.92 12.73 33.79-0.19 46.61s-33.79 12.73-46.61-0.19L159.52 537.6c-12.87-12.86-12.87-33.72-0.01-46.58l0.01-0.01 175.53-175.62c12.57-13.15 33.42-13.63 46.57-1.06 13.15 12.57 13.63 33.42 1.06 46.57-0.34 0.36-0.69 0.7-1.04 1.04L262.17 481.41H590.7c10.92 0 19.75 14.76 19.75 32.9 0.01 18.13-8.61 32.8-19.53 32.8z" p-id="1942"></path></svg>