<?xml version="1.0" standalone="no"?><!DOCTYPE svg PUBLIC "-//W3C//DTD SVG 1.1//EN" "http://www.w3.org/Graphics/SVG/1.1/DTD/svg11.dtd"><svg t="1721982308501" class="icon" viewBox="0 0 1088 1024" version="1.1" xmlns="http://www.w3.org/2000/svg" p-id="14172" xmlns:xlink="http://www.w3.org/1999/xlink" width="212.5" height="200"><path d="M461.248 908.672c25.216-5.888 48-19.008 68.352-39.232L976 426.24 659.2 111.68 264.192 507.328 565.76 821.44l-39.424 35.904L228.8 542.72 112 659.84l216 209.664c22.784 27.136 58.496 41.408 94.848 42.816v-3.584h38.4z m95.808 0H1024V960H422.848v-0.064c-46.336-1.536-96.256-20.352-128.448-52.352L78.4 693.12a45.824 45.824 0 0 1 0-66.752L625.6 78.272C635.2 68.736 644.8 64 659.2 64c14.4 0 24 4.736 33.6 14.272l316.8 314.56c19.2 19.072 19.2 47.68 0 66.752l-446.4 443.2a214.208 214.208 0 0 1-6.144 5.888z" p-id="14173"></path></svg>