<?xml version="1.0" standalone="no"?><!DOCTYPE svg PUBLIC "-//W3C//DTD SVG 1.1//EN" "http://www.w3.org/Graphics/SVG/1.1/DTD/svg11.dtd"><svg t="1744774411016" class="icon" viewBox="0 0 1024 1024" version="1.1" xmlns="http://www.w3.org/2000/svg" p-id="13704" xmlns:xlink="http://www.w3.org/1999/xlink" width="200" height="200"><path d="M832.64 865.52V454.64c0-166-135.12-315.92-300.8-325.84-186.08-11.2-340.56 136.4-340.56 320.08v416.72a32.08 32.08 0 1 1-64.16 0V454.88c0-205.6 158.96-379.68 364.32-390.32C713.28 53.04 896.8 229.52 896.8 448.8v416.72a32.08 32.08 0 0 1-32.08 32.08c-17.68 0-32.08-14.4-32.08-32.08zM355.28 769.28c-19.68 0-35.68-16-35.68-35.68V516.8c0-98.4 80-188.72 178.16-195.84 112.72-8.08 206.64 80.88 206.64 191.84v220.8c0 19.68-16 35.68-35.68 35.68l96.16 136.88c8.96 17.12 3.6 39.04-11.84 48.96-15.44 9.92-35.28 4-44.16-13.12L579.44 757.84c-8.96-17.12-3.6-39.04 11.84-48.96 15.44-9.92 35.28-4 44.16 13.12l4.8 6.88V516.32c0-65.84-48.24-123.6-113.68-130.8-77.36-8.56-142.88 51.84-142.88 127.44V728.8l4.8-6.88c8.96-17.04 28.72-22.96 44.24-13.04 15.44 9.84 20.8 31.68 11.84 48.8L315.2 942.16c-8.96 17.04-28.72 22.96-44.24 13.04-15.44-9.84-20.8-31.68-11.84-48.8l96.16-137.12z" fill="#131922" p-id="13705"></path></svg>