<?xml version="1.0" standalone="no"?><!DOCTYPE svg PUBLIC "-//W3C//DTD SVG 1.1//EN" "http://www.w3.org/Graphics/SVG/1.1/DTD/svg11.dtd"><svg t="1741854827972" class="icon" viewBox="0 0 1024 1024" version="1.1" xmlns="http://www.w3.org/2000/svg" p-id="6740" xmlns:xlink="http://www.w3.org/1999/xlink" width="200" height="200"><path d="M516.676 62.108c-247.401-0.001-447.964 200.529-448.001 447.93-0.037 247.452 200.557 448.069 448 448.069a452.85 452.85 0 0 0 44.124-2.147c16.37-1.602 28.836-15.399 28.836-31.846 0-18.949-16.366-33.657-35.226-31.827a390.739 390.739 0 0 1-37.734 1.82c-102.57 0-199-39.94-271.53-112.47-72.52-72.53-112.47-168.96-112.47-271.53s39.95-199 112.47-271.53c72.53-72.53 168.96-112.47 271.529-112.47 101.772 0 199.577 40.513 271.539 112.478 72.525 72.529 112.462 168.956 112.462 271.522 0 34.608-4.55 68.523-13.366 101.053-5.5 20.292 9.853 40.247 30.877 40.247 14.376 0 27.045-9.577 30.819-23.448 10.218-37.552 15.67-77.067 15.67-117.852 0-247.419-200.57-447.999-447.999-447.999z" p-id="6741"></path><path d="M452.579 318.922v379.344c0 17.673-14.327 32-32 32-17.673 0-32-14.327-32-32V318.922c0-17.673 14.327-32 32-32 17.674 0 32 14.327 32 32zM646.403 317.759v379.344c0 17.673-14.327 32-32 32-17.673 0-32-14.327-32-32V317.759c0-17.673 14.327-32 32-32 17.673 0 32 14.327 32 32zM917.485 897.008a31.917 31.917 0 0 1 9.37 22.62c0 8.2-3.13 16.38-9.37 22.63-12.5 12.5-32.76 12.5-45.26 0l-65.23-65.23-65.24 65.23c-12.5 12.5-32.76 12.5-45.26 0-6.25-6.25-9.37-14.43-9.37-22.63 0-8.18 3.12-16.38 9.37-22.62l65.24-65.24-65.24-65.24c-6.25-6.25-9.37-14.44-9.37-22.63s3.12-16.37 9.37-22.62c12.5-12.5 32.76-12.5 45.26 0l65.24 65.24 65.23-65.24c12.5-12.5 32.76-12.5 45.26 0 6.24 6.25 9.37 14.43 9.37 22.62s-3.13 16.38-9.37 22.63l-65.24 65.24 65.24 65.24z" p-id="6742"></path></svg>