<?xml version="1.0" standalone="no"?><!DOCTYPE svg PUBLIC "-//W3C//DTD SVG 1.1//EN" "http://www.w3.org/Graphics/SVG/1.1/DTD/svg11.dtd"><svg t="1748243882191" class="icon" viewBox="0 0 1024 1024" version="1.1" xmlns="http://www.w3.org/2000/svg" p-id="10784" xmlns:xlink="http://www.w3.org/1999/xlink" width="200" height="200"><path d="M965.485714 292.571429l-292.571428-292.571429h-585.142857v1024h877.714285V292.571429z m-102.4 0h-190.171428v-190.171429l190.171428 190.171429z m-702.171428 658.285714V73.142857h438.857143v292.571429h292.571428v585.142857h-731.428571z" fill="#666666" p-id="10785"></path><path d="M307.2 219.428571h73.142857v73.142858h-73.142857zM307.2 512h73.142857v73.142857h-73.142857zM307.2 365.714286h73.142857v73.142857h-73.142857zM380.342857 292.571429h73.142857v73.142857h-73.142857zM380.342857 585.142857h73.142857v73.142857h-73.142857zM307.2 731.428571v73.142858h146.285714v-73.142858h-73.142857v-73.142857h-73.142857zM380.342857 438.857143h73.142857v73.142857h-73.142857z" fill="#666666" p-id="10786"></path></svg>