<?xml version="1.0" standalone="no"?><!DOCTYPE svg PUBLIC "-//W3C//DTD SVG 1.1//EN" "http://www.w3.org/Graphics/SVG/1.1/DTD/svg11.dtd"><svg t="1742019811106" class="icon" viewBox="0 0 1024 1024" version="1.1" xmlns="http://www.w3.org/2000/svg" p-id="18412" xmlns:xlink="http://www.w3.org/1999/xlink" width="200" height="200"><path d="M239 359.9h172.1v256a40 40 0 0 0 40 40h121.8a40 40 0 0 0 40-40v-256H785c15.3 0 21.8-19.5 9.6-28.8l-258.5-195a39.9 39.9 0 0 0-48.2 0l-258.5 195c-12.2 9.3-5.7 28.8 9.6 28.8zM856 656H662.6a3.7 3.7 0 0 0-3.5 2.2 96.1 96.1 0 0 1-86.2 53.7H451.1a96.1 96.1 0 0 1-86.2-53.7 3.7 3.7 0 0 0-3.5-2.2H168a40 40 0 0 0-40 40v160a40 40 0 0 0 40 40h688a40 40 0 0 0 40-40V696a40 40 0 0 0-40-40zM688 808a32 32 0 1 1 32-32 32 32 0 0 1-32 32z m120 0a32 32 0 1 1 32-32 32 32 0 0 1-32 32z" p-id="18413"></path></svg>