<?xml version="1.0" standalone="no"?><!DOCTYPE svg PUBLIC "-//W3C//DTD SVG 1.1//EN" "http://www.w3.org/Graphics/SVG/1.1/DTD/svg11.dtd"><svg t="1779175087595" class="icon" viewBox="0 0 1024 1024" version="1.1" xmlns="http://www.w3.org/2000/svg" p-id="27146" xmlns:xlink="http://www.w3.org/1999/xlink" width="200" height="200"><path d="M870.4 814.08H153.6a128 128 0 0 1-128-128V500.736a25.6 25.6 0 0 1 51.2 0v185.344A76.8 76.8 0 0 0 153.6 762.88h716.8a76.8 76.8 0 0 0 76.8-76.8V500.736a25.6 25.6 0 0 1 51.2 0v185.344a128 128 0 0 1-128 128z" fill="#434C59" p-id="27147"></path><path d="M466.944 625.152H409.6v-36.352a102.4 102.4 0 0 1-91.648 43.52 127.488 127.488 0 0 1-102.4-45.056 166.912 166.912 0 0 1-36.864-111.616 175.616 175.616 0 0 1 40.448-120.32 125.952 125.952 0 0 1 98.816-44.544A128.512 128.512 0 0 1 409.6 339.456v-22.528h57.344z m-196.608-68.608a70.656 70.656 0 0 0 58.368 34.304 81.408 81.408 0 0 0 57.856-22.528 51.2 51.2 0 0 0 18.944-37.888V406.528a51.2 51.2 0 0 0-19.968-37.888 81.408 81.408 0 0 0-55.296-16.896 71.168 71.168 0 0 0-58.88 34.816 144.384 144.384 0 0 0-24.576 84.48 148.48 148.48 0 0 0 23.552 85.504zM614.4 348.672a128.512 128.512 0 0 1 97.28-33.792 118.272 118.272 0 0 1 90.624 43.52 166.4 166.4 0 0 1 40.448 116.736 168.448 168.448 0 0 1-40.96 119.296 120.32 120.32 0 0 1-91.136 39.424 153.6 153.6 0 0 1-102.4-32.768v27.136h-61.44V209.92H614.4v138.752z m0 70.656a422.4 422.4 0 0 0 0 113.664 67.072 67.072 0 0 0 17.408 36.352 85.504 85.504 0 0 0 64.512 23.04 71.68 71.68 0 0 0 59.392-35.328 145.92 145.92 0 0 0 22.528-82.944 132.608 132.608 0 0 0-24.576-83.968A74.752 74.752 0 0 0 690.688 358.4a77.824 77.824 0 0 0-58.88 23.04 69.632 69.632 0 0 0-17.408 37.888z" fill="#434C59" p-id="27148"></path></svg>