<?xml version="1.0" standalone="no"?><!DOCTYPE svg PUBLIC "-//W3C//DTD SVG 1.1//EN" "http://www.w3.org/Graphics/SVG/1.1/DTD/svg11.dtd"><svg t="1743952053379" class="icon" viewBox="0 0 1024 1024" version="1.1" xmlns="http://www.w3.org/2000/svg" p-id="15044" xmlns:xlink="http://www.w3.org/1999/xlink" width="200" height="200"><path d="M725.333333 85.333333l213.333334 213.333334v170.666666h-85.333334v-135.253333L689.92 170.666667H170.666667v298.666666H85.333333V85.333333z m85.333334 512a42.666667 42.666667 0 0 0-42.666667 42.666667v170.666667a42.666667 42.666667 0 0 0 85.333333 0v-170.666667a42.666667 42.666667 0 0 0-42.666666-42.666667m0-85.333333a128 128 0 0 1 128 128v170.666667a128 128 0 0 1-256 0v-170.666667a128 128 0 0 1 128-128z m-298.666667 170.666667a42.666667 42.666667 0 1 1 42.666667-42.666667h85.333333a128 128 0 1 0-128 128 42.666667 42.666667 0 1 1-42.666667 42.666667h-85.333333a128 128 0 1 0 128-128z m-170.666667-85.333334v-85.333333H85.333333v85.333333h85.333334v256H85.333333v85.333334h256v-85.333334h-85.333333V597.333333z" p-id="15045"></path></svg>