<?xml version="1.0" standalone="no"?><!DOCTYPE svg PUBLIC "-//W3C//DTD SVG 1.1//EN" "http://www.w3.org/Graphics/SVG/1.1/DTD/svg11.dtd"><svg t="1754558671134" class="icon" viewBox="0 0 1024 1024" version="1.1" xmlns="http://www.w3.org/2000/svg" p-id="5279" xmlns:xlink="http://www.w3.org/1999/xlink" width="200" height="200"><path d="M517.418667 240.810667a276.608 272.256 0 0 0-276.565334 272.256 276.608 272.256 0 0 0 276.565334 272.213333 276.608 272.256 0 0 0 276.650666-272.213333 276.608 272.256 0 0 0-276.650666-272.213334z m79.36 81.749333a99.370667 97.792 0 0 1 99.413333 97.834667 99.370667 97.792 0 0 1-99.413333 97.749333 99.370667 97.792 0 0 1-99.370667-97.706667 99.370667 97.792 0 0 1 99.328-97.877333z" fill="#42A5F5" p-id="5280"></path><path d="M729.557333 192.554667a99.370667 97.792 0 1 0 198.741334 0 99.370667 97.792 0 1 0-198.741334 0Z" fill="#42A5F5" p-id="5281"></path></svg>