<?xml version="1.0" standalone="no"?><!DOCTYPE svg PUBLIC "-//W3C//DTD SVG 1.1//EN" "http://www.w3.org/Graphics/SVG/1.1/DTD/svg11.dtd"><svg t="1732280575768" class="icon" viewBox="0 0 1024 1024" version="1.1" xmlns="http://www.w3.org/2000/svg" p-id="9913" xmlns:xlink="http://www.w3.org/1999/xlink" width="200" height="200"><path d="M804.1 64H219.9c-47.8 0-86.6 38.1-86.6 85.2v725.6c0 47 38.7 85.2 86.6 85.2h584.3c47.8 0 86.6-38.2 86.6-85.2V149.2c-0.1-47.1-38.9-85.2-86.7-85.2zM219.9 832.2V385.3h165.9v489.5H263.1c-23.9 0-43.2-19.1-43.2-42.6z m584.2 0c0 23.5-19.4 42.6-43.3 42.6h-283V385.3h326.3v446.9z m0-538.9H219.9V191.7c0-23.5 19.4-42.5 43.3-42.5h497.7c23.9 0 43.3 19 43.3 42.5v101.6z" fill="#040000" p-id="9914"></path></svg>