<?xml version="1.0" standalone="no"?><!DOCTYPE svg PUBLIC "-//W3C//DTD SVG 1.1//EN" "http://www.w3.org/Graphics/SVG/1.1/DTD/svg11.dtd">
<svg t="1732280547113" class="icon" viewBox="0 0 1024 1024" version="1.1" xmlns="http://www.w3.org/2000/svg" p-id="9763"
     width="200" height="200"><path d="M804.1 64H219.9c-47.8 0-86.6 38.2-86.6 85.2v725.7c0 47.1 38.7 85.2 86.6 85.2h584.2c47.8 0 86.5-38.1 86.5-85.2V149.2c0.1-47-38.7-85.2-86.5-85.2zM219.9 191.8c0-23.5 19.4-42.6 43.3-42.6h497.7c23.9 0 43.3 19.1 43.3 42.6v101.5H219.9V191.8z m540.9 683H263.2c-23.9 0-43.3-19.1-43.3-42.6V385.3h584.2v446.9c0 23.5-19.4 42.6-43.3 42.6z" fill="#040000" p-id="9764"></path></svg>