<?xml version="1.0" standalone="no"?><!DOCTYPE svg PUBLIC "-//W3C//DTD SVG 1.1//EN" "http://www.w3.org/Graphics/SVG/1.1/DTD/svg11.dtd"><svg t="1680353286265" class="icon" viewBox="0 0 1024 1024" version="1.1" xmlns="http://www.w3.org/2000/svg" p-id="19981" xmlns:xlink="http://www.w3.org/1999/xlink" width="200" height="200"><path d="M512 96c17.673 0 32 14.327 32 32l0.004 33.435c168.865 15.22 303.342 149.696 318.56 318.562L896 480c17.673 0 32 14.327 32 32 0 17.673-14.327 32-32 32l-33.435 0.004c-15.22 168.865-149.696 303.342-318.561 318.56L544 902c0 17.673-14.327 32-32 32-17.673 0-32-14.327-32-32l-0.003-39.435c-168.866-15.219-303.343-149.696-318.562-318.561L128 544c-17.673 0-32-14.327-32-32 0-17.673 14.327-32 32-32l33.435-0.004c15.22-168.865 149.696-303.342 318.562-318.56L480 128c0-17.673 14.327-32 32-32z m32.002 129.758L544 256c0 17.673-14.327 32-32 32-17.673 0-32-14.327-32-32l-0.001-30.242c-133.491 14.757-239.484 120.75-254.241 254.24L256 480c17.673 0 32 14.327 32 32 0 17.673-14.327 32-32 32l-30.242 0.002c14.758 133.49 120.75 239.483 254.24 254.24L480 774c0-17.673 14.327-32 32-32 17.673 0 32 14.327 32 32l0.002 24.242c133.49-14.758 239.482-120.75 254.24-254.24L768 544c-17.673 0-32-14.327-32-32 0-17.673 14.327-32 32-32l30.242-0.002c-14.61-132.155-118.64-237.36-250.243-253.77l-3.997-0.47zM512 416c53.02 0 96 42.98 96 96s-42.98 96-96 96-96-42.98-96-96 42.98-96 96-96z m0 64c-17.673 0-32 14.327-32 32 0 17.673 14.327 32 32 32 17.673 0 32-14.327 32-32 0-17.673-14.327-32-32-32z" fill="#2E2E30" p-id="19982"></path></svg>