<?xml version="1.0" standalone="no"?><!DOCTYPE svg PUBLIC "-//W3C//DTD SVG 1.1//EN" "http://www.w3.org/Graphics/SVG/1.1/DTD/svg11.dtd"><svg t="1681459923702" class="icon" viewBox="0 0 1024 1024" version="1.1" xmlns="http://www.w3.org/2000/svg" p-id="5800" xmlns:xlink="http://www.w3.org/1999/xlink" width="200" height="200"><path d="M957.568 407.168c-5.888-18.176-21.632-31.424-40.512-34.176l-248.832-36.096L557.056 111.424C548.48 94.336 531.136 83.456 512 83.456s-36.544 10.88-44.992 28.032L355.776 336.896 107.008 372.992c-18.944 2.752-34.624 16-40.576 34.176C60.544 425.344 65.408 445.248 79.104 458.624L259.2 634.112l-42.56 247.744c-3.2 18.816 4.416 37.888 19.968 49.152 8.832 6.4 19.136 9.472 29.568 9.472 7.936 0 16-1.856 23.296-5.76L512 817.728l222.528 116.992c7.36 3.904 15.36 5.76 23.36 5.76 10.368 0 20.736-3.264 29.504-9.472 15.488-11.264 23.104-30.336 19.968-49.152l-42.432-247.744 179.968-175.488C958.656 445.248 963.52 425.344 957.568 407.168z" p-id="5801"></path></svg>