<?xml version="1.0" standalone="no"?><!DOCTYPE svg PUBLIC "-//W3C//DTD SVG 1.1//EN" "http://www.w3.org/Graphics/SVG/1.1/DTD/svg11.dtd"><svg t="1719558546585" class="icon" viewBox="0 0 1024 1024" version="1.1" xmlns="http://www.w3.org/2000/svg" p-id="19617" xmlns:xlink="http://www.w3.org/1999/xlink" width="200" height="200"><path d="M468.5511111 901.87022223H112.44764444V135.35715556H897.56444444v467.3504c18.1408 4.88533333 35.51573333 10.6816 51.9904 17.28426667V78.7064889H57.68817777V949.44355556h467.60533333c-22.08-14.23146667-41.20533333-30.22933333-56.7424-47.57333333z m14.24746667-89.58506667c101.23413333 154.71786667 253.08586667 154.60266667 253.08586667 154.60266667 212.89173333 0 270.95253333-154.60266667 270.95253333-154.60266667-248.62186667-327.27253333-524.0384 0-524.0384 0zM744.81777777 909.55662223c-52.528 0-95.1072-41.5008-95.1072-92.69653333s42.5792-92.6976 95.1072-92.6976c52.52586667 0 95.1072 41.50186667 95.1072 92.6976s-42.58133333 92.69653333-95.1072 92.69653333z m-24.4864-71.36a38.69226667 37.712 0 1 1 0 1.0912zM188.1223111 276.58382223h72.11733334v70.2912h-72.11733334v-70.2912z m0 137.31413333h72.11733334v70.2912h-72.11733334v-70.2912z m0 134.1248h72.11733334v70.2912h-72.11733334v-70.2912z m142.56-270.3488h420.96853334v73.56053334H330.6823111v-73.56053334z m0 134.5888h420.96853334v73.56053334H330.6823111v-73.56053334z m0 134.1248h420.96853334v73.56053334H330.6823111v-73.56053334z" p-id="19618"></path></svg>