<?xml version="1.0" standalone="no"?><!DOCTYPE svg PUBLIC "-//W3C//DTD SVG 1.1//EN" "http://www.w3.org/Graphics/SVG/1.1/DTD/svg11.dtd"><svg t="1741167816401" class="icon" viewBox="0 0 1024 1024" version="1.1" xmlns="http://www.w3.org/2000/svg" p-id="17304" xmlns:xlink="http://www.w3.org/1999/xlink" width="200" height="200"><path d="M896 307.2c0-8.533333-8.533333-8.533333-8.533333-17.066667L648.533333 51.2S640 42.666667 631.466667 42.666667H256c-34.133333 0-68.266667 8.533333-93.866667 34.133333s-34.133333 59.733333-34.133333 93.866667v682.666666c0 34.133333 8.533333 68.266667 34.133333 93.866667 25.6 25.6 51.2 34.133333 93.866667 34.133333h512c34.133333 0 68.266667-8.533333 93.866667-34.133333 25.6-25.6 34.133333-51.2 34.133333-93.866667V324.266667v-17.066667zM768 298.666667H640V170.666667L768 298.666667z m34.133333 588.8c-8.533333 8.533333-17.066667 8.533333-34.133333 8.533333H256c-8.533333 0-25.6 0-34.133333-8.533333-8.533333-8.533333-8.533333-17.066667-8.533334-34.133334V170.666667c0-8.533333 0-25.6 8.533334-34.133334 8.533333-8.533333 25.6-8.533333 34.133333-8.533333h298.666667V366.933333s0 8.533333 8.533333 8.533334l8.533333 8.533333c8.533333 8.533333 8.533333 0 8.533334 0h230.4V853.333333c0 8.533333 0 25.6-8.533334 34.133334zM469.333333 597.333333s0 8.533333 0 0V622.933333s0 8.533333-8.533333 8.533334l-85.333333 85.333333s-8.533333 8.533333-17.066667 8.533333h-34.133333c-8.533333 0-8.533333-8.533333-17.066667-8.533333 0 0-8.533333-8.533333-8.533333-17.066667V682.666667v-17.066667c0-8.533333 8.533333-8.533333 8.533333-17.066667l59.733333-51.2-59.733333-51.2s-8.533333-8.533333-8.533333-17.066666V512v-17.066667c0-8.533333 8.533333-8.533333 8.533333-17.066666 0 0 8.533333-8.533333 17.066667-8.533334h34.133333c8.533333 0 8.533333 8.533333 17.066667 8.533334l85.333333 85.333333 8.533333 8.533333V597.333333c0-8.533333 0 0 0 0z m256 162.133334s0 8.533333 0 0v34.133333s0 8.533333-8.533333 8.533333l-8.533333 8.533334h-8.533334-8.533333H512h-8.533333-8.533334-8.533333s-8.533333 0-8.533333-8.533334l-8.533334-8.533333v-8.533333-8.533334V768v-8.533333-8.533334-8.533333s0-8.533333 8.533334-8.533333l8.533333-8.533334h221.866667s8.533333 0 8.533333 8.533334l8.533333 8.533333c-8.533333 0-8.533333 8.533333 0 17.066667 0-8.533333 0 0 0 0z" p-id="17305"></path></svg>