<?xml version="1.0" standalone="no"?><!DOCTYPE svg PUBLIC "-//W3C//DTD SVG 1.1//EN" "http://www.w3.org/Graphics/SVG/1.1/DTD/svg11.dtd"><svg t="1762067651568" class="icon" viewBox="0 0 1024 1024" version="1.1" xmlns="http://www.w3.org/2000/svg" p-id="4651" xmlns:xlink="http://www.w3.org/1999/xlink" width="200" height="200"><path d="M648.76544 0c24.40704 0 47.8208 9.68704 65.09568 26.9312l187.61728 187.21792a92.16 92.16 0 0 1 27.05408 65.2288v120.6272c44.2368 0 80.09728 35.85536 80.10752 80.08704v319.7952c0 43.24864-34.3296 78.6944-77.55776 80.06656l-2.54976 0.03072v48.00512c0 53.02272-43.02848 96-96.12288 96H191.5904c-53.0944 0-96.12288-42.97728-96.12288-96v-48.00512c-44.2368 0-80.09728-35.85536-80.10752-80.08704V480.1024c0-43.24864 34.3296-78.6944 77.55776-80.06656l2.54976-0.04096V96C95.46752 42.97728 138.496 0 191.5904 0h457.17504z m183.64416 879.99488H191.5904v17.28512a30.72 30.72 0 0 0 30.72 30.72h579.3792a30.72 30.72 0 0 0 30.72-30.72v-17.28512zM413.81888 547.84c-62.6688 0-110.592 41.7792-110.592 106.16832 0 45.95712 30.47424 74.21952 78.88896 74.21952 62.6688 0 110.592-41.7792 110.592-106.16832 0-45.95712-30.47424-74.21952-78.88896-74.21952z m165.64224 4.42368h-43.99104l-30.22848 172.032h38.33856l21.38112-121.6512 39.3216 68.8128h6.88128l64.88064-66.84672-21.13536 119.68512h38.33856l30.22848-172.032h-43.49952l-61.93152 66.10944-38.58432-66.10944z m-271.81056-0.24576H164.864l-6.144 34.16064h52.34688l-24.33024 137.87136h38.0928l24.33024-137.87136h52.34688l6.144-34.16064z m492.99456 0h-38.33856l-30.22848 172.032h124.35456l6.144-35.14368h-86.016l24.08448-136.88832z m-392.97024 30.22848c33.42336 0 51.11808 24.33024 45.4656 55.78752-5.65248 31.9488-31.70304 55.54176-65.1264 55.54176-28.75392 0-46.44864-19.41504-46.44864-46.44864 0-35.38944 29.4912-64.88064 66.10944-64.88064z m195.54304-493.9264H222.3104a30.72 30.72 0 0 0-30.72 30.72v280.95488h640.8192v-81.5616h-137.00096c-50.8928-0.01024-92.14976-41.2672-92.16-92.16l-0.03072-137.95328z" fill="#FF6B08" p-id="4652"></path></svg>