<?xml version="1.0" standalone="no"?><!DOCTYPE svg PUBLIC "-//W3C//DTD SVG 1.1//EN" "http://www.w3.org/Graphics/SVG/1.1/DTD/svg11.dtd"><svg t="1741332893481" class="icon" viewBox="0 0 1024 1024" version="1.1" xmlns="http://www.w3.org/2000/svg" p-id="47795" xmlns:xlink="http://www.w3.org/1999/xlink" width="200" height="200"><path d="M368 672a32 32 0 0 1-32 32H296v160a32 32 0 0 1-64 0v-160H192a32 32 0 0 1 0-64h144a32 32 0 0 1 32 32zM864 352.8V864a64 64 0 0 1-64 64h-64a32 32 0 0 1 0-64h64V384h-192a32 32 0 0 1-32-32V160H224v352a32 32 0 0 1-64 0V160a64 64 0 0 1 64-64h384.192c8.8 0 16.8 3.52 22.624 9.216l223.616 224c5.92 5.696 9.6 13.664 9.6 22.528v0.288zM640 320h114.784L640 205.184z m-121.216 415.2c-12.384-3.2-34.4-9.216-38.816-14.4V720c0-13.216 9.6-20 28-20 14.976 0.32 28.8 5.056 40.256 12.96l-0.256-0.16h-0.384c5.536 4.448 12.64 7.136 20.384 7.2a32 32 0 0 0 32-32v-0.512a30.304 30.304 0 0 0-11.552-23.84l-0.064-0.064a132.8 132.8 0 0 0-80.352-27.616h-0.064c-54.016 0-92 34.4-92 84s52 68 86.4 77.216c13.6 3.616 28 7.2 36.8 12.384s4.8 4 4.8 6.4 0 20-36 20c-14.976-0.32-28.8-5.056-40.256-12.96l0.256 0.16h0.384a32.896 32.896 0 0 0-20.384-7.2 32 32 0 0 0-32 32v0.512c0 9.664 4.512 18.272 11.552 23.84l0.064 0.064a132.8 132.8 0 0 0 80.352 27.616h0.064c62.4 0 100-31.616 100-84s-56-72-89.216-80.8z" p-id="47796"></path></svg>