<?xml version="1.0" standalone="no"?><!DOCTYPE svg PUBLIC "-//W3C//DTD SVG 1.1//EN" "http://www.w3.org/Graphics/SVG/1.1/DTD/svg11.dtd"><svg t="1752738541316" class="icon" viewBox="0 0 1024 1024" version="1.1" xmlns="http://www.w3.org/2000/svg" p-id="6183" xmlns:xlink="http://www.w3.org/1999/xlink" width="200" height="200"><path d="M648.76544 0c24.40704 0 47.8208 9.68704 65.09568 26.9312l187.61728 187.21792a92.16 92.16 0 0 1 27.05408 65.2288v120.6272c44.2368 0 80.09728 35.85536 80.10752 80.08704v319.7952c0 43.24864-34.3296 78.6944-77.55776 80.06656l-2.54976 0.03072v48.00512c0 53.02272-43.02848 96-96.12288 96H191.5904c-53.0944 0-96.12288-42.97728-96.12288-96v-48.00512c-44.2368 0-80.09728-35.85536-80.10752-80.08704V480.1024c0-43.24864 34.3296-78.6944 77.55776-80.06656l2.54976-0.04096V96C95.46752 42.97728 138.496 0 191.5904 0h457.17504z m183.64416 879.99488H191.5904v17.28512a30.72 30.72 0 0 0 30.72 30.72h579.3792a30.72 30.72 0 0 0 30.72-30.72v-17.28512z m-281.00608-335.26784c-75.44832 0-109.60896 53.82144-109.60896 107.64288 0 38.0928 20.64384 74.46528 77.16864 74.46528 31.70304 0 57.26208-10.81344 75.69408-31.9488l13.27104-74.9568H533.7088l-5.65248 31.9488h41.04192l-4.9152 27.52512c-14.99136 10.07616-26.54208 12.04224-38.58432 12.04224-37.98016 0-46.43328-24.28928-46.45376-44.03712l0.00512-0.93696c0.49152-40.30464 27.52512-66.60096 66.10944-66.60096 13.76256 0 28.75392 5.16096 37.60128 15.23712l26.78784-24.576c-12.53376-18.92352-34.89792-25.8048-58.24512-25.8048z m182.84544 0c-75.44832 0-109.60896 53.82144-109.60896 107.64288 0 38.0928 20.64384 74.46528 77.16864 74.46528 31.70304 0 57.26208-10.81344 75.69408-31.9488l13.27104-74.9568h-74.21952l-5.65248 31.9488h41.04192l-4.9152 27.52512c-14.99136 10.07616-26.54208 12.04224-38.58432 12.04224-37.98016 0-46.43328-24.28928-46.45376-44.03712l0.00512-0.93696c0.49152-40.30464 27.52512-66.60096 66.10944-66.60096 13.76256 0 28.75392 5.16096 37.60128 15.23712l26.78784-24.576c-12.53376-18.92352-34.89792-25.8048-58.24512-25.8048z m-387.80928 0.98304c-62.6688 0-110.592 41.7792-110.592 106.16832 0 45.95712 30.47424 74.21952 78.88896 74.21952 62.6688 0 110.592-41.7792 110.592-106.16832 0-45.95712-30.47424-74.21952-78.88896-74.21952z m-6.144 34.4064c33.42336 0 51.11808 24.33024 45.4656 55.78752-5.65248 31.9488-31.70304 55.54176-65.1264 55.54176-28.75392 0-46.44864-19.41504-46.44864-46.44864 0-35.38944 29.4912-64.88064 66.10944-64.88064z m262.92224-491.79648H222.3104a30.72 30.72 0 0 0-30.72 30.72v280.95488h640.8192v-81.5616h-137.00096c-50.8928-0.01024-92.14976-41.2672-92.16-92.16l-0.03072-137.95328z m96.12288 59.84256v58.91072a15.36 15.36 0 0 0 15.36 15.36h59.0848l-74.4448-74.27072z" fill="#99C356" p-id="6184"></path></svg>