<?xml version="1.0" standalone="no"?><!DOCTYPE svg PUBLIC "-//W3C//DTD SVG 1.1//EN" "http://www.w3.org/Graphics/SVG/1.1/DTD/svg11.dtd"><svg t="1755683682213" class="icon" viewBox="0 0 1024 1024" version="1.1" xmlns="http://www.w3.org/2000/svg" p-id="32916" xmlns:xlink="http://www.w3.org/1999/xlink" width="200" height="200"><path d="M896 448v-128h-64v128h-192v-128h-64v128h-128v64h128v128h64v-128h192v128h64v-128h128v-64z" fill="#FFAB40" p-id="32917"></path><path d="M434.016 704A178.24 178.24 0 0 1 256 525.984v-91.936A178.24 178.24 0 0 1 434.016 256H576V64h-141.984A370.016 370.016 0 0 0 64 434.016v91.936A370.048 370.048 0 0 0 434.016 896H576v-192z" fill="#FFAB40" p-id="32918"></path></svg>