<?xml version="1.0" standalone="no"?><!DOCTYPE svg PUBLIC "-//W3C//DTD SVG 1.1//EN" "http://www.w3.org/Graphics/SVG/1.1/DTD/svg11.dtd"><svg t="1755683693478" class="icon" viewBox="0 0 1024 1024" version="1.1" xmlns="http://www.w3.org/2000/svg" p-id="33916" xmlns:xlink="http://www.w3.org/1999/xlink" width="200" height="200"><path d="M743.509333 718.506667l21.845334 126.933333c-13.525333 7.253333-35.370667 14.08-64.512 20.309333-29.653333 6.741333-64.512 10.368-104.533334 10.368-114.986667-2.048-201.344-36.394667-259.072-101.973333-59.306667-66.048-87.424-149.76-87.424-251.221333 2.133333-120.192 37.461333-212.266667 106.154667-276.778667 66.56-65.024 151.893333-98.304 254.890667-98.304 38.997333 0 72.832 3.626667 100.906666 9.898667 28.117333 6.229333 48.896 12.970667 62.421334 20.778666l-31.189334 129.536-54.101333-17.664c-20.821333-5.205333-45.269333-7.808-72.832-7.808-59.818667-0.554667-109.781333 18.730667-148.778667 57.173334-39.552 37.973333-59.306667 96.256-61.397333 173.781333 0.512 70.741333 19.242667 125.866667 56.192 166.485333 36.949333 40.064 88.448 60.842667 155.52 61.354667l69.205333-6.229333a263.978667 263.978667 0 0 0 56.704-16.64z" fill="#FFAB40" p-id="33917"></path></svg>