<?xml version="1.0" standalone="no"?><!DOCTYPE svg PUBLIC "-//W3C//DTD SVG 1.1//EN" "http://www.w3.org/Graphics/SVG/1.1/DTD/svg11.dtd"><svg t="1741331067045" class="icon" viewBox="0 0 1024 1024" version="1.1" xmlns="http://www.w3.org/2000/svg" p-id="37706" xmlns:xlink="http://www.w3.org/1999/xlink" width="200" height="200"><path d="M666.7 0v1.8a25 25 0 0 1 11 6.4l264.6 264.6a24.9 24.9 0 0 1 6.9 12.9h0.8V975a25 25 0 0 1-25 25H125a25 25 0 0 1-25-25v-45.2a25 25 0 0 1 25-25h705.5a25 25 0 0 0 25-25.1V315.5H660a25 25 0 0 1-25-25V95.2H219.5a25 25 0 0 0-25 25v283.3a25 25 0 0 1-25 25H125a25 25 0 0 1-25-25V25a25 25 0 0 1 25-25h541.7zM145 568c23 0 41.1 5.1 54.2 15.2 12.9 10.1 20.9 25 24 44.8h-29.4l-1.9-6.5a39 39 0 0 0-14.1-19.2c-8.2-5.7-19.1-8.5-32.8-8.5-16.8 0-30.1 5.6-39.8 17-10.6 11.8-16 28.7-16 50.7 0 21 4.8 37.2 14.3 48.5 10.3 12 26.3 18 48 18 8.5 0 16.5-1 24-3a78 78 0 0 0 19.2-8.2V680h-47.2v-25H224v75.5l-7.2 5.2c-7.5 4.8-15.9 8.8-25.3 11.8-13 4-27.4 6-43.2 6-28.4 0-50.5-9-66.3-27-14.7-16.7-22-38.3-22-65 0-26.8 7.3-48.8 22-66 15.3-18.3 36.3-27.5 63-27.5z m241.5 3.5v23.2L283.5 725h109v25H245.3v-23l103.2-130.5h-95.8v-25h133.8z m59 0V750h-29.2V571.5h29.2z m109 0l7.8 0.2c38 2.1 57 20.3 57 54.6 0 36.8-21.8 55.2-65.3 55.2h-44.3V750h-29.2V571.5h74z m-2.2 25h-42.5v60h42.5c12.8 0 22.3-2.3 28.5-7 6-4.8 9-12.6 9-23.3 0-10.5-3.1-18-9.3-22.7-5.8-4.7-15.2-7-28.2-7z" p-id="37707"></path></svg>