<?xml version="1.0" standalone="no"?><!DOCTYPE svg PUBLIC "-//W3C//DTD SVG 1.1//EN" "http://www.w3.org/Graphics/SVG/1.1/DTD/svg11.dtd"><svg t="1755683467732" class="icon" viewBox="0 0 1024 1024" version="1.1" xmlns="http://www.w3.org/2000/svg" p-id="17650" xmlns:xlink="http://www.w3.org/1999/xlink" width="200" height="200"><path d="M511.872 256.512S440.106667 375.466667 406.016 433.28c-6.613333 2.474667-7.338667 1.749333-14.549333 8.832-17.493333-20.053333-38.272-1.749333-43.861334 9.386667-2.432-24.149333-6.442667-24.192-11.904-29.610667 3.157333-21.162667 13.482667-55.68-10.282666-80.384-45.994667-31.018667-99.242667 44.8-128.896 84.565333l-16 26.538667c-65.962667-1.365333-117.888 0.341333-180.522667-0.896 76.373333 28.586667 79.530667 29.269333 171.776 64.256 0 2.816 6.869333 15.872 14.506667 23.552 6.272 6.4 13.141333 9.984 16.597333 12.117333-4.522667 2.304-13.653333 5.888-16.426667 11.008-12.458667 23.296 5.930667 28.672 17.834667 47.232 13.44 24.234667 16.298667 40.277333 48.042667 26.666667 10.837333-4.693333 23.978667-6.314667 32.341333-8.96-29.568 46.677333-37.12 59.392-88.874667 139.690667l0.512 0.170666c206.933333-80.768 212.224-82.858667 314.581334-123.306666 147.114667 57.088 155.562667 61.781333 317.098666 123.349333-22.570667-35.242667-37.973333-57.301333-54.357333-85.12 6.442667-0.554667 20.608-1.962667 33.152-9.941333 9.088-5.76 19.754667-12.288 29.354667-24.490667 18.901333-24.106667 23.509333-54.485333 16.64-92.416-3.328-18.048-10.026667-35.584-9.088-36.266667 87.936-33.194667 98.304-36.778667 180.309333-67.712-98.56 1.450667-103.338667 0.426667-195.882667 0.682667-1.536-17.664-10.410667-26.752-37.632-25.856-10.154667 1.664-16.597333 5.12-21.333333 18.986667-15.232-28.032-36.266667-19.797333-45.226667-5.973334-11.733333-12.032-39.125333-16.085333-52.906666-7.253333-10.154667-4.778667-21.930667-4.778667-32.298667 7.552-7.466667-6.229333-9.813333-8.021333-26.197333-14.592-37.802667-63.872-69.205333-114.858667-100.693334-168.576z m0.512 34.218667c14.933333 22.826667 66.218667 111.36 78.890667 131.157333-14.378667 0.981333-28.501333 8.618667-39.168 23.978667-9.258667-9.557333-20.053333-18.986667-39.125334-19.754667-23.210667-3.968-35.584 6.314667-51.2 24.234667-4.608-15.573333-22.613333-19.2-38.229333-11.946667 13.952-22.144 79.872-133.205333 88.832-147.626667zM317.866667 389.461333c-2.133333 61.184-45.568 115.712-76.714667 95.786667-23.509333-19.157333 6.357333-67.584 25.173333-84.693333-1.408 13.098667 10.496 21.248 0.981334 32.853333-19.029333 23.168-11.52 39.936-3.328 42.496 21.888 6.912 42.837333-52.352 42.837333-93.909333 0-26.666667-15.616-26.154667-46.336 5.802666-41.941333 43.605333-64.554667 85.845333-49.493333 114.773334 8.405333 16.213333 20.693333 27.776 40.917333 25.344 39.466667-4.693333 63.274667-53.504 65.834667-84.821334 6.314667-0.128 4.650667 0.426667 6.314666-0.853333 0 5.504 7.552 32.213333 13.525334 49.749333 7.808 29.952 41.130667 90.026667-58.410667 113.408-18.773333 4.693333-26.197333 6.314667-44.8 13.653334-9.088-18.901333-11.221333-24.96-29.738667-43.221334 25.088-8.746667 25.301333-7.893333 41.472-13.525333 62.592-21.76 81.408-40.405333 79.232-66.986667 0 0 0.768-13.653333-7.893333-25.088a111.488 111.488 0 0 1-12.501333 27.52c-18.645333 29.013333-55.296 46.976-87.893334 35.541334-17.792-6.229333-25.429333-19.882667-25.429333-43.306667 0-29.994667 68.309333-116.693333 101.845333-131.413333 23.68-7.04 24.704 12.501333 24.362667 30.890666z m277.418666 55.466667c11.093333 0.256 23.168 5.674667 31.36 14.506667 25.344 27.306667 22.570667 60.458667 6.954667 81.28-18.56 24.789333-65.365333 13.824-76.416-20.821334-5.12-16.128 4.053333-55.978667 20.266667-69.290666a26.794667 26.794667 0 0 1 17.834666-5.632z m-90.154666 2.816a21.418667 21.418667 0 0 1 4.992 0.725333c21.461333 1.28 26.026667 13.354667 29.909333 23.893334 9.856 26.709333 7.381333 51.712-12.842667 72.149333-30.336 30.677333-65.706667 17.109333-65.536-24.192 0.597333-29.44 18.901333-73.173333 43.52-72.533333z m79.701333 1.621333c-16.341333 12.245333-18.432 43.648-3.413333 55.296 5.888 5.546667 9.173333 9.386667 26.154666 10.922667 11.648 1.024 30.037333-10.794667 30.933334-22.485333 0.426667-5.333333-0.554667-14.208-13.312-28.586667-10.752-12.074667-24.704-14.890667-28.202667-12.8-11.306667 6.656 0.896 11.946667 5.333333 16.341333 6.912 6.954667 8.533333 9.984 5.333334 12.032a19.072 19.072 0 0 1-15.872 2.432c-4.48-2.090667-19.456-10.496-6.954667-33.152z m160.384 0.128c7.125333 11.093333 9.173333 13.482667 17.152 41.173334 10.24 35.754667 23.296 49.621333 34.816 43.093333 31.573333-17.834667 6.314667-62.976-4.821333-84.224 7.125333-0.085333 5.717333 0.298667 12.202666 0.213333 5.12 20.096 3.669333 16.512 17.365334 77.354667 16.426667 72.789333 18.858667 92.16-22.528 124.842667-19.029333 15.018667-47.061333 15.786667-71.125334 14.506666l-27.136-4.053333c18.688-12.245333 23.253333-23.765333 23.125334-47.616 54.528 22.826667 83.584 5.632 95.146666-22.442667 5.632-13.525333 3.669333-31.36-1.706666-62.762666 0.341333 25.6-0.213333 30.293333-3.584 42.965333-6.741333 25.386667-23.338667 32.426667-34.645334 14.506667-4.352-6.954667-14.72-29.952-17.92-54.698667-3.2-24.746667-5.632-59.52-21.333333-74.069333 1.706667-3.413333 3.498667-7.253333 4.992-8.789334z m-53.205333 0.426667c11.008 2.901333 24.405333 8.704 31.573333 22.186667 9.984 18.602667 16.554667 28.501333 16.042667 61.738666-0.597333 35.498667-14.506667 45.013333-23.765334 46.336-11.861333 1.706667-32.512 1.450667-44.757333-68.181333-4.053333-23.082667-11.434667-45.056-19.2-52.224 3.84-4.693333 4.138667-4.096 7.04-8.704 3.882667 4.266667 7.253333 11.52 12.714667 33.152 8.618667 34.474667 16.512 41.6 31.786666 43.52 23.808 3.072 33.194667-33.28 13.568-59.349333-4.266667-5.717333-15.573333-13.098667-21.461333-10.069334 0.341333 10.069333 4.821333 6.912 4.864 13.568-1.109333 7.893333-2.261333 9.344-4.821333 13.653334-6.058667-2.389333-8.96-3.328-14.250667-12.416-6.698667-13.226667-2.346667-25.6 10.666667-23.210667z m-196.138667 3.242667c-11.221333 7.893333-25.344 34.133333-12.970667 57.6 6.101333 8.746667 12.672 15.872 27.221334 12.8 10.453333-2.176 28.629333-14.506667 31.146666-31.957334 2.218667-14.933333-19.456-43.861333-31.488-37.12-13.952 7.808-5.461333 13.397333 3.157334 21.802667 7.893333 7.68 2.218667 12.330667-3.285334 14.592-11.008 4.522667-17.194667 0.128-19.925333-8.661333-2.773333-8.746667-0.426667-16.213333 6.144-29.013334z m-122.325333 2.730666c2.389333 7.338667 4.266667 17.152 9.301333 26.624 1.194667 0.981333 5.632 0 11.477333-6.698666 3.669333-4.266667 7.893333-10.154667 15.232-19.754667 4.437333 4.053333 4.821333 7.082667 6.058667 9.344 3.114667 5.546667 9.6 5.12 11.648 4.522667 7.168-7.125333 8.32-11.733333 13.056-12.373334 0.426667 9.216 0.896 14.933333-10.965333 28.885334a22.826667 22.826667 0 0 1-21.376 7.338666c-5.12-1.450667-8.490667-4.608-16.597334-8.746666-11.008 1.706667-8.106667 13.44-6.101333 23.296 5.12 26.069333 21.333333 36.48 35.498667 28.8 4.949333-2.645333 3.84-2.645333 13.312-6.528-1.621333 16.554667-2.56 19.754667 0.426666 38.229333-23.082667 12.842667-41.898667 10.666667-47.018666-21.589333-3.882667-26.965333-11.136-59.733333-17.706667-66.389334-6.186667-6.272-8.746667-8.32-8.746667-8.32l12.501334-16.64z m-303.530667 3.498667c32.128 0.426667 68.352 0.426667 106.922667 0.725333-5.546667 13.568-7.466667 23.04-8.234667 36.437334-18.005333-6.954667-80.085333-29.184-98.688-37.162667z m884.181333 0.426667c-42.538667 15.317333-73.173333 27.178667-114.218666 42.837333-4.48-19.2-5.290667-25.088-9.344-42.410667 68.309333-0.213333 69.461333-0.085333 123.562666-0.426666z m-297.728 87.04c4.48 18.346667 10.794667 27.349333 10.794667 27.349333 8.618667 14.848 19.370667 23.253333 35.84 27.52 3.626667 5.802667 4.906667 6.954667 6.314667 10.069333 1.578667 19.498667 0.426667 21.930667-14.677334 33.024-8.917333 8.704-9.301333 21.205333-0.128 32.810667 9.856 9.386667 20.224 12.714667 58.666667 2.730667 7.424 12.8 17.834667 27.861333 33.109333 51.925333-51.456-19.413333-122.368-47.061333-274.346666-106.24 0 0-177.877333 69.12-273.237334 106.282667 39.893333-62.890667 43.178667-68.224 71.552-112.213334 9.6-3.797333 6.357333-2.261333 14.890667-6.613333 19.584-10.453333 35.285333-26.026667 43.861333-48.853333 15.701333 35.413333 33.237333 39.466667 69.802667 27.946666 7.552-3.498667 16.213333-8.533333 18.090667-22.101333 19.626667 17.621333 61.098667 20.906667 91.392-16.298667 26.112 30.592 85.376 33.493333 108.074666-7.296z m92.032 36.906666s1.706667 5.504 2.730667 7.210667c-4.309333 0.128-9.088 0-9.088 0a38.613333 38.613333 0 0 0 6.357333-7.253333z" p-id="17651"></path></svg>