<?xml version="1.0" standalone="no"?><!DOCTYPE svg PUBLIC "-//W3C//DTD SVG 1.1//EN" "http://www.w3.org/Graphics/SVG/1.1/DTD/svg11.dtd"><svg t="1755687256751" class="icon" viewBox="0 0 1024 1024" version="1.1" xmlns="http://www.w3.org/2000/svg" p-id="7693" xmlns:xlink="http://www.w3.org/1999/xlink" width="200" height="200"><path d="M590.765686 625.506462v-204.8c0-23.000615 17.644308-41.668923 39.384616-41.668924h141.784615L511.996455 100.982154l-259.938461 278.055384h141.784615c21.740308 0 39.384615 18.668308 39.384616 41.747693v204.8h157.538461z m78.769231 41.747692C669.534917 690.254769 651.890609 708.923077 630.150302 708.923077h-236.307693c-21.740308 0-39.384615-18.668308-39.384615-41.747692v-204.8H157.534917c-34.894769 0-52.539077-44.662154-27.884308-70.971077L484.033378 12.366769a37.809231 37.809231 0 0 1 55.926154 0l354.461539 379.037539c24.576 26.308923 6.931692 71.049846-28.041846 71.049846H669.534917v204.8zM669.534917 811.323077v31.507692a23.630769 23.630769 0 0 1-23.630769 23.630769H378.088763a23.630769 23.630769 0 0 1-23.630769-23.630769v-31.507692a23.630769 23.630769 0 0 1 23.630769-23.630769h267.815385a23.630769 23.630769 0 0 1 23.630769 23.630769z m0 157.538461v31.507693a23.630769 23.630769 0 0 1-23.630769 23.630769H378.088763a23.630769 23.630769 0 0 1-23.630769-23.630769v-31.507693a23.630769 23.630769 0 0 1 23.630769-23.630769h267.815385a23.630769 23.630769 0 0 1 23.630769 23.630769z" p-id="7694"></path></svg>