<?xml version="1.0" standalone="no"?><!DOCTYPE svg PUBLIC "-//W3C//DTD SVG 1.1//EN" "http://www.w3.org/Graphics/SVG/1.1/DTD/svg11.dtd"><svg t="1734185622780" class="icon" viewBox="0 0 1024 1024" version="1.1" xmlns="http://www.w3.org/2000/svg" p-id="2816" xmlns:xlink="http://www.w3.org/1999/xlink" width="200" height="200"><path d="M768 245.76a10.24 10.24 0 0 1 10.24 10.24v512a10.24 10.24 0 0 1-10.24 10.24H256a10.24 10.24 0 0 1-10.24-10.24V256a10.24 10.24 0 0 1 10.24-10.24z m-10.24 20.48H266.24v491.52h491.52V266.24zM645.12 655.36a10.24 10.24 0 0 1 1.19808 20.40832L645.12 675.84H378.88a10.24 10.24 0 0 1-1.19808-20.40832L378.88 655.36h266.24z" fill="#202020" p-id="2817"></path></svg>