<?xml version="1.0" standalone="no"?><!DOCTYPE svg PUBLIC "-//W3C//DTD SVG 1.1//EN" "http://www.w3.org/Graphics/SVG/1.1/DTD/svg11.dtd"><svg t="1734337523853" class="icon" viewBox="0 0 1024 1024" version="1.1" xmlns="http://www.w3.org/2000/svg" p-id="2814" xmlns:xlink="http://www.w3.org/1999/xlink" width="200" height="200"><path d="M819.2 194.56a10.24 10.24 0 0 1 10.24 10.24v614.4a10.24 10.24 0 0 1-10.24 10.24H204.8a10.24 10.24 0 0 1-10.24-10.24V204.8a10.24 10.24 0 0 1 10.24-10.24z m-10.24 20.48H215.04v593.92h593.92V215.04zM642.11968 381.88032a10.24 10.24 0 0 1 0.84992 13.5168l-0.84992 0.96256L403.59936 634.88H563.2a10.24 10.24 0 0 1 10.16832 9.04192L573.44 645.12a10.24 10.24 0 0 1-9.04192 10.16832L563.2 655.36l-185.088-0.03072-1.29024-0.17408-1.13664-0.3072-1.13664-0.45056-1.00352-0.53248-0.98304-0.68608-0.9216-0.8192a10.3424 10.3424 0 0 1-0.99328-1.14688l-0.72704-1.1264-0.55296-1.16736-0.3584-1.0752-0.3072-1.536L368.64 645.12V460.8a10.24 10.24 0 0 1 20.40832-1.19808L389.12 460.8v159.58016l238.52032-238.49984a10.24 10.24 0 0 1 14.47936 0z" fill="#202020" p-id="2815"></path></svg>