<?xml version="1.0" standalone="no"?><!DOCTYPE svg PUBLIC "-//W3C//DTD SVG 1.1//EN" "http://www.w3.org/Graphics/SVG/1.1/DTD/svg11.dtd"><svg t="1784796527311" class="icon" viewBox="0 0 1024 1024" version="1.1" xmlns="http://www.w3.org/2000/svg" p-id="5781" xmlns:xlink="http://www.w3.org/1999/xlink" width="200" height="200"><path d="M294.784 300.928c0 54.656-49.408 225.92 153.472 248.832 88.576 21.376 111.232 68.992 103.552 211.584-0.128 11.52-0.512 23.04-1.408 34.432-30.976 17.664-52.864 28.16-65.664 31.872 2.048-19.712 22.784-175.616-19.712-211.84-42.368-36.224-71.936-40.704-115.712-46.848-21.12-3.072-54.272-22.144-79.232-38.784-25.088-16.512-39.68-48.64-44.16-78.72-2.944-20.096-3.84-49.024-2.56-87.04 16-19.456 39.808-40.704 71.424-63.488z m84.736-52.608c-1.408 19.84-29.952 191.616 52.096 232.32 29.952 14.976 42.496 20.736 63.744 26.112 21.12 5.376 74.752 13.056 96.896 37.248 8.96 9.728 22.528 26.24 30.08 47.104 11.008 30.72 13.952 74.368 13.952 119.68v34.176c-23.936 19.328-44.16 32.768-60.8 40.576 0-23.168 7.68-131.84-12.544-176.64-20.224-44.672-41.856-65.664-77.824-70.784-35.968-5.12-93.952-21.248-117.12-42.24-23.168-20.992-53.504-52.608-53.504-105.6 0-35.456 0.768-69.504 2.304-102.272 23.552-18.304 44.288-31.488 62.72-39.68z m86.272-41.472c-2.304 39.168-7.68 132.864 9.6 181.376 17.408 48.512 54.144 75.648 94.464 83.2 40.32 7.424 112.128 33.152 130.048 79.616 16.256 42.24 17.92 67.456 18.176 88.192v37.12c-22.144 21.76-41.728 38.784-58.88 51.072 0-63.872-0.256-124.672-17.408-160.512-17.152-35.712-39.68-57.216-88.96-69.504-49.152-12.416-100.608-17.792-131.584-61.056-20.736-28.8-28.16-76.544-22.528-143.104l5.12-56.32c20.48-11.904 41.088-22.016 61.952-30.08z m0 0" p-id="5782"></path><path d="M190.08 384.128c2.432 41.856 5.632 69.888 9.6 84.352 11.008 40.576 42.368 70.912 56.448 80 22.784 14.848 67.328 34.944 101.376 39.808 22.656 3.2 47.232 11.008 73.6 23.424 24.704 17.408 37.504 34.432 38.4 50.944 5.248 106.496-9.984 142.592-16.64 179.968-75.648 49.536-388.608 54.656-395.008-136.96-4.352-127.616 39.68-234.88 132.224-321.536z m701.312-137.6c68.352 105.472 31.616 240-110.08 403.712-0.256-12.288-1.408-24.576-3.584-36.736-17.664-83.2-49.024-119.168-87.68-134.272-38.656-15.232-150.784-16.64-172.544-100.48-9.472-62.464-7.04-126.08 7.04-187.648 174.464-51.84 296.832-33.408 366.848 55.424z m0 0" p-id="5783"></path></svg>