<?xml version="1.0" standalone="no"?><!DOCTYPE svg PUBLIC "-//W3C//DTD SVG 1.1//EN" "http://www.w3.org/Graphics/SVG/1.1/DTD/svg11.dtd"><svg t="1724664408009" class="icon" viewBox="0 0 1024 1024" version="1.1" xmlns="http://www.w3.org/2000/svg" p-id="5317" xmlns:xlink="http://www.w3.org/1999/xlink" width="200" height="200"><path d="M451.764706 630.663529c-128-7.830588-237.327059-40.357647-301.176471-85.534117V632.470588c0 60.235294 130.108235 109.327059 301.176471 118.964706v60.235294c-128-7.830588-237.327059-40.056471-301.176471-85.534117v87.341176H90.352941v-572.235294c0-116.254118 188.536471-210.823529 421.647059-210.823529s421.647059 94.569412 421.647059 210.823529v340.931765h-60.235294v-232.207059c-73.788235 60.235294-208.112941 102.098824-361.411765 102.098823s-287.623529-40.96-361.411765-102.098823v102.098823c0 60.235294 130.409412 109.327059 301.176471 118.964706v60.235294zM512 993.882353c-233.110588 0-421.647059-80.715294-421.647059-180.705882h60.235294c0 66.56 161.731765 120.470588 361.411765 120.470588z m0-602.352941c199.378824 0 361.411765-67.463529 361.411765-150.588236s-162.032941-150.588235-361.411765-150.588235S150.588235 157.816471 150.588235 240.941176s162.032941 150.588235 361.411765 150.588236z m271.058824 361.411764" fill="#333333" p-id="5318"></path><path d="M757.76 642.409412A175.887059 175.887059 0 1 0 933.647059 817.995294a175.887059 175.887059 0 0 0-175.887059-175.585882z m0 310.512941a134.927059 134.927059 0 1 1 134.625882-134.927059 134.625882 134.625882 0 0 1-134.625882 134.927059z m0-209.016471a74.089412 74.089412 0 1 0 74.089412 74.089412 74.089412 74.089412 0 0 0-74.089412-74.089412z m0 107.52a33.430588 33.430588 0 1 1 0-66.56 33.430588 33.430588 0 0 1 0 66.56z" fill="#333333" p-id="5319"></path></svg>