<?xml version="1.0" standalone="no"?><!DOCTYPE svg PUBLIC "-//W3C//DTD SVG 1.1//EN" "http://www.w3.org/Graphics/SVG/1.1/DTD/svg11.dtd"><svg t="1725873616723" class="icon" viewBox="0 0 1024 1024" version="1.1" xmlns="http://www.w3.org/2000/svg" p-id="23732" xmlns:xlink="http://www.w3.org/1999/xlink" width="200" height="200"><path d="M510.454 907.373a392.175 392.175 0 0 1-278.371-115.27 392.81 392.81 0 0 1-115.271-278.411 392.175 392.175 0 0 1 115.27-278.371 392.81 392.81 0 0 1 278.411-115.27 392.176 392.176 0 0 1 278.411 115.27 392.811 392.811 0 0 1 115.231 278.371 392.176 392.176 0 0 1-115.23 278.41 392.81 392.81 0 0 1-278.412 115.271h-0.04z m0-722.185c-181.122 0-328.504 147.382-328.504 328.504 0 181.161 147.382 328.544 328.543 328.544 181.162 0 328.544-147.383 328.544-328.544 0-181.122-147.382-328.504-328.544-328.504h-0.04zM94.464 298.354a32.668 32.668 0 0 1-27.983-49.18A522.13 522.13 0 0 1 245.975 68.806c15.45-9.226 35.451-4.221 44.735 11.194 9.2 15.44 4.198 35.413-11.194 44.695A456.357 456.357 0 0 0 122.45 282.517a32.549 32.549 0 0 1-27.984 15.877v-0.04z m835.193-0.952a32.549 32.549 0 0 1-27.983-15.878A456.357 456.357 0 0 0 744.249 124.1c-14.957-9.414-19.668-29.044-10.613-44.221C742.69 64.7 762.202 59.522 777.59 68.21a521.812 521.812 0 0 1 179.812 179.93c9.202 15.435 4.156 35.406-11.273 44.617a30.496 30.496 0 0 1-16.512 4.685l0.04-0.041z" fill="#000000" p-id="23733"></path><path d="M198.224 959.69a32.55 32.55 0 0 1-23.022-55.572l104.632-104.632c12.715-12.715 33.33-12.715 46.044 0 12.715 12.715 12.715 33.33 0 46.044L221.246 950.123a32.114 32.114 0 0 1-23.022 9.566z m626.246 0a32.115 32.115 0 0 1-23.023-9.527L696.855 845.49c-12.352-12.774-12.177-33.093 0.393-45.652 12.57-12.559 32.888-12.716 45.651-0.353l104.593 104.632a32.549 32.549 0 0 1-23.022 55.572z" fill="#000000" p-id="23734"></path><path d="M658.312 693.108a32.397 32.397 0 0 1-22.903-9.408L487.59 536.833a32.43 32.43 0 0 1-9.646-23.141V265.806a32.549 32.549 0 1 1 65.098 0v234.35l138.173 137.3c12.821 12.703 12.821 33.343 0.12 46.005a31.603 31.603 0 0 1-23.023 9.647z" fill="#E76558" p-id="23735"></path></svg>