<?xml version="1.0" standalone="no"?><!DOCTYPE svg PUBLIC "-//W3C//DTD SVG 1.1//EN" "http://www.w3.org/Graphics/SVG/1.1/DTD/svg11.dtd"><svg t="1719672318763" class="icon" viewBox="0 0 1024 1024" version="1.1" xmlns="http://www.w3.org/2000/svg" p-id="3957" xmlns:xlink="http://www.w3.org/1999/xlink" width="200" height="200"><path d="M650.633846 892.455385c-7.876923 0-14.966154-0.787692-21.267692-3.15077a44.189538 44.189538 0 0 1-15.753846-9.452307 36.470154 36.470154 0 0 1-10.24-14.178462 41.117538 41.117538 0 0 1-3.15077-16.541538c0-6.301538 1.575385-13.390769 3.938462-19.692308 3.150769-6.301538 7.089231-12.603077 12.603077-18.116923l4.726154-4.726154 6.301538 2.363077c7.876923 3.150769 14.966154 4.726154 20.48 6.301538 16.541538 3.150769 27.569231 2.363077 39.384616-4.726153 7.876923-3.938462 16.541538-11.027692 24.418461-18.904616 7.876923-8.664615 16.541538-18.904615 24.418462-31.507692 7.876923-11.027692 14.966154-24.418462 22.843077-37.809231-3.150769-6.301538-5.513846-12.603077-7.089231-18.904615l-9.452308-25.206154c-3.150769-8.664615-6.301538-18.116923-10.24-27.569231l-11.027692-31.507692c-3.150769-8.664615-6.301538-15.753846-9.452308-21.267692a45.686154 45.686154 0 0 0-9.452308-11.027693 17.880615 17.880615 0 0 0-8.664615-5.513846 67.347692 67.347692 0 0 0-28.356923 0c-6.301538 1.575385-14.178462 3.150769-21.267692 4.726154l-10.24 1.575385-7.089231-34.658462 8.664615-3.150769c10.24-3.150769 20.48-6.301538 29.932308-9.452308 9.452308-3.150769 18.904615-5.513846 26.781538-7.876923 7.876923-2.363077 14.966154-3.938462 21.267693-4.726154 16.541538-3.150769 22.843077-2.363077 31.507692 0.787692 5.513846 2.363077 11.027692 5.513846 16.541539 11.027693 4.726154 4.726154 8.664615 11.027692 13.390769 18.904615 3.938462 7.876923 7.876923 17.329231 11.815384 29.144616 4.726154 13.390769 9.452308 25.993846 13.39077 37.80923 1.575385 4.726154 3.938462 10.24 5.513846 14.966154 6.301538-12.603077 13.390769-23.630769 19.692307-33.870769 9.452308-16.541538 19.692308-30.72 30.72-42.535385 11.027692-12.603077 21.267692-21.267692 32.295385-28.356923 18.904615-11.815385 41.747692-13.390769 58.289231-7.089231 6.301538 2.363077 11.815385 6.301538 16.541538 10.24s7.876923 9.452308 10.24 15.753847a47.655385 47.655385 0 0 1-3.150769 40.96c-3.938462 7.876923-10.24 14.966154-18.116923 19.692307l-2.363077 1.575385h-7.876923l-4.726154-3.938462-6.301538-6.301538a31.901538 31.901538 0 0 0-7.089231-3.938462 23.000615 23.000615 0 0 0-7.089231-1.575384c-10.24-1.575385-19.692308 0-28.356923 5.513846-7.089231 4.726154-14.966154 11.027692-22.055385 19.692308-7.876923 8.664615-14.966154 19.692308-22.055384 30.72-6.301538 11.027692-13.390769 22.843077-19.692308 36.233846 6.301538 18.116923 12.603077 33.870769 18.116923 48.049231s11.815385 27.569231 16.541539 38.596923c4.726154 10.24 10.24 19.692308 14.966154 25.993846 4.726154 6.301538 9.452308 11.815385 13.390769 15.753846 3.938462 3.150769 8.664615 6.301538 13.390769 7.876923 7.876923 2.363077 19.692308 2.363077 27.569231 1.575385 3.938462 0 7.089231-0.787692 11.027692-1.575385 3.150769-0.787692 7.089231-1.575385 11.027692-2.363077s8.664615-2.363077 13.39077-4.726154l9.452307-3.150769 10.24 29.932308-6.301538 3.938461c-7.876923 5.513846-16.541538 10.24-25.206154 14.966154-7.876923 3.938462-16.541538 7.876923-26.781538 11.027692-9.452308 3.150769-18.116923 5.513846-26.781539 7.089231-24.418462 4.726154-41.747692 3.150769-56.713846-6.301538-8.664615-5.513846-17.329231-14.178462-25.206154-25.993846-7.089231-11.027692-14.966154-25.206154-22.055385-41.747693-5.513846-11.815385-11.027692-25.206154-16.541538-40.172307-7.089231 12.603077-14.966154 24.418462-22.843077 36.233846-11.027692 16.541538-22.055385 31.507692-33.083077 42.535384-11.815385 12.603077-22.843077 22.055385-34.658461 29.144616-11.815385 9.452308-24.418462 12.603077-37.021539 12.603077zM116.578462 1024c-24.418462 0-43.323077-4.726154-55.926154-14.966154a48.364308 48.364308 0 0 1-21.267693-40.172308c0-14.178462 5.513846-25.993846 15.753847-33.870769 9.452308-7.876923 23.630769-11.815385 40.172307-11.815384 7.876923 0 18.904615 0.787692 33.083077 2.363077 23.630769 3.150769 46.473846 4.726154 67.741539 4.726153 30.72 0 53.563077-7.089231 66.953846-20.48 9.452308-10.24 25.206154-37.809231 44.110769-112.64l101.612308-408.812307H285.144615l14.966154-59.076923h123.667693c20.48-83.495385 43.323077-146.510769 69.316923-187.47077 26.781538-44.110769 63.015385-78.769231 106.338461-103.975384C642.756923 12.603077 685.292308 0 723.889231 0c23.630769 0 41.747692 4.726154 54.350769 14.966154 13.390769 10.24 20.48 23.630769 20.48 38.596923 0 13.390769-4.726154 25.206154-14.178462 33.870769-9.452308 8.664615-21.267692 12.603077-36.233846 12.603077-12.603077 0-36.233846-3.938462-70.892307-11.027692-15.753846-3.150769-27.569231-4.726154-36.233847-4.726154-18.904615 0-36.233846 12.603077-52.775384 37.021538-17.329231 26.781538-31.507692 63.803077-42.535385 110.276923l-22.843077 96.886154h137.058462l-13.390769 59.076923H508.061538l-78.76923 322.166154c-25.993846 102.4-67.741538 180.381538-124.455385 233.944616-57.501538 53.563077-120.516923 80.344615-188.258461 80.344615z" p-id="3958" fill="#2c2c2c"></path></svg>