<?xml version="1.0" standalone="no"?><!DOCTYPE svg PUBLIC "-//W3C//DTD SVG 1.1//EN" "http://www.w3.org/Graphics/SVG/1.1/DTD/svg11.dtd"><svg t="1725865502800" class="icon" viewBox="0 0 1024 1024" version="1.1" xmlns="http://www.w3.org/2000/svg" p-id="5185" xmlns:xlink="http://www.w3.org/1999/xlink" width="200" height="200"><path d="M538.88 855.04a132.352 132.352 0 0 1-18.3296-1.2288l-16.2816-2.2528-7.2192-14.848c-7.424-15.36-0.7168-27.0336 6.9632-40.6528 3.9936-6.9632 9.4208-16.2304 15.0528-25.6 1.6384-2.7136 3.4304-5.7856 5.12-8.9088-15.36-3.072-28.4672-6.0928-31.1808-6.7072-154.7264-36.608-207.4112 6.8608-207.9232 7.2704a34.4576 34.4576 0 0 1-5.7344 4.1984C132.1984 852.2752 80.4864 839.68 40.1408 819.5072l-2.048-1.024a33.4336 33.4336 0 0 1-14.1312-46.6944c2.048-3.4816 5.12-8.2432 7.9872-13.2608-16.2816-9.2672-18.5856-11.4688-20.48-13.5168a33.5872 33.5872 0 0 1-5.12-41.472c28.0576-45.2608 114.3808-47.7184 140.1856-47.3088A67.584 67.584 0 0 0 204.8 625.1008C269.5168 501.76 437.6576 469.1456 449.024 467.0464l2.9696-0.4096c191.1808-20.992 240.64-155.1872 242.432-160.8704l1.1264-2.7648c52.48-114.5856 130.7648-134.5024 139.264-136.3456s35.84-8.3968 55.6032-5.12v-0.3072c22.9376 2.9696 33.6384-0.8704 36.1984-2.048l2.0992-1.3824c25.6-16.7936 55.552-14.2336 79.9744 6.8096a34.1504 34.1504 0 0 1 10.496 16.2304c22.0672 76.3392-39.5264 130.56-58.9312 142.7968-35.84 27.5968-45.5168 42.9056-47.7696 47.3088a31.8464 31.8464 0 0 1-0.3072 5.4272c-18.3808 127.2832-46.3872 191.1296-55.1424 208.7936-34.3552 85.7088 13.568 111.6672 14.0288 111.9232a33.3824 33.3824 0 0 1 11.0592 52.224 90.2144 90.2144 0 0 1-26.6752 18.8416l-3.4816 1.4848a142.3872 142.3872 0 0 1-130.6624-15.104c-73.216 87.04-145.2544 100.5056-182.4256 100.5056zM380.416 678.2976a553.4208 553.4208 0 0 1 126.464 16.4352c18.432 4.1984 52.4288 11.3664 64.0512 12.4928a33.3824 33.3824 0 0 1 27.7504 46.08 348.16 348.16 0 0 1-17.7664 32.5632c29.7984-10.8032 68.5056-35.84 109.2096-91.3408a33.5872 33.5872 0 0 1 25.1392-13.6192 33.2288 33.2288 0 0 1 26.3168 10.5984 81.4592 81.4592 0 0 0 64 25.6c-21.504-31.2832-35.072-82.432-5.12-156.2624l0.4608-0.9728a17.408 17.408 0 0 1 0.8192-1.7408c5.12-10.24 31.232-66.56 49.0496-186.9824-1.7408-26.5216 22.3232-58.5728 73.3184-97.28l2.304-1.7408 1.3312-0.7168c4.3008-3.072 36.7616-27.5968 34.4064-62.0544-10.24 7.0656-34.1504 18.7904-79.872 12.8h-0.9216a167.2704 167.2704 0 0 0-30.976 4.0448l-3.328 0.8704c-5.12 1.28-56.32 16.128-95.3344 100.5568-5.7856 15.7184-70.1952 175.3088-292.608 200.192-11.9808 2.3552-150.7328 31.3344-200.0896 126.3616a129.2288 129.2288 0 0 1-113.8688 63.6928 269.568 269.568 0 0 0-51.6096 4.608l24.9344 13.4144-17.5616 27.8528-5.5808 8.96c24.5248 1.0752 67.0208-9.472 150.8864-58.3168 12.6464-10.4448 51.968-36.096 134.1952-36.096z m316.3648 55.04z m-448.1536-20.48h-0.256z m602.88-345.4976z m60.3648-3.2768c0 0.4096 0 0.8192 0.256 1.2288s-0.1536-0.768-0.256-1.2288z m17.7152-93.5936l-0.9728 0.512z" p-id="5186"></path><path d="M865.6384 262.5536a38.8608 38.8608 0 0 0-44.544 23.552s41.3696 21.6576 44.544-23.552z" p-id="5187"></path></svg>