<?xml version="1.0" standalone="no"?><!DOCTYPE svg PUBLIC "-//W3C//DTD SVG 1.1//EN" "http://www.w3.org/Graphics/SVG/1.1/DTD/svg11.dtd"><svg t="1725615027220" class="icon" viewBox="0 0 1024 1024" version="1.1" xmlns="http://www.w3.org/2000/svg" p-id="19876" xmlns:xlink="http://www.w3.org/1999/xlink" width="200" height="200"><path d="M329.216 239.104h355.84c94.72 0 169.984 50.176 201.728 132.096h-56.832c-28.16-66.048-78.848-81.92-144.896-81.92H329.216c-66.048 0-116.736 15.872-144.896 81.92H127.488c31.744-81.408 107.52-132.096 201.728-132.096zM864.768 585.728l-15.872 31.744h-113.152c-3.072 0-6.144-3.072-9.216-6.144-3.072-3.072-3.072-6.144-3.072-12.8V437.76h25.088v147.968h116.224zM474.112 475.648l-66.048 141.824h-28.16l78.848-169.984c3.072-6.144 9.216-12.8 15.872-9.216 6.144 0 12.8 3.072 15.872 9.216l78.848 169.984h-28.16l-12.8-31.744h-66.56l-15.872-31.744H512l-37.888-78.336zM562.176 572.928c-12.8-28.16-12.8-62.976 0-88.064 12.8-28.16 34.816-44.032 56.832-44.032h88.064l-15.872 31.744h-72.192c-15.872 0-28.16 9.216-37.888 28.16-6.144 18.944-6.144 40.96 0 59.904 6.144 18.944 22.016 28.16 37.888 28.16h91.136l-15.872 31.744h-75.776c-21.504-3.584-43.52-22.528-56.32-47.616zM373.248 616.96h-37.888l-75.776-88.064h69.12c6.144 0 9.216-3.072 15.872-9.216 3.072-6.144 6.144-12.8 6.144-18.944s-3.072-15.872-6.144-18.944c-3.072-6.144-9.216-9.216-15.872-9.216h-81.92v147.968h-25.088V440.832h110.08c25.088 0 44.032 28.16 44.032 59.904 0 31.744-18.944 59.904-44.032 59.904h-12.8l54.272 56.32zM685.056 806.4H329.216c-94.72 0-166.912-50.176-201.728-132.096H184.32c28.16 66.048 78.848 81.92 144.896 81.92h355.84c66.048 0 116.736-15.872 144.896-81.92h56.832c-31.232 81.408-107.008 132.096-201.728 132.096zM1000.448 616.96h-75.776c-34.816 0-62.976-40.96-62.976-88.064 0-50.176 28.16-88.064 62.976-88.064h88.064l-15.872 31.744h-72.192c-18.944 0-34.816 15.872-40.96 40.96h122.88l-15.872 31.744h-107.008c6.144 25.088 22.016 40.96 40.96 40.96h91.136l-15.36 30.72zM150.016 437.76H74.24c-37.888 0-66.048 37.888-66.048 88.064s28.16 91.136 66.048 88.064h75.776c18.944 0 34.816-9.216 47.104-25.088 12.8-15.872 18.944-37.888 18.944-62.976 0-47.104-31.744-88.064-66.048-88.064z m25.088 129.024c-6.144 12.8-15.872 18.944-28.16 15.872H74.24c-22.016 0-40.96-25.088-40.96-56.832 0-31.744 18.944-56.832 40.96-56.832h72.192c9.216 0 18.944 6.144 28.16 15.872 9.216 9.216 12.8 25.088 12.8 40.96 0 15.872-3.072 31.744-12.288 40.96z" p-id="19877"></path></svg>