<?xml version="1.0" standalone="no"?><!DOCTYPE svg PUBLIC "-//W3C//DTD SVG 1.1//EN" "http://www.w3.org/Graphics/SVG/1.1/DTD/svg11.dtd"><svg t="1719672018867" class="icon" viewBox="0 0 1024 1024" version="1.1" xmlns="http://www.w3.org/2000/svg" p-id="7065" xmlns:xlink="http://www.w3.org/1999/xlink" width="200" height="200"><path d="M871.616 572.544c18.496 0 30.336 5.952 35.648 17.92 5.248 12.16 7.936 24 7.936 35.648 0 16.64-2.368 32.768-7.04 48h-37.44c5.12-17.92 7.808-34.176 7.808-48.768a23.552 23.552 0 0 0-3.008-10.88c-1.984-3.84-5.824-5.76-11.52-5.76-4.16 0-7.744 1.152-10.56 3.456A349.696 349.696 0 0 0 832 633.6l-72.64 76.416 32.832 103.424c3.584 11.2 7.296 20.48 10.88 28.032 3.584 7.424 8.192 11.072 13.696 11.072 9.152 0 17.28-7.04 24.512-21.056a211.2 211.2 0 0 0 15.616-37.44h35.072c-7.872 28.352-17.92 51.584-30.528 69.504-12.544 17.92-25.856 31.04-40.192 39.232a82.688 82.688 0 0 1-40.576 12.288c-20.608 0-36.224-7.04-46.976-21.248-10.752-14.272-20.352-34.176-28.672-60.288l-15.04-49.024-85.504 90.88c-24.96 26.368-45.824 39.488-62.4 39.488-22.848 0-34.304-15.232-34.304-45.696 0-21.632 4.48-43.2 13.696-64.896h42.112c-9.536 27.072-14.464 44.352-14.464 51.968 0 8.064 2.496 12.16 7.424 12.16 4.096 0 11.328-5.12 21.504-15.296l99.968-106.112-19.2-60.864c-3.84-12.416-7.04-21.76-9.28-27.52a43.456 43.456 0 0 0-8.832-14.272 17.792 17.792 0 0 0-13.12-5.504c-14.912 0-27.328 19.264-37.44 57.856h-35.84c8.384-27.392 17.792-49.984 28.672-68.16a134.4 134.4 0 0 1 36.48-41.6c13.632-9.536 28.096-14.464 43.456-14.464 20.224 0 36.608 7.296 48.96 21.76 12.288 14.464 22.4 34.432 30.272 59.84l6.272 19.968 60.032-64.896c23.424-24.448 44.48-36.672 63.232-36.672zM453.696 108.8c9.472 0 14.464 7.232 14.464 16.512l-0.128 1.92-1.216 6.272-2.368 9.6-4.544 15.808 2.112-2.304a289.28 289.28 0 0 1 14.016-14.272l6.336-5.76 5.888-4.8c16.064-12.224 33.92-18.432 53.376-18.432 30.976 0 56.768 14.08 76.608 41.472 19.328 26.752 28.928 60.8 28.928 102.144 0 89.6-25.408 174.72-76.096 255.36-51.328 81.536-106.56 123.072-166.016 123.072-28.608 0-50.752-13.184-66.112-38.592l-4.8-8.96-60.8 216.256c-2.56 9.536-4.352 17.536-5.632 24.704l-3.712 14.08-3.904 13.184-3.84 11.456 7.168 0.512c27.008 2.304 40.512 5.632 44.736 13.376l1.088 3.136 0.384 3.2c0 13.44-11.52 18.752-29.44 18.752-8.832 0-19.2-0.448-30.976-1.28l-12.288-1.024-21.568-2.304-14.528 1.216-34.048 2.24-31.616 1.152H128.64l-5.12-0.768c-9.024-2.176-14.72-8.832-14.72-18.048 0-12.544 9.216-19.392 24.192-21.504l13.632-1.28c12.8-1.536 20.608-3.968 22.72-6.4a21.376 21.376 0 0 0 2.688-4.48l3.584-8.32 4.352-12.032 4.992-15.616 2.752-9.024L376.32 153.152l-5.44-0.128-3.712 0.704c-2.944 0.448-6.528 0.64-10.752 0.64-14.144 0-23.872-6.272-23.872-18.816a16.64 16.64 0 0 1 14.528-17.28l4.608-0.384 25.6-0.064 22.912-0.64c17.28-0.832 30.08-2.24 38.144-4.288l4.224-1.28A34.944 34.944 0 0 1 453.76 108.8z m75.392 51.2c-22.912 0-48.192 21.376-74.88 65.664-19.456 32.192-38.976 81.664-58.304 148.352l-31.68 113.472-2.56 9.664a148.48 148.48 0 0 0-5.76 33.216c0 17.6 4.608 32.64 13.824 45.312 8.768 11.968 18.496 17.536 29.824 17.536 36.8 0 74.88-48.64 111.808-147.968 33.088-88.96 49.6-165.056 49.6-228.032 0-39.936-10.688-57.216-31.872-57.216z" fill="#2c2c2c" p-id="7066"></path></svg>