<?xml version="1.0" standalone="no"?><!DOCTYPE svg PUBLIC "-//W3C//DTD SVG 1.1//EN" "http://www.w3.org/Graphics/SVG/1.1/DTD/svg11.dtd"><svg t="1782091716484" class="icon" viewBox="0 0 1024 1024" version="1.1" xmlns="http://www.w3.org/2000/svg" p-id="2737" xmlns:xlink="http://www.w3.org/1999/xlink" width="200" height="200"><path d="M1007.997005 777.10696L684.951271 590.624504a32.381169 32.381169 0 0 0-48.444261 27.966419v373.027908a32.318173 32.318173 0 0 0 48.380264 27.965419l323.046734-186.481456a32.318173 32.318173 0 0 0 0.063997-55.996834z" fill="#2c2c2c" p-id="2738"></path><path d="M91.010854 936.006975a47.357322 47.357322 0 0 1-14.911157-35.262006V123.140937a47.357322 47.357322 0 0 1 14.783164-35.068017 50.04417 50.04417 0 0 1 36.348945-14.784164h361.572556v302.632888h311.016414V535.397627h75.898708l1.983888-234.605735L571.166705 0.013899h-443.934899A124.790944 124.790944 0 0 0 37.190897 36.42584 115.703458 115.703458 0 0 0 0.201989 123.140937v777.606032c0 34.301061 12.415298 63.418414 36.988908 86.84109 24.126636 24.061639 54.396924 36.348945 90.040909 36.348945h388.067057v-73.274857H127.231806a49.724188 49.724188 0 0 1-36.220952-14.654172zM564.70307 100.742204l208.432215 201.840587H564.70307V100.742204z" fill="#2c2c2c" p-id="2739"></path></svg>