<?xml version="1.0" standalone="no"?><!DOCTYPE svg PUBLIC "-//W3C//DTD SVG 1.1//EN" "http://www.w3.org/Graphics/SVG/1.1/DTD/svg11.dtd">
<svg t="1734185644800" class="icon" viewBox="0 0 1024 1024" version="1.1" xmlns="http://www.w3.org/2000/svg" p-id="3120"
     width="200" height="200"><path d="M819.2 194.56a10.24 10.24 0 0 1 10.24 10.24v614.4a10.24 10.24 0 0 1-10.24 10.24H204.8a10.24 10.24 0 0 1-10.24-10.24V204.8a10.24 10.24 0 0 1 10.24-10.24z m-10.24 20.48H215.04v593.92h593.92V215.04zM401.408 387.33824l1.024 0.7168 0.9728 0.84992 108.60544 108.5952 108.61568-108.5952a10.24 10.24 0 0 1 15.32928 13.5168l-0.84992 0.96256L526.49984 512l108.60544 108.61568a10.24 10.24 0 0 1-13.5168 15.32928l-0.96256-0.84992L512 526.47936 403.4048 635.0848a10.24 10.24 0 0 1-15.32928-13.5168l0.84992-0.96256 108.5952-108.61568-108.5952-108.60544a10.24 10.24 0 0 1 12.47232-16.04608z" fill="#202020" p-id="3121"></path></svg>