<?xml version="1.0" standalone="no"?><!DOCTYPE svg PUBLIC "-//W3C//DTD SVG 1.1//EN" "http://www.w3.org/Graphics/SVG/1.1/DTD/svg11.dtd"><svg t="1736230329755" class="icon" viewBox="0 0 1024 1024" version="1.1" xmlns="http://www.w3.org/2000/svg" p-id="3265" xmlns:xlink="http://www.w3.org/1999/xlink" width="200" height="200"><path d="M558.19264 544.1536l1.04448 0.7168 0.96256 0.84992L716.8 702.3104V604.16a10.24 10.24 0 0 1 9.04192-10.16832L727.04 593.92a10.24 10.24 0 0 1 10.16832 9.04192L737.28 604.16v123.21792l-0.04096 0.53248L737.28 727.04a10.32192 10.32192 0 0 1-2.18112 6.31808c-0.512 0.64512-1.09568 1.2288-1.7408 1.7408l0.9216-0.8192a10.32192 10.32192 0 0 1-6.0416 2.92864l-0.32768 0.03072a10.30144 10.30144 0 0 1-0.53248 0.03072L727.04 737.28H604.16a10.24 10.24 0 0 1-1.19808-20.40832L604.16 716.8h98.1504L545.72032 560.19968a10.24 10.24 0 0 1 12.47232-16.04608zM419.84 286.72a10.24 10.24 0 0 1 1.19808 20.40832L419.84 307.2h-98.1504l156.59008 156.60032a10.24 10.24 0 0 1-13.5168 15.32928l-0.96256-0.84992L307.2 321.6896V419.84a10.24 10.24 0 0 1-9.04192 10.16832L296.96 430.08a10.24 10.24 0 0 1-10.16832-9.04192L286.72 419.84V296.77568c0-0.24576 0.02048-0.49152 0.04096-0.72704L286.72 296.96a10.32192 10.32192 0 0 1 2.18112-6.31808c0.512-0.6656 1.1264-1.25952 1.792-1.78176l-0.9728 0.86016a10.31168 10.31168 0 0 1 6.144-2.93888L296.96 286.72h122.88z" fill="#202020" p-id="3266"></path></svg>