<?xml version="1.0" standalone="no"?><!DOCTYPE svg PUBLIC "-//W3C//DTD SVG 1.1//EN" "http://www.w3.org/Graphics/SVG/1.1/DTD/svg11.dtd">
<svg t="1734401909128" class="icon" viewBox="0 0 1024 1024" version="1.1" xmlns="http://www.w3.org/2000/svg" p-id="3262"
     width="200" height="200"><path d="M204.8 645.12a10.24 10.24 0 0 1 10.16832 9.04192L215.04 655.36v98.17088l105.40032-105.41056a10.24 10.24 0 0 1 15.32928 13.5168l-0.84992 0.96256L229.55008 768H327.68a10.24 10.24 0 0 1 10.16832 9.04192L337.92 778.24a10.24 10.24 0 0 1-9.04192 10.16832L327.68 788.48l-123.45344-0.02048-1.01376-0.1024-0.8192-0.16384-1.1264-0.33792-0.63488-0.27648a10.20928 10.20928 0 0 1-6.00064-8.1408L194.56 778.24V655.36a10.24 10.24 0 0 1 10.24-10.24z m614.4 0a10.24 10.24 0 0 1 10.16832 9.04192L829.44 655.36v122.88a10.24 10.24 0 0 1-4.9152 8.7552l-1.32096 0.65536-0.48128 0.2048-1.11616 0.33792-1.20832 0.21504L819.2 788.48H696.32a10.24 10.24 0 0 1-1.19808-20.40832L696.32 768h98.11968l-105.3696-105.40032a10.24 10.24 0 0 1 13.52704-15.32928l0.96256 0.84992L808.96 753.54112V655.36a10.24 10.24 0 0 1 9.04192-10.16832L819.2 645.12zM634.88 419.84a10.24 10.24 0 0 1 10.24 10.24v163.84a10.24 10.24 0 0 1-10.24 10.24H389.12a10.24 10.24 0 0 1-10.24-10.24V430.08a10.24 10.24 0 0 1 10.24-10.24z m-10.24 20.48H399.36v143.36h225.28V440.32zM327.68 235.52a10.24 10.24 0 0 1 1.19808 20.40832L327.68 256h-98.11968l105.3696 105.40032a10.24 10.24 0 0 1-13.52704 15.32928l-0.96256-0.84992L215.04 270.45888V368.64a10.24 10.24 0 0 1-9.04192 10.16832L204.8 378.88a10.24 10.24 0 0 1-10.16832-9.04192L194.56 368.64V245.76a10.24 10.24 0 0 1 4.9152-8.7552l1.32096-0.65536 0.48128-0.2048 1.11616-0.33792 1.20832-0.21504L204.8 235.52h122.88z m491.52 0c0.54272 0 1.06496 0.04096 1.5872 0.12288l0.8192 0.16384 1.1264 0.33792 0.63488 0.27648c3.23584 1.4336 5.5808 4.49536 6.00064 8.1408L829.44 245.76v122.88a10.24 10.24 0 0 1-20.40832 1.19808L808.96 368.64v-98.19136L703.55968 375.87968a10.24 10.24 0 0 1-15.32928-13.5168l0.84992-0.96256L794.4192 256H696.32a10.24 10.24 0 0 1-10.16832-9.04192L686.08 245.76a10.24 10.24 0 0 1 9.04192-10.16832L696.32 235.52h122.88z" fill="#202020" p-id="3263"></path></svg>