<?xml version="1.0" standalone="no"?><!DOCTYPE svg PUBLIC "-//W3C//DTD SVG 1.1//EN" "http://www.w3.org/Graphics/SVG/1.1/DTD/svg11.dtd">
<svg t="1734185634134" class="icon" viewBox="0 0 1024 1024" version="1.1" xmlns="http://www.w3.org/2000/svg" p-id="2968"
     width="200" height="200"><path d="M430.10048 583.68a10.24 10.24 0 0 1 10.24 10.24v225.28a10.24 10.24 0 0 1-10.24 10.24h-225.28a10.24 10.24 0 0 1-10.24-10.24V593.92a10.24 10.24 0 0 1 10.24-10.24zM819.2 194.56a10.24 10.24 0 0 1 10.16832 9.04192L829.44 204.8v614.4a10.24 10.24 0 0 1-9.04192 10.16832L819.2 829.44H552.96a10.24 10.24 0 0 1-1.19808-20.40832L552.96 808.96h256V215.04H215.04v256a10.24 10.24 0 0 1-9.04192 10.16832L204.8 481.28a10.24 10.24 0 0 1-10.16832-9.04192L194.56 471.04V204.8a10.24 10.24 0 0 1 9.04192-10.16832L204.8 194.56h614.4zM419.85024 604.16H215.06048v204.8h204.78976V604.16zM716.8 296.96l0.768 0.03072 1.29024 0.17408 1.13664 0.3072 1.13664 0.45056 1.00352 0.53248 0.98304 0.68608 0.9216 0.8192c0.36864 0.3584 0.69632 0.74752 0.99328 1.14688l0.72704 1.1264 0.55296 1.16736 0.3584 1.0752 0.3072 1.536L727.04 307.2v163.84a10.24 10.24 0 0 1-20.40832 1.19808L706.56 471.04V331.91936L498.75968 539.71968a10.24 10.24 0 0 1-15.32928-13.5168l0.84992-0.96256L692.06016 317.44H552.96a10.24 10.24 0 0 1-10.16832-9.04192L542.72 307.2a10.24 10.24 0 0 1 9.04192-10.16832L552.96 296.96h163.84z" fill="#202020" p-id="2969"></path></svg>