<?xml version="1.0" standalone="no"?><!DOCTYPE svg PUBLIC "-//W3C//DTD SVG 1.1//EN" "http://www.w3.org/Graphics/SVG/1.1/DTD/svg11.dtd">
<svg t="1736231147874" class="icon" viewBox="0 0 1024 1024" version="1.1" xmlns="http://www.w3.org/2000/svg" p-id="3691"
     width="200" height="200"><path d="M512 194.56c175.3088 0 317.44 142.1312 317.44 317.44 0 175.3088-142.1312 317.44-317.44 317.44-175.3088 0-317.44-142.1312-317.44-317.44 0-175.3088 142.1312-317.44 317.44-317.44z m0 20.48c-164.00384 0-296.96 132.95616-296.96 296.96s132.95616 296.96 296.96 296.96 296.96-132.95616 296.96-296.96-132.95616-296.96-296.96-296.96z m163.84 286.72a10.24 10.24 0 0 1 1.19808 20.40832L675.84 522.24H348.16a10.24 10.24 0 0 1-1.19808-20.40832L348.16 501.76h327.68z" fill="#2c2c2c" p-id="3692"></path></svg>