<?xml version="1.0" standalone="no"?><!DOCTYPE svg PUBLIC "-//W3C//DTD SVG 1.1//EN" "http://www.w3.org/Graphics/SVG/1.1/DTD/svg11.dtd">
<svg t="1736230576361" class="icon" viewBox="0 0 1024 1024" version="1.1" xmlns="http://www.w3.org/2000/svg" p-id="3414"
     width="200" height="200"><path d="M819.2 194.56a10.24 10.24 0 0 1 10.24 10.24v614.4a10.24 10.24 0 0 1-10.24 10.24H204.8a10.24 10.24 0 0 1-10.24-10.24V204.8a10.24 10.24 0 0 1 10.24-10.24z m-10.24 20.48H215.04v593.92h593.92V215.04zM675.84 501.76a10.24 10.24 0 0 1 1.19808 20.40832L675.84 522.24H348.16a10.24 10.24 0 0 1-1.19808-20.40832L348.16 501.76h327.68z" fill="#2c2c2c" p-id="3415"></path></svg>