<?xml version="1.0" standalone="no"?><!DOCTYPE svg PUBLIC "-//W3C//DTD SVG 1.1//EN" "http://www.w3.org/Graphics/SVG/1.1/DTD/svg11.dtd">
<svg t="1734406792422" class="icon" viewBox="0 0 1024 1024" version="1.1" xmlns="http://www.w3.org/2000/svg"
     p-id="10600"
     width="200" height="200"><path d="M512 378.88l0.60416 0.02048 1.05472 0.11264 0.7168 0.14336 0.768 0.21504 1.18784 0.47104 0.7168 0.36864 0.93184 0.59392 0.9216 0.74752 0.74752 0.768 81.92 92.16a10.24 10.24 0 0 1-14.3872 14.51008l-0.9216-0.91136L522.24 416.0512V747.52a10.24 10.24 0 0 1-20.40832 1.19808L501.76 747.52V416.0512l-64.03072 72.02816a10.24 10.24 0 0 1-13.43488 1.6384l-1.024-0.78848a10.24 10.24 0 0 1-1.6384-13.43488l0.79872-1.024 81.92-92.16c0.32768-0.36864 0.67584-0.70656 1.04448-1.024l0.9728-0.7168 1.08544-0.62464 0.74752-0.33792 0.99328-0.33792 1.14688-0.256 0.82944-0.1024L512 378.88z m204.8-92.16a10.24 10.24 0 0 1 1.19808 20.40832L716.8 307.2H307.2a10.24 10.24 0 0 1-1.19808-20.40832L307.2 286.72h409.6z" fill="#202020" p-id="10601"></path></svg>