<?xml version="1.0" standalone="no"?><!DOCTYPE svg PUBLIC "-//W3C//DTD SVG 1.1//EN" "http://www.w3.org/Graphics/SVG/1.1/DTD/svg11.dtd"><svg t="1736169338160" class="icon" viewBox="0 0 1024 1024" version="1.1" xmlns="http://www.w3.org/2000/svg" p-id="21948" xmlns:xlink="http://www.w3.org/1999/xlink" width="200" height="200"><path d="M345.04 68l-1.12 0.016c-21.576 0.592-38.88 18.268-38.88 39.984l-0.004 230.412-2.028 2.1C230.24 416.16 193.192 504.576 193.192 604c0 22.092 17.908 40 40 40h565.616c23.476 0 41.904-20.12 39.844-43.508l-0.296-3.228c-9.504-99.92-50.616-186.38-122.496-257.976l-1.356-1.34V108c0-22.092-17.908-40-40-40H345.04z m39.996 80h249.468v207.076a40 40 0 0 0 12.94 29.46l2.272 2.1c53.396 49.78 87.24 107.508 102.072 174.1l0.708 3.264H275.808l0.356-2.54c9.416-65.848 41.296-124.612 96.536-177.488l0.928-0.92a40 40 0 0 0 11.412-27.976L385.036 148z" fill="#262626" p-id="21949"></path><path d="M472 572m42 0l0 0q42 0 42 42l0 304q0 42-42 42l0 0q-42 0-42-42l0-304q0-42 42-42Z" fill="#262626" p-id="21950"></path></svg>