<?xml version="1.0" standalone="no"?><!DOCTYPE svg PUBLIC "-//W3C//DTD SVG 1.1//EN" "http://www.w3.org/Graphics/SVG/1.1/DTD/svg11.dtd"><svg t="1736169729074" class="icon" viewBox="0 0 1024 1024" version="1.1" xmlns="http://www.w3.org/2000/svg" p-id="27518" xmlns:xlink="http://www.w3.org/1999/xlink" width="200" height="200"><path d="M759.808 609.28H264.192c-12.8 0-24.576-6.656-30.72-17.408s-6.656-24.576-0.512-35.328L373.76 297.472 317.44 130.56c-3.584-10.752-2.048-23.04 4.608-32.256 6.656-9.216 17.408-14.848 29.184-14.848h321.536c11.264 0 22.016 5.632 29.184 14.848 6.656 9.216 8.704 20.992 5.12 32.256l-55.296 173.056 139.776 252.928c6.144 11.264 6.144 24.576-0.512 35.328-6.656 10.752-18.432 17.408-31.232 17.408z m-435.2-71.68h374.784l-117.76-213.504c-4.608-8.704-5.632-18.944-2.56-28.16l45.056-140.8H400.896l45.056 134.144c3.072 9.216 2.048 19.968-2.56 28.672L324.608 537.6z" p-id="27519"></path><path d="M512 937.984c-19.968 0-35.84-15.872-35.84-35.84v-316.928c0-19.968 15.872-35.84 35.84-35.84s35.84 15.872 35.84 35.84v316.928c0 19.968-15.872 35.84-35.84 35.84z" p-id="27520"></path></svg>