<?xml version="1.0" standalone="no"?><!DOCTYPE svg PUBLIC "-//W3C//DTD SVG 1.1//EN" "http://www.w3.org/Graphics/SVG/1.1/DTD/svg11.dtd"><svg t="1736169846141" class="icon" viewBox="0 0 1024 1024" version="1.1" xmlns="http://www.w3.org/2000/svg" p-id="31662" xmlns:xlink="http://www.w3.org/1999/xlink" width="200" height="200"><path d="M708.705524 83.870476V390.095238l206.457905 213.382095c29.403429 33.596952-0.146286 78.945524-44.763429 78.945524H537.648762v291.498667c0 9.264762-5.168762 25.746286-24.478476 25.746286-19.260952 0-25.697524-16.481524-25.697524-25.746286v-291.498667H148.431238c-44.665905 0-68.510476-45.348571-39.107048-78.994286L319.390476 390.095238V87.771429l-126.293333-1.999239c-14.09219 0-22.576762-15.311238-22.576762-20.284952 0-4.87619 10.337524-17.65181 22.528-17.651809h628.248381c28.672 0 31.939048 8.777143 31.987809 19.846095 0 11.068952-11.995429 18.041905-31.987809 16.188952h-112.64z m-342.503619 1.852953V390.095238c0 12.580571-8.484571 25.112381-16.774095 34.620952l-208.067048 210.358858h729.86819L680.911238 424.71619c-8.289524-9.508571-20.041143-22.040381-20.041143-34.620952V85.723429H366.201905z" fill="#2c2c2c" p-id="31663"></path></svg>