<?xml version="1.0" standalone="no"?><!DOCTYPE svg PUBLIC "-//W3C//DTD SVG 1.1//EN" "http://www.w3.org/Graphics/SVG/1.1/DTD/svg11.dtd"><svg t="1734406787947" class="icon" viewBox="0 0 1024 1024" version="1.1" xmlns="http://www.w3.org/2000/svg" p-id="10446" xmlns:xlink="http://www.w3.org/1999/xlink" width="200" height="200"><path d="M716.8 727.04a10.24 10.24 0 0 1 1.19808 20.40832L716.8 747.52H307.2a10.24 10.24 0 0 1-1.19808-20.40832L307.2 727.04h409.6zM512 276.48a10.24 10.24 0 0 1 10.16832 9.04192L522.24 286.72v331.44832l64.03072-72.00768a10.24 10.24 0 0 1 16.09728 12.5952l-0.79872 1.00352-81.92 92.16c-0.32768 0.37888-0.67584 0.7168-1.04448 1.024l-0.9728 0.72704-1.08544 0.62464-0.74752 0.33792-0.99328 0.33792-1.14688 0.256a10.3424 10.3424 0 0 1-3.31776 0l-0.7168-0.14336-0.768-0.21504-1.18784-0.47104-0.7168-0.36864-0.93184-0.59392-0.9216-0.74752-0.74752-0.768-81.92-92.16a10.24 10.24 0 0 1 14.3872-14.51008l0.9216 0.91136L501.76 618.1888V286.72a10.24 10.24 0 0 1 10.24-10.24z" fill="#202020" p-id="10447"></path></svg>