<?xml version="1.0" standalone="no"?><!DOCTYPE svg PUBLIC "-//W3C//DTD SVG 1.1//EN" "http://www.w3.org/Graphics/SVG/1.1/DTD/svg11.dtd"><svg t="1752740652635" class="icon" viewBox="0 0 1024 1024" version="1.1" xmlns="http://www.w3.org/2000/svg" p-id="11068" xmlns:xlink="http://www.w3.org/1999/xlink" width="200" height="200"><path d="M984.448 252.672H746.752c-17.664 0-32-14.336-32-32s14.336-32 32-32H984.32c17.664 0 32 14.336 32 32s-14.208 32-31.872 32z" p-id="11069"></path><path d="M865.664 371.456c-17.664 0-32-14.336-32-32V101.888c0-17.664 14.336-32 32-32s32 14.336 32 32v237.568c0 17.664-14.336 32-32 32zM863.872 936.064H41.984c-17.664 0-32-14.336-32-32V220.672c0-17.664 14.336-32 32-32h543.488c17.664 0 32 14.336 32 32s-14.336 32-32 32H73.984v619.392h757.888V575.616c0-17.664 14.336-32 32-32s32 14.336 32 32v328.448c0 17.664-14.336 32-32 32z" p-id="11070"></path><path d="M271.36 665.472h-41.728l-32.64-134.016-32.384 134.016H123.008L78.464 465.152h41.088l27.008 141.952 32.896-141.952h34.944l33.28 141.952 26.752-141.952h41.088L271.36 665.472z" p-id="11071"></path><path d="M387.712 665.472H309.76V465.152h70.4c46.464 0 74.112 17.408 74.112 54.656 0 18.304-8.704 34.688-28.416 42.496 23.424 5.888 32.896 24.832 32.896 44.16-0.128 38.4-25.728 58.624-71.04 59.008z m-36.608-116.608H380.16c22.016 0 32.64-8.192 32.64-24.448 0-16.896-10.368-25.344-31.232-25.6h-30.464v50.048z m39.168 29.312h-39.168v54.016h35.2c21.12 0 30.976-11.264 30.976-26.24 0-17.92-9.088-27.264-27.008-27.776zM617.984 465.152H672v200.192h-41.344v-54.656l3.968-94.08-53.76 148.736h-28.416l-53.76-148.736 3.968 94.08v54.656h-41.344V465.152h54.016L566.784 610.56l51.2-145.408zM721.024 665.472H679.68V465.152h78.336c47.36 0 75.136 27.904 75.136 66.176 0 38.528-27.904 63.36-75.136 63.36h-36.864v70.784z m0-103.936h36.864c23.68 0 33.536-12.416 33.536-29.824 0-17.408-9.856-32.896-33.536-32.896h-36.864v62.72z" p-id="11072"></path></svg>