<?xml version="1.0" standalone="no"?><!DOCTYPE svg PUBLIC "-//W3C//DTD SVG 1.1//EN" "http://www.w3.org/Graphics/SVG/1.1/DTD/svg11.dtd"><svg t="1752739359864" class="icon" viewBox="0 0 1024 1024" version="1.1" xmlns="http://www.w3.org/2000/svg" p-id="10052" xmlns:xlink="http://www.w3.org/1999/xlink" width="200" height="200"><path d="M653.88544 0a92.16 92.16 0 0 1 65.09568 26.9312l187.61728 187.21792a92.16 92.16 0 0 1 27.05408 65.2288v120.6272A80.10752 80.10752 0 0 1 1013.76 480.09216v319.7952a80.10752 80.10752 0 0 1-77.55776 80.06656l-2.54976 0.03072v48.00512c0 53.02272-43.02848 96-96.12288 96H196.7104c-53.0944 0-96.12288-42.97728-96.12288-96v-48.00512A80.10752 80.10752 0 0 1 20.48 799.8976v-319.7952a80.10752 80.10752 0 0 1 77.55776-80.06656l2.54976-0.04096V96C100.58752 42.97728 143.616 0 196.7104 0h457.17504zM837.5296 879.99488H196.7104v17.28512a30.72 30.72 0 0 0 30.72 30.72h579.3792a30.72 30.72 0 0 0 30.72-30.72v-17.28512zM265.8304 559.49312h-40.04864l2.46784 159.86688h53.21728l35.10272-92.81536c2.0992-5.55008 4.17792-11.33568 6.2464-17.37728 2.048-6.0416 4.2496-12.76928 6.57408-20.19328h1.91488a514.94912 514.94912 0 0 0-1.40288 21.77024 909.23008 909.23008 0 0 0-0.73728 24.12544l-1.35168 84.49024h52.31616l67.50208-159.86688h-42.1888l-31.9488 88.20736a640 640 0 0 0-7.71072 22.38464 261.48864 261.48864 0 0 0-4.78208 16.76288H359.424a490.496 490.496 0 0 0 1.1264-17.7152c0.3072-6.42048 0.53248-13.89568 0.67584-22.44608l1.1264-87.1936h-52.31616l-36.10624 91.68896c-1.50528 4.05504-3.2256 9.17504-5.18144 15.36-1.9456 6.18496-4.00384 12.9536-6.18496 20.30592h-1.57696c1.28-13.12768 2.2528-24.56576 2.92864-34.304 0.67584-9.75872 1.01376-16.95744 1.01376-21.6064l0.90112-71.44448z m267.40736 0h-66.2528l-34.2016 159.86688h39.26016l20.24448-93.82912c0.37888-1.72032 1.16736-5.98016 2.36544-12.76928 1.19808-6.77888 2.70336-15.36 4.5056-25.7024h1.90464l5.7344 132.3008h39.38304l62.208-132.3008h1.35168a914.97472 914.97472 0 0 0-4.89472 18.90304 366.3872 366.3872 0 0 0-3.76832 16.87552l-20.13184 96.52224h39.48544l34.53952-159.86688h-68.74112l-37.0176 80.55808a346.624 346.624 0 0 0-7.58784 17.48992c-2.14016 5.36576-3.92192 10.4448-5.34528 15.24736 0.22528-3.97312 0.38912-7.5776 0.512-10.8032 0.1024-3.2256 0.16384-6.07232 0.16384-8.5504 0-2.92864-0.02048-5.34528-0.06144-7.26016a229.376 229.376 0 0 0-0.16384-5.44768l-3.4816-81.23392z m252.79488 0h-52.992L638.54592 719.36h44.88192l19.12832-34.08896h62.6688l4.15744 34.08896h42.41408L786.0224 559.49312z m-31.62112 31.2832l7.65952 64.34816h-43.08992l35.4304-64.34816zM608.33792 88.32H227.4304a30.72 30.72 0 0 0-30.72 30.72v280.95488h640.8192v-81.5616H700.52864c-50.8928-0.01024-92.14976-41.2672-92.16-92.16l-0.03072-137.95328z m96.12288 59.84256v58.91072a15.36 15.36 0 0 0 15.36 15.36h59.0848l-74.4448-74.27072z" fill="#FF527B" p-id="10053"></path></svg>