<?xml version="1.0" standalone="no"?><!DOCTYPE svg PUBLIC "-//W3C//DTD SVG 1.1//EN" "http://www.w3.org/Graphics/SVG/1.1/DTD/svg11.dtd"><svg t="1752739045237" class="icon" viewBox="0 0 1024 1024" version="1.1" xmlns="http://www.w3.org/2000/svg" p-id="6671" xmlns:xlink="http://www.w3.org/1999/xlink" width="200" height="200"><path d="M648.76544 0c24.40704 0 47.8208 9.68704 65.09568 26.9312l187.61728 187.21792a92.16 92.16 0 0 1 27.05408 65.2288v120.6272c44.2368 0 80.09728 35.85536 80.10752 80.08704v319.7952c0 43.24864-34.3296 78.6944-77.55776 80.06656l-2.54976 0.03072v48.00512c0 53.02272-43.02848 96-96.12288 96H191.5904c-53.0944 0-96.12288-42.97728-96.12288-96v-48.00512c-44.2368 0-80.09728-35.85536-80.10752-80.08704V480.1024c0-43.24864 34.3296-78.6944 77.55776-80.06656l2.54976-0.04096V96C95.46752 42.97728 138.496 0 191.5904 0h457.17504z m183.64416 879.99488H191.5904v17.28512a30.72 30.72 0 0 0 30.72 30.72h579.3792a30.72 30.72 0 0 0 30.72-30.72v-17.28512z m-58.14272-331.90912h-43.99104l-30.22848 172.032h38.33856l21.38112-121.6512 39.3216 68.8128h6.88128l64.88064-66.84672-21.13536 119.68512h38.33856l30.22848-172.032h-43.49952L812.8512 614.1952l-38.58432-66.10944zM518.18496 547.84H390.63552c-10.07616 57.26208-20.15232 114.76992-30.22848 172.032h130.99008l6.144-35.38944h-93.3888l6.144-34.65216h84.7872l5.89824-33.66912h-84.7872l5.89824-33.1776h89.94816l6.144-35.14368z m118.45632 0h-84.7872l-30.22848 172.032h87.73632c36.864 0 59.22816-12.288 68.32128-40.30464 6.144-19.16928 0.49152-42.02496-19.90656-49.88928 21.62688-9.33888 29.98272-25.31328 29.98272-42.27072 0-26.78784-21.38112-39.56736-51.11808-39.56736zM150.528 547.84H107.52l33.91488 171.78624h31.45728l52.59264-96.09216 19.90656 96.09216h31.45728L369.50016 547.84h-43.008l-30.72 58.9824-24.576 55.296L251.04384 547.84h-25.06752l-58.73664 114.2784-5.65248-55.54176L150.528 547.84z m468.41856 98.79552c14.99136 0 22.60992 6.88128 22.60992 16.95744 0 13.5168-9.58464 22.85568-29.24544 22.85568h-47.18592l7.12704-39.81312h46.6944z m12.04224-65.61792c12.288 0 17.44896 6.144 17.44896 13.5168 0 9.09312-8.35584 20.15232-24.08448 20.15232h-46.6944l6.144-33.66912h47.18592z m-27.77088-492.6976H222.3104a30.72 30.72 0 0 0-30.72 30.72v280.95488h640.8192v-81.5616h-137.00096c-50.8928-0.01024-92.14976-41.2672-92.16-92.16l-0.03072-137.95328z" fill="#FF527B" p-id="6672"></path></svg>