<?xml version="1.0" standalone="no"?><!DOCTYPE svg PUBLIC "-//W3C//DTD SVG 1.1//EN" "http://www.w3.org/Graphics/SVG/1.1/DTD/svg11.dtd"><svg t="1743952365496" class="icon" viewBox="0 0 1024 1024" version="1.1" xmlns="http://www.w3.org/2000/svg" p-id="15628" xmlns:xlink="http://www.w3.org/1999/xlink" width="200" height="200"><path d="M85.333333 938.666667V512h85.333334v284.373333l42.666666-56.746666 42.666667 56.746666V512h85.333333v426.666667h-85.333333l-42.666667-56.96L170.666667 938.666667zM85.333333 85.333333v384h85.333334V170.666667h519.253333L853.333333 334.08V469.333333h85.333334v-170.666666L725.333333 85.333333z m426.666667 512a42.666667 42.666667 0 0 0-42.666667 42.666667v42.666667h85.333334v-42.666667a42.666667 42.666667 0 0 0-42.666667-42.666667m0-85.333333a128 128 0 0 1 128 128v298.666667h-85.333333v-170.666667h-85.333334v170.666667h-85.333333V640a128 128 0 0 1 128-128z m341.333333 0v199.04a85.333333 85.333333 0 0 1-17.066666 51.2l-25.6 34.133333-25.6-34.133333a85.333333 85.333333 0 0 1-17.066667-51.2V512h-85.333333v199.04a170.666667 170.666667 0 0 0 34.133333 102.4L810.666667 938.666667l93.866666-125.226667a170.666667 170.666667 0 0 0 34.133334-102.4V512z" p-id="15629"></path></svg>