<?xml version="1.0" standalone="no"?><!DOCTYPE svg PUBLIC "-//W3C//DTD SVG 1.1//EN" "http://www.w3.org/Graphics/SVG/1.1/DTD/svg11.dtd"><svg t="1748244353364" class="icon" viewBox="0 0 1024 1024" version="1.1" xmlns="http://www.w3.org/2000/svg" p-id="3414" xmlns:xlink="http://www.w3.org/1999/xlink" width="200" height="200"><path d="M648.76544 0c24.40704 0 47.8208 9.68704 65.09568 26.9312l187.61728 187.21792a92.16 92.16 0 0 1 27.05408 65.2288v120.6272c44.2368 0 80.09728 35.85536 80.10752 80.08704v319.7952c0 43.24864-34.3296 78.6944-77.55776 80.06656l-2.54976 0.03072v48.00512c0 53.02272-43.02848 96-96.12288 96H191.5904c-53.0944 0-96.12288-42.97728-96.12288-96v-48.00512c-44.2368 0-80.09728-35.85536-80.10752-80.08704V480.1024c0-43.24864 34.3296-78.6944 77.55776-80.06656l2.54976-0.04096V96C95.46752 42.97728 138.496 0 191.5904 0h457.17504z m183.64416 879.99488H191.5904v17.28512a30.72 30.72 0 0 0 30.72 30.72h579.3792a30.72 30.72 0 0 0 30.72-30.72v-17.28512zM412.13952 547.84h-42.02496l-0.24576 1.72032 43.74528 83.06688-75.44832 86.016-0.24576 1.2288h46.6944l48.16896-57.01632 29.98272 57.01632h42.51648l0.24576-1.2288-45.21984-83.31264 75.44832-85.77024 0.24576-1.72032h-44.2368l-49.88928 59.22816L412.13952 547.84z m268.86144 0h-131.4816l-5.65248 32.93184h79.872l-105.18528 119.1936-3.44064 19.90656h137.6256l6.38976-35.88096h-84.54144l103.46496-119.43936 2.94912-16.71168z m-77.78304-459.52H222.3104a30.72 30.72 0 0 0-30.72 30.72v280.95488h640.8192v-81.5616h-137.00096c-50.8928-0.01024-92.14976-41.2672-92.16-92.16l-0.03072-137.95328z" fill="#2c2c2c" p-id="3415"></path></svg>