<?xml version="1.0" standalone="no"?><!DOCTYPE svg PUBLIC "-//W3C//DTD SVG 1.1//EN" "http://www.w3.org/Graphics/SVG/1.1/DTD/svg11.dtd"><svg t="1741167577658" class="icon" viewBox="0 0 1024 1024" version="1.1" xmlns="http://www.w3.org/2000/svg" p-id="14185" xmlns:xlink="http://www.w3.org/1999/xlink" width="200" height="200"><path d="M822.4 666.88a32 32 0 0 0-32 32v102.4A29.44 29.44 0 0 1 768 832H256a29.44 29.44 0 0 1-24.96-32v-102.4a32 32 0 0 0-32-32 32 32 0 0 0-32 32v102.4A92.8 92.8 0 0 0 256 896h512a92.8 92.8 0 0 0 88.96-96v-102.4a32 32 0 0 0-34.56-30.72zM840.32 310.4l-152.96-164.48a50.56 50.56 0 0 0-37.12-17.92H256a92.8 92.8 0 0 0-88.96 96v276.48a32.64 32.64 0 0 0 32 32 32 32 0 0 0 32-32V225.92A29.44 29.44 0 0 1 256 192h384l145.92 156.16v152.32a32 32 0 0 0 32 32 32.64 32.64 0 0 0 32-32V344.96a50.56 50.56 0 0 0-9.6-34.56z" p-id="14186"></path><path d="M347.52 644.48l32.64-50.56 32.64 50.56H448l-49.92-75.52 45.44-71.04H409.6l-28.8 46.72-29.44-46.72h-34.56l45.44 69.76-49.92 76.8h35.2zM604.8 644.48V497.92h-44.8l-26.24 99.84-26.24-99.84h-44.16v146.56h27.52v-115.2l28.8 115.2h28.16l29.44-115.2v115.2h27.52zM634.88 499.2v145.28h103.04v-24.96h-73.6V499.2h-29.44z" p-id="14187"></path></svg>