<?xml version="1.0" standalone="no"?><!DOCTYPE svg PUBLIC "-//W3C//DTD SVG 1.1//EN" "http://www.w3.org/Graphics/SVG/1.1/DTD/svg11.dtd"><svg t="1741165966750" class="icon" viewBox="0 0 1024 1024" version="1.1" xmlns="http://www.w3.org/2000/svg" p-id="8828" xmlns:xlink="http://www.w3.org/1999/xlink" width="200" height="200"><path d="M640 64a32 32 0 0 1 22.624 9.376L877.28 288H928a32 32 0 0 1 32 32v416a32 32 0 0 1-32 32h-32v160a32 32 0 0 1-32 32H160a32 32 0 0 1-32-32v-160H96a32 32 0 0 1-32-32V320a32 32 0 0 1 32-32h32V96a32 32 0 0 1 32-32h480z m192 704H192v128h640v-128z m64-416H128v352h768V352z m-400 48v192h128v64h-192v-256h64z m352 0v64h-128v32h92.8a35.2 35.2 0 0 1 35.008 31.36l0.192 3.84v89.6a35.2 35.2 0 0 1-35.2 35.2h-156.8v-64h128v-32h-92.8a35.2 35.2 0 0 1-35.008-31.36l-0.192-3.84v-89.6a35.2 35.2 0 0 1 35.2-35.2h156.8z m-594.528 0L288 462.08l34.496-62.144h73.248L324.608 528l71.104 128h-73.248L288 593.824 253.44 656H180.288L251.392 528l-71.136-128h73.216zM626.72 128H192v160h594.72l-160-160z" p-id="8829"></path></svg>