<?xml version="1.0" standalone="no"?><!DOCTYPE svg PUBLIC "-//W3C//DTD SVG 1.1//EN" "http://www.w3.org/Graphics/SVG/1.1/DTD/svg11.dtd"><svg t="1749300385411" class="icon" viewBox="0 0 1024 1024" version="1.1" xmlns="http://www.w3.org/2000/svg" p-id="12755" xmlns:xlink="http://www.w3.org/1999/xlink" width="200" height="200"><path d="M896 256H512V192c0-42.24-19.84-64-64-64H128c-35.2 0-64 28.8-64 64v640c0 35.2 28.8 64 64 64h768c35.2 0 64-28.8 64-64V320c0-35.2-28.8-64-64-64zM128 192h320v64H128V192z m384 576v-128c-62.72-1.28-117.76 14.08-163.2 44.8-45.44 30.72-76.16 80-92.8 147.2 1.28-104.96 24.96-184.32 72.32-238.72C375.04 539.52 436.48 512 512.64 512V384l256 192-256 192H512z" fill="" p-id="12756"></path></svg>