<?xml version="1.0" standalone="no"?><!DOCTYPE svg PUBLIC "-//W3C//DTD SVG 1.1//EN" "http://www.w3.org/Graphics/SVG/1.1/DTD/svg11.dtd"><svg t="1741253548652" class="icon" viewBox="0 0 1024 1024" version="1.1" xmlns="http://www.w3.org/2000/svg" p-id="1349" xmlns:xlink="http://www.w3.org/1999/xlink" width="200" height="200"><path d="M547.285333 86.698667a37.12 37.12 0 0 1 11.648 4.821333c2.730667 1.706667 5.077333 3.498667 9.301334 7.509333a32.170667 32.170667 0 0 1 15.232 15.018667l241.066666 241.066667c6.613333 3.2 11.946667 8.618667 15.104 15.274666 4.010667 4.309333 5.802667 6.656 7.509334 9.386667a37.12 37.12 0 0 1 4.821333 11.648c0.810667 3.498667 1.237333 6.741333 1.322667 14.08L853.333333 829.312c0 38.058667-3.968 51.84-11.392 65.706667-7.424 13.952-18.346667 24.874667-32.256 32.298666-13.909333 7.424-27.733333 11.392-65.706666 11.392H280.021333c-38.058667 0-51.84-3.968-65.706666-11.392a77.525333 77.525333 0 0 1-32.298667-32.256c-6.826667-12.842667-10.752-25.6-11.306667-57.386666L170.666667 194.730667c0-38.058667 3.968-51.84 11.392-65.706667 7.424-13.952 18.346667-24.874667 32.256-32.298667 12.842667-6.826667 25.6-10.752 57.386666-11.306666L528.213333 85.333333c11.050667 0 14.848 0.426667 19.072 1.365334zM522.666667 384V149.290667L280.064 149.333333c-25.002667 0-30.293333 1.024-35.541333 3.84a13.610667 13.610667 0 0 0-6.016 5.973334l-1.493334 3.413333c-1.493333 4.266667-2.176 10.538667-2.304 25.813333v647.253334l0.256 11.050666c0.426667 10.666667 1.536 14.421333 3.541334 18.133334a13.610667 13.610667 0 0 0 5.973333 6.016l2.986667 1.365333c4.864 1.792 12.117333 2.474667 32.597333 2.474667h463.872c25.002667 0 30.293333-1.024 35.541333-3.84a13.610667 13.610667 0 0 0 6.016-5.973334l1.365334-2.986666c1.792-4.864 2.474667-12.117333 2.474666-32.597334V416H554.666667a32 32 0 0 1-32-32z m11.221333 104.661333l85.333333 80.085334a32 32 0 0 1-43.776 46.677333l-31.445333-29.525333V768a32 32 0 0 1-64 0v-178.773333l-30.72 30.72a32 32 0 0 1-41.642667 3.114666l-3.584-3.114666a32 32 0 0 1 0-45.226667l85.333334-85.333333a32 32 0 0 1 44.501333-0.725334z m52.778667-280.832V352h144.128L586.666667 207.829333z" p-id="1350"></path></svg>