<?xml version="1.0" standalone="no"?><!DOCTYPE svg PUBLIC "-//W3C//DTD SVG 1.1//EN" "http://www.w3.org/Graphics/SVG/1.1/DTD/svg11.dtd"><svg t="1749300396473" class="icon" viewBox="0 0 1024 1024" version="1.1" xmlns="http://www.w3.org/2000/svg" p-id="12897" xmlns:xlink="http://www.w3.org/1999/xlink" width="200" height="200"><path d="M672 64H192c-35.2 0-64 28.8-64 64v768c0 35.2 28.8 64 64 64h640c35.2 0 64-28.8 64-64V288L672 64zM832 896H192V128h448l192 192v576zM512 288l256 192-256 192v-128c-62.72-1.28-117.76 14.08-163.2 44.8-45.44 30.72-76.16 80-92.8 147.2 1.28-104.96 24.96-184.32 72.32-238.72 46.72-53.76 108.16-81.28 184.32-81.28v-128H512z" fill="#000000" p-id="12898"></path></svg>