<?xml version="1.0" standalone="no"?><!DOCTYPE svg PUBLIC "-//W3C//DTD SVG 1.1//EN" "http://www.w3.org/Graphics/SVG/1.1/DTD/svg11.dtd"><svg t="1741228141767" class="icon" viewBox="0 0 1024 1024" version="1.1" xmlns="http://www.w3.org/2000/svg" p-id="4792" xmlns:xlink="http://www.w3.org/1999/xlink" width="200" height="200"><path d="M903.542857 256.685714L657.6 10.742857c-6.857143-6.857143-16.114286-10.742857-25.828571-10.742857H146.285714c-20.228571 0-36.571429 16.342857-36.571428 36.571429v950.857142c0 20.228571 16.342857 36.571429 36.571428 36.571429h731.428572c20.228571 0 36.571429-16.342857 36.571428-36.571429V282.628571c0-9.714286-3.885714-19.085714-10.742857-25.942857zM829.942857 299.428571H614.857143V84.342857L829.942857 299.428571z m2.057143 642.285715H192V82.285714h345.142857v246.857143a48 48 0 0 0 48 48h246.857143v564.571429zM548.571429 466.285714c0-5.028571-4.114286-9.142857-9.142858-9.142857h-54.857142c-5.028571 0-9.142857 4.114286-9.142858 9.142857v123.428572H352c-5.028571 0-9.142857 4.114286-9.142857 9.142857v54.857143c0 5.028571 4.114286 9.142857 9.142857 9.142857h123.428571v123.428571c0 5.028571 4.114286 9.142857 9.142858 9.142857h54.857142c5.028571 0 9.142857-4.114286 9.142858-9.142857V662.857143h123.428571c5.028571 0 9.142857-4.114286 9.142857-9.142857v-54.857143c0-5.028571-4.114286-9.142857-9.142857-9.142857H548.571429V466.285714z" p-id="4793"></path></svg>