<?xml version="1.0" standalone="no"?><!DOCTYPE svg PUBLIC "-//W3C//DTD SVG 1.1//EN" "http://www.w3.org/Graphics/SVG/1.1/DTD/svg11.dtd"><svg t="1743951290040" class="icon" viewBox="0 0 1024 1024" version="1.1" xmlns="http://www.w3.org/2000/svg" p-id="9826" xmlns:xlink="http://www.w3.org/1999/xlink" width="200" height="200"><path d="M941.318394 949.34265c-25.306362-149.278885-44.412512-200.851471-236.126882-200.851471v86.84902c0 6.770194-0.831948 12.971429-6.135744 15.589047-1.915629 0.766456-2.492774 1.343601-4.217045 1.343601-3.64297 0-6.77531-1.786693-9.457396-5.050016L517.376962 689.378873c-5.496178-6.581905-5.371334-17.316387 0.125867-23.898293L685.890934 506.867096c3.962242-4.666276 7.990998-6.261611 13.230326-3.64297 5.238304 2.618641 6.069229 8.884344 6.069229 15.72003v92.217285c191.715393 0 294.472731 106.71958 236.127905 338.181209z" p-id="9827"></path><path d="M941.318394 949.34265c-25.306362-149.278885-44.412512-200.851471-236.126882-200.851471v86.84902c0 6.770194-0.831948 12.971429-6.135744 15.589047-1.915629 0.766456-2.492774 1.343601-4.217045 1.343601-3.64297 0-6.77531-1.786693-9.457396-5.050016L517.376962 689.378873c-5.496178-6.581905-5.371334-17.316387 0.125867-23.898293L685.890934 506.867096c3.962242-4.666276 7.990998-6.261611 13.230326-3.64297 5.238304 2.618641 6.069229 8.884344 6.069229 15.72003v92.217285c191.715393 0 294.472731 106.71958 236.127905 338.181209z" p-id="9828"></path><path d="M960.032618 310.272579c0-23.434735-18.974144-42.412972-42.967604-42.412972H428.217317v-84.823897c0-23.437805-18.975167-42.408879-42.416042-42.408879H109.572046c-23.437805 0-42.971697 18.972097-42.971697 42.408879v191.412494h893.431246v-64.175625zM470.868719 733.245963l-2.473331-2.962471c-25.130354-30.090319-25.074072-75.53637 0.128937-105.712647l2.445701-2.926656 169.363316-159.534459c19.573801-20.748556 42.021046-23.959691 54.022381-23.959692 11.487635 0 22.691815 2.689249 33.30043 7.993045 15.442714 7.719822 41.348734 27.443026 41.348734 72.801073v32.274054c30.343075 3.858888 58.341756 10.593266 83.703377 20.151969 43.435255 16.372899 79.295997 40.950667 106.765629 73.118298V438.066127H66.600349v382.831129c0 23.434735 18.971074 42.408879 42.408879 42.408878H609.300558L470.868719 733.245963z" p-id="9829"></path><path d="M941.318394 949.34265c-25.306362-149.278885-44.412512-200.851471-236.126882-200.851471v86.84902c0 6.770194-0.831948 12.971429-6.135744 15.589047-1.915629 0.766456-2.492774 1.343601-4.217045 1.343601-3.64297 0-6.77531-1.786693-9.457396-5.050016L517.376962 689.378873c-5.496178-6.581905-5.371334-17.316387 0.125867-23.898293L685.890934 506.867096c3.962242-4.666276 7.990998-6.261611 13.230326-3.64297 5.238304 2.618641 6.069229 8.884344 6.069229 15.72003v92.217285c191.715393 0 294.472731 106.71958 236.127905 338.181209z" p-id="9830"></path></svg>