<?xml version="1.0" standalone="no"?><!DOCTYPE svg PUBLIC "-//W3C//DTD SVG 1.1//EN" "http://www.w3.org/Graphics/SVG/1.1/DTD/svg11.dtd"><svg t="1741357719207" class="icon" viewBox="0 0 1024 1024" version="1.1" xmlns="http://www.w3.org/2000/svg" p-id="2597" xmlns:xlink="http://www.w3.org/1999/xlink" width="200" height="200"><path d="M542.293333 460.373333a42.666667 42.666667 0 0 0-14.08-8.96 42.666667 42.666667 0 0 0-32.426666 0 42.666667 42.666667 0 0 0-14.08 8.96l-85.333334 85.333334a42.666667 42.666667 0 0 0 60.586667 60.586666l12.373333-12.8v110.506667a42.666667 42.666667 0 0 0 85.333334 0v-110.506667l12.373333 12.8a42.666667 42.666667 0 0 0 60.586667 0 42.666667 42.666667 0 0 0 0-60.586666zM810.666667 234.666667h-267.946667l-13.653333-42.666667a128 128 0 0 0-121.173334-85.333333H213.333333a128 128 0 0 0-128 128v554.666666a128 128 0 0 0 128 128h597.333334a128 128 0 0 0 128-128v-426.666666a128 128 0 0 0-128-128z m42.666666 554.666666a42.666667 42.666667 0 0 1-42.666666 42.666667H213.333333a42.666667 42.666667 0 0 1-42.666666-42.666667v-554.666666a42.666667 42.666667 0 0 1 42.666666-42.666667h194.56a42.666667 42.666667 0 0 1 40.533334 29.013333l23.04 69.973334a42.666667 42.666667 0 0 0 40.533333 29.013333h298.666667a42.666667 42.666667 0 0 1 42.666666 42.666667z" p-id="2598"></path></svg>